%TF.GenerationSoftware,KiCad,Pcbnew,(6.0.8)*%
%TF.CreationDate,2022-11-05T23:26:06+09:00*%
%TF.ProjectId,CIRCUITOS,43495243-5549-4544-9f53-2e6b69636164,rev?*%
%TF.SameCoordinates,Original*%
%TF.FileFunction,Copper,L1,Top*%
%TF.FilePolarity,Positive*%
%FSLAX46Y46*%
G04 Gerber Fmt 4.6, Leading zero omitted, Abs format (unit mm)*
G04 Created by KiCad (PCBNEW (6.0.8)) date 2022-11-05 23:26:06*
%MOMM*%
%LPD*%
G01*
G04 APERTURE LIST*
%TA.AperFunction,ComponentPad*%
%ADD10C,1.600000*%
%TD*%
%TA.AperFunction,ComponentPad*%
%ADD11O,1.600000X1.600000*%
%TD*%
%TA.AperFunction,ComponentPad*%
%ADD12R,1.600000X1.600000*%
%TD*%
%TA.AperFunction,ComponentPad*%
%ADD13C,2.000000*%
%TD*%
%TA.AperFunction,ViaPad*%
%ADD14C,0.800000*%
%TD*%
%TA.AperFunction,Conductor*%
%ADD15C,0.250000*%
%TD*%
G04 APERTURE END LIST*
D10*
%TO.P,R90,1*%
%TO.N,GND*%
X129920000Y-113000000D03*
D11*
%TO.P,R90,2*%
%TO.N,XO_B_in_A*%
X140080000Y-113000000D03*
%TD*%
D10*
%TO.P,R89,1*%
%TO.N,GND*%
X117920000Y-127000000D03*
D11*
%TO.P,R89,2*%
%TO.N,XO_B_in_B*%
X128080000Y-127000000D03*
%TD*%
D10*
%TO.P,R87,1*%
%TO.N,GND*%
X152080000Y-102000000D03*
D11*
%TO.P,R87,2*%
%TO.N,XO_A_in_B*%
X141920000Y-102000000D03*
%TD*%
D10*
%TO.P,R86,1*%
%TO.N,GND*%
X112920000Y-116000000D03*
D11*
%TO.P,R86,2*%
%TO.N,XO_A_in_A*%
X123080000Y-116000000D03*
%TD*%
D10*
%TO.P,R85,1*%
%TO.N,GND*%
X152080000Y-108000000D03*
D11*
%TO.P,R85,2*%
%TO.N,RX_MJ1*%
X141920000Y-108000000D03*
%TD*%
D10*
%TO.P,R84,1*%
%TO.N,GND*%
X152080000Y-105000000D03*
D11*
%TO.P,R84,2*%
%TO.N,RX_MJ0*%
X141920000Y-105000000D03*
%TD*%
D10*
%TO.P,R83,1*%
%TO.N,GND*%
X117840000Y-136000000D03*
D11*
%TO.P,R83,2*%
%TO.N,XO_C_in_A*%
X128000000Y-136000000D03*
%TD*%
D10*
%TO.P,R82,1*%
%TO.N,GND*%
X144000000Y-147080000D03*
D11*
%TO.P,R82,2*%
%TO.N,XO_C_in_B*%
X144000000Y-136920000D03*
%TD*%
D10*
%TO.P,R81,1*%
%TO.N,GND*%
X117920000Y-130000000D03*
D11*
%TO.P,R81,2*%
%TO.N,RX_MJ4*%
X128080000Y-130000000D03*
%TD*%
D10*
%TO.P,R80,1*%
%TO.N,GND*%
X117920000Y-133000000D03*
D11*
%TO.P,R80,2*%
%TO.N,RX_MJ5*%
X128080000Y-133000000D03*
%TD*%
D10*
%TO.P,R79,1*%
%TO.N,GND*%
X117840000Y-124000000D03*
D11*
%TO.P,R79,2*%
%TO.N,RX_MJ3*%
X128000000Y-124000000D03*
%TD*%
D10*
%TO.P,R78,1*%
%TO.N,GND*%
X117920000Y-121000000D03*
D11*
%TO.P,R78,2*%
%TO.N,RX_MJ2*%
X128080000Y-121000000D03*
%TD*%
D10*
%TO.P,R77,1*%
%TO.N,GND*%
X148080000Y-116000000D03*
D11*
%TO.P,R77,2*%
%TO.N,RX_MJ6*%
X137920000Y-116000000D03*
%TD*%
D10*
%TO.P,R76,1*%
%TO.N,GND*%
X144000000Y-134080000D03*
D11*
%TO.P,R76,2*%
%TO.N,RX_MJ7*%
X144000000Y-123920000D03*
%TD*%
D10*
%TO.P,R69,1*%
%TO.N,GND*%
X123080000Y-108000000D03*
D11*
%TO.P,R69,2*%
%TO.N,AND_J_out*%
X112920000Y-108000000D03*
%TD*%
D10*
%TO.P,R67,1*%
%TO.N,GND*%
X118000000Y-38000000D03*
D11*
%TO.P,R67,2*%
%TO.N,XO_I_in_A*%
X128160000Y-38000000D03*
%TD*%
D10*
%TO.P,R64,1*%
%TO.N,GND*%
X117920000Y-31000000D03*
D11*
%TO.P,R64,2*%
%TO.N,XO_H_in_A*%
X128080000Y-31000000D03*
%TD*%
D10*
%TO.P,R62,1*%
%TO.N,GND*%
X128920000Y-28000000D03*
D11*
%TO.P,R62,2*%
%TO.N,XO_J_in_B*%
X139080000Y-28000000D03*
%TD*%
D10*
%TO.P,R61,1*%
%TO.N,GND*%
X126080000Y-82000000D03*
D11*
%TO.P,R61,2*%
%TO.N,A*%
X115920000Y-82000000D03*
%TD*%
D10*
%TO.P,R60,1*%
%TO.N,GND*%
X111000000Y-37920000D03*
D11*
%TO.P,R60,2*%
%TO.N,AND_C_in_B*%
X111000000Y-48080000D03*
%TD*%
D10*
%TO.P,R59,1*%
%TO.N,GND*%
X110000000Y-80920000D03*
D11*
%TO.P,R59,2*%
%TO.N,AND_D_in_B*%
X110000000Y-91080000D03*
%TD*%
D10*
%TO.P,R54,1*%
%TO.N,GND*%
X110000000Y-106080000D03*
D11*
%TO.P,R54,2*%
%TO.N,AND_I_out*%
X110000000Y-95920000D03*
%TD*%
D10*
%TO.P,R53,1*%
%TO.N,GND*%
X107000000Y-106080000D03*
D11*
%TO.P,R53,2*%
%TO.N,AND_D_out*%
X107000000Y-95920000D03*
%TD*%
D10*
%TO.P,R52,1*%
%TO.N,GND*%
X128080000Y-35000000D03*
D11*
%TO.P,R52,2*%
%TO.N,AND_K_in_B*%
X117920000Y-35000000D03*
%TD*%
D10*
%TO.P,R49,1*%
%TO.N,GND*%
X115920000Y-64000000D03*
D11*
%TO.P,R49,2*%
%TO.N,AND_E_in_A*%
X126080000Y-64000000D03*
%TD*%
D10*
%TO.P,R48,1*%
%TO.N,GND*%
X125920000Y-59000000D03*
D11*
%TO.P,R48,2*%
%TO.N,AND_C_out*%
X136080000Y-59000000D03*
%TD*%
D10*
%TO.P,R46,1*%
%TO.N,GND*%
X115920000Y-73000000D03*
D11*
%TO.P,R46,2*%
%TO.N,AND_F_in_A*%
X126080000Y-73000000D03*
%TD*%
D10*
%TO.P,R45,1*%
%TO.N,GND*%
X116000000Y-76000000D03*
D11*
%TO.P,R45,2*%
%TO.N,AND_B_in_B*%
X126160000Y-76000000D03*
%TD*%
D10*
%TO.P,R44,1*%
%TO.N,GND*%
X115920000Y-79000000D03*
D11*
%TO.P,R44,2*%
%TO.N,AND_H_in_B*%
X126080000Y-79000000D03*
%TD*%
D10*
%TO.P,R43,1*%
%TO.N,GND*%
X111000000Y-61080000D03*
D11*
%TO.P,R43,2*%
%TO.N,AND_A_in_B*%
X111000000Y-50920000D03*
%TD*%
D10*
%TO.P,R41,1*%
%TO.N,GND*%
X134920000Y-52000000D03*
D11*
%TO.P,R41,2*%
%TO.N,AND_A_in_A*%
X145080000Y-52000000D03*
%TD*%
D10*
%TO.P,R38,1*%
%TO.N,GND*%
X134920000Y-55000000D03*
D11*
%TO.P,R38,2*%
%TO.N,AND_A_out*%
X145080000Y-55000000D03*
%TD*%
D10*
%TO.P,R34,1*%
%TO.N,GND*%
X134920000Y-159000000D03*
D11*
%TO.P,R34,2*%
%TO.N,J6_RX*%
X145080000Y-159000000D03*
%TD*%
D10*
%TO.P,R33,1*%
%TO.N,GND*%
X112920000Y-112320000D03*
D11*
%TO.P,R33,2*%
%TO.N,AND_M_out*%
X123080000Y-112320000D03*
%TD*%
D10*
%TO.P,R31,1*%
%TO.N,GND*%
X161000000Y-173080000D03*
D11*
%TO.P,R31,2*%
%TO.N,J7_RX*%
X161000000Y-162920000D03*
%TD*%
D10*
%TO.P,R30,1*%
%TO.N,J6_TX*%
X143000000Y-161920000D03*
D11*
%TO.P,R30,2*%
%TO.N,GND*%
X143000000Y-172080000D03*
%TD*%
D10*
%TO.P,R27,1*%
%TO.N,J7_TX*%
X150920000Y-176000000D03*
D11*
%TO.P,R27,2*%
%TO.N,GND*%
X161080000Y-176000000D03*
%TD*%
D10*
%TO.P,R26,1*%
%TO.N,GND*%
X151920000Y-116000000D03*
D11*
%TO.P,R26,2*%
%TO.N,J4_RX*%
X162080000Y-116000000D03*
%TD*%
D10*
%TO.P,R25,1*%
%TO.N,GND*%
X129920000Y-83000000D03*
D11*
%TO.P,R25,2*%
%TO.N,AND_H_out*%
X140080000Y-83000000D03*
%TD*%
D10*
%TO.P,R24,1*%
%TO.N,GND*%
X126000000Y-107080000D03*
D11*
%TO.P,R24,2*%
%TO.N,AND_K_out*%
X126000000Y-96920000D03*
%TD*%
D10*
%TO.P,R23,1*%
%TO.N,GND*%
X148920000Y-144000000D03*
D11*
%TO.P,R23,2*%
%TO.N,J5_RX*%
X159080000Y-144000000D03*
%TD*%
D10*
%TO.P,R22,1*%
%TO.N,J4_TX*%
X161000000Y-125920000D03*
D11*
%TO.P,R22,2*%
%TO.N,GND*%
X161000000Y-136080000D03*
%TD*%
D10*
%TO.P,R19,1*%
%TO.N,J5_TX*%
X148920000Y-141000000D03*
D11*
%TO.P,R19,2*%
%TO.N,GND*%
X159080000Y-141000000D03*
%TD*%
D10*
%TO.P,R18,1*%
%TO.N,GND*%
X161000000Y-91080000D03*
D11*
%TO.P,R18,2*%
%TO.N,J2_RX*%
X161000000Y-80920000D03*
%TD*%
D10*
%TO.P,R17,1*%
%TO.N,GND*%
X129920000Y-86000000D03*
D11*
%TO.P,R17,2*%
%TO.N,AND_F_out*%
X140080000Y-86000000D03*
%TD*%
D10*
%TO.P,R16,1*%
%TO.N,GND*%
X141000000Y-76080000D03*
D11*
%TO.P,R16,2*%
%TO.N,AND_G_out*%
X141000000Y-65920000D03*
%TD*%
D10*
%TO.P,R15,1*%
%TO.N,GND*%
X148920000Y-96000000D03*
D11*
%TO.P,R15,2*%
%TO.N,J3_RX*%
X159080000Y-96000000D03*
%TD*%
D10*
%TO.P,R14,1*%
%TO.N,J2_TX*%
X144000000Y-77840000D03*
D11*
%TO.P,R14,2*%
%TO.N,GND*%
X144000000Y-88000000D03*
%TD*%
D10*
%TO.P,R11,1*%
%TO.N,J3_TX*%
X160000000Y-101920000D03*
D11*
%TO.P,R11,2*%
%TO.N,GND*%
X160000000Y-112080000D03*
%TD*%
D10*
%TO.P,R10,1*%
%TO.N,GND*%
X143000000Y-44080000D03*
D11*
%TO.P,R10,2*%
%TO.N,J0_RX*%
X143000000Y-33920000D03*
%TD*%
D10*
%TO.P,R9,1*%
%TO.N,GND*%
X143920000Y-22000000D03*
D11*
%TO.P,R9,2*%
%TO.N,AND_B_out*%
X154080000Y-22000000D03*
%TD*%
D10*
%TO.P,R8,1*%
%TO.N,GND*%
X115920000Y-70000000D03*
D11*
%TO.P,R8,2*%
%TO.N,AND_E_out*%
X126080000Y-70000000D03*
%TD*%
D10*
%TO.P,R7,1*%
%TO.N,GND*%
X161000000Y-64080000D03*
D11*
%TO.P,R7,2*%
%TO.N,J1_RX*%
X161000000Y-53920000D03*
%TD*%
D10*
%TO.P,R6,1*%
%TO.N,J0_TX*%
X151000000Y-47000000D03*
D11*
%TO.P,R6,2*%
%TO.N,GND*%
X140840000Y-47000000D03*
%TD*%
D10*
%TO.P,R3,1*%
%TO.N,J1_TX*%
X161000000Y-35920000D03*
D11*
%TO.P,R3,2*%
%TO.N,GND*%
X161000000Y-46080000D03*
%TD*%
D10*
%TO.P,R2,1*%
%TO.N,To_RX*%
X127920000Y-90000000D03*
D11*
%TO.P,R2,2*%
%TO.N,GND*%
X138080000Y-90000000D03*
%TD*%
D10*
%TO.P,R1,1*%
%TO.N,TX_master*%
X149920000Y-150000000D03*
D11*
%TO.P,R1,2*%
%TO.N,GND*%
X160080000Y-150000000D03*
%TD*%
D10*
%TO.P,R58,1*%
%TO.N,GND*%
X147920000Y-71000000D03*
D11*
%TO.P,R58,2*%
%TO.N,AND_D_in_B*%
X158080000Y-71000000D03*
%TD*%
D12*
%TO.P,PXor3,1,1_Ia*%
%TO.N,XO_A_in_A*%
X130820000Y-93980000D03*
D11*
%TO.P,PXor3,2,1_Ib*%
%TO.N,XO_A_in_B*%
X130820000Y-96520000D03*
%TO.P,PXor3,3,1_O*%
%TO.N,To_RX*%
X130820000Y-99060000D03*
%TO.P,PXor3,4,2_Ia*%
%TO.N,XO_B_in_A*%
X130820000Y-101600000D03*
%TO.P,PXor3,5,2_Ib*%
%TO.N,XO_B_in_B*%
X130820000Y-104140000D03*
%TO.P,PXor3,6,2_O*%
%TO.N,XO_A_in_A*%
X130820000Y-106680000D03*
%TO.P,PXor3,7,GND*%
%TO.N,GND*%
X130820000Y-109220000D03*
%TO.P,PXor3,8,4_O*%
%TO.N,XO_B_in_A*%
X138440000Y-109220000D03*
%TO.P,PXor3,9,4_lb*%
%TO.N,RX_MJ1*%
X138440000Y-106680000D03*
%TO.P,PXor3,10,4_Ia*%
%TO.N,RX_MJ0*%
X138440000Y-104140000D03*
%TO.P,PXor3,11,3_O*%
%TO.N,XO_A_in_B*%
X138440000Y-101600000D03*
%TO.P,PXor3,12,3_lb*%
%TO.N,XO_C_in_B*%
X138440000Y-99060000D03*
%TO.P,PXor3,13,3_Ia*%
%TO.N,XO_C_in_A*%
X138440000Y-96520000D03*
%TO.P,PXor3,14,VCC*%
%TO.N,VCC_SERIAL*%
X138440000Y-93980000D03*
%TD*%
D12*
%TO.P,PXor2,1,1_Ia*%
%TO.N,RX_MJ2*%
X130820000Y-121920000D03*
D11*
%TO.P,PXor2,2,1_Ib*%
%TO.N,RX_MJ3*%
X130820000Y-124460000D03*
%TO.P,PXor2,3,1_O*%
%TO.N,XO_B_in_B*%
X130820000Y-127000000D03*
%TO.P,PXor2,4,2_Ia*%
%TO.N,RX_MJ4*%
X130820000Y-129540000D03*
%TO.P,PXor2,5,2_Ib*%
%TO.N,RX_MJ5*%
X130820000Y-132080000D03*
%TO.P,PXor2,6,2_O*%
%TO.N,XO_C_in_A*%
X130820000Y-134620000D03*
%TO.P,PXor2,7,GND*%
%TO.N,GND*%
X130820000Y-137160000D03*
%TO.P,PXor2,8,4_O*%
%TO.N,unconnected-(PXor2-Pad8)*%
X138440000Y-137160000D03*
%TO.P,PXor2,9,4_lb*%
%TO.N,unconnected-(PXor2-Pad9)*%
X138440000Y-134620000D03*
%TO.P,PXor2,10,4_Ia*%
%TO.N,unconnected-(PXor2-Pad10)*%
X138440000Y-132080000D03*
%TO.P,PXor2,11,3_O*%
%TO.N,XO_C_in_B*%
X138440000Y-129540000D03*
%TO.P,PXor2,12,3_lb*%
%TO.N,RX_MJ7*%
X138440000Y-127000000D03*
%TO.P,PXor2,13,3_Ia*%
%TO.N,RX_MJ6*%
X138440000Y-124460000D03*
%TO.P,PXor2,14,VCC*%
%TO.N,VCC_SERIAL*%
X138440000Y-121920000D03*
%TD*%
D12*
%TO.P,PXor1,1,1_Ia*%
%TO.N,XO_H_in_A*%
X130820000Y-33015000D03*
D11*
%TO.P,PXor1,2,1_Ib*%
%TO.N,AND_C_out*%
X130820000Y-35555000D03*
%TO.P,PXor1,3,1_O*%
%TO.N,AND_E_in_A*%
X130820000Y-38095000D03*
%TO.P,PXor1,4,2_Ia*%
%TO.N,XO_I_in_A*%
X130820000Y-40635000D03*
%TO.P,PXor1,5,2_Ib*%
%TO.N,AND_C_out*%
X130820000Y-43175000D03*
%TO.P,PXor1,6,2_O*%
%TO.N,AND_F_in_A*%
X130820000Y-45715000D03*
%TO.P,PXor1,7,GND*%
%TO.N,GND*%
X130820000Y-48255000D03*
%TO.P,PXor1,8,4_O*%
%TO.N,unconnected-(PXor1-Pad8)*%
X138440000Y-48255000D03*
%TO.P,PXor1,9,4_lb*%
%TO.N,unconnected-(PXor1-Pad9)*%
X138440000Y-45715000D03*
%TO.P,PXor1,10,4_Ia*%
%TO.N,unconnected-(PXor1-Pad10)*%
X138440000Y-43175000D03*
%TO.P,PXor1,11,3_O*%
%TO.N,AND_H_in_B*%
X138440000Y-40635000D03*
%TO.P,PXor1,12,3_lb*%
%TO.N,XO_J_in_B*%
X138440000Y-38095000D03*
%TO.P,PXor1,13,3_Ia*%
%TO.N,AND_I_out*%
X138440000Y-35555000D03*
%TO.P,PXor1,14,VCC*%
%TO.N,VCC_SERIAL*%
X138440000Y-33015000D03*
%TD*%
%TO.P,PAND7,14,VCC*%
%TO.N,VCC_SERIAL*%
X156220000Y-154935000D03*
%TO.P,PAND7,13,3_Ia*%
%TO.N,TX_master*%
X156220000Y-157475000D03*
%TO.P,PAND7,12,3_lb*%
%TO.N,AND_J_out*%
X156220000Y-160015000D03*
%TO.P,PAND7,11,3_O*%
%TO.N,J7_RX*%
X156220000Y-162555000D03*
%TO.P,PAND7,10,4_Ia*%
%TO.N,J7_TX*%
X156220000Y-165095000D03*
%TO.P,PAND7,9,4_lb*%
%TO.N,AND_J_out*%
X156220000Y-167635000D03*
%TO.P,PAND7,8,4_O*%
%TO.N,RX_MJ7*%
X156220000Y-170175000D03*
%TO.P,PAND7,7,GND*%
%TO.N,GND*%
X148600000Y-170175000D03*
%TO.P,PAND7,6,2_O*%
%TO.N,RX_MJ6*%
X148600000Y-167635000D03*
%TO.P,PAND7,5,2_Ib*%
%TO.N,AND_M_out*%
X148600000Y-165095000D03*
%TO.P,PAND7,4,2_Ia*%
%TO.N,J6_TX*%
X148600000Y-162555000D03*
%TO.P,PAND7,3,1_O*%
%TO.N,J6_RX*%
X148600000Y-160015000D03*
%TO.P,PAND7,2,1_Ib*%
%TO.N,AND_M_out*%
X148600000Y-157475000D03*
D12*
%TO.P,PAND7,1,1_Ia*%
%TO.N,TX_master*%
X148600000Y-154935000D03*
%TD*%
D11*
%TO.P,PAND6,14,VCC*%
%TO.N,VCC_SERIAL*%
X156220000Y-121915000D03*
%TO.P,PAND6,13,3_Ia*%
%TO.N,TX_master*%
X156220000Y-124455000D03*
%TO.P,PAND6,12,3_lb*%
%TO.N,AND_K_out*%
X156220000Y-126995000D03*
%TO.P,PAND6,11,3_O*%
%TO.N,J5_RX*%
X156220000Y-129535000D03*
%TO.P,PAND6,10,4_Ia*%
%TO.N,J5_TX*%
X156220000Y-132075000D03*
%TO.P,PAND6,9,4_lb*%
%TO.N,AND_K_out*%
X156220000Y-134615000D03*
%TO.P,PAND6,8,4_O*%
%TO.N,RX_MJ5*%
X156220000Y-137155000D03*
%TO.P,PAND6,7,GND*%
%TO.N,GND*%
X148600000Y-137155000D03*
%TO.P,PAND6,6,2_O*%
%TO.N,RX_MJ4*%
X148600000Y-134615000D03*
%TO.P,PAND6,5,2_Ib*%
%TO.N,AND_H_out*%
X148600000Y-132075000D03*
%TO.P,PAND6,4,2_Ia*%
%TO.N,J4_TX*%
X148600000Y-129535000D03*
%TO.P,PAND6,3,1_O*%
%TO.N,J4_RX*%
X148600000Y-126995000D03*
%TO.P,PAND6,2,1_Ib*%
%TO.N,AND_H_out*%
X148600000Y-124455000D03*
D12*
%TO.P,PAND6,1,1_Ia*%
%TO.N,TX_master*%
X148600000Y-121915000D03*
%TD*%
D11*
%TO.P,PAND5,14,VCC*%
%TO.N,VCC_SERIAL*%
X156220000Y-76200000D03*
%TO.P,PAND5,13,3_Ia*%
%TO.N,TX_master*%
X156220000Y-78740000D03*
%TO.P,PAND5,12,3_lb*%
%TO.N,AND_G_out*%
X156220000Y-81280000D03*
%TO.P,PAND5,11,3_O*%
%TO.N,J3_RX*%
X156220000Y-83820000D03*
%TO.P,PAND5,10,4_Ia*%
%TO.N,J3_TX*%
X156220000Y-86360000D03*
%TO.P,PAND5,9,4_lb*%
%TO.N,AND_G_out*%
X156220000Y-88900000D03*
%TO.P,PAND5,8,4_O*%
%TO.N,RX_MJ3*%
X156220000Y-91440000D03*
%TO.P,PAND5,7,GND*%
%TO.N,GND*%
X148600000Y-91440000D03*
%TO.P,PAND5,6,2_O*%
%TO.N,RX_MJ2*%
X148600000Y-88900000D03*
%TO.P,PAND5,5,2_Ib*%
%TO.N,AND_F_out*%
X148600000Y-86360000D03*
%TO.P,PAND5,4,2_Ia*%
%TO.N,J2_TX*%
X148600000Y-83820000D03*
%TO.P,PAND5,3,1_O*%
%TO.N,J2_RX*%
X148600000Y-81280000D03*
%TO.P,PAND5,2,1_Ib*%
%TO.N,AND_F_out*%
X148600000Y-78740000D03*
D12*
%TO.P,PAND5,1,1_Ia*%
%TO.N,TX_master*%
X148600000Y-76200000D03*
%TD*%
%TO.P,PAND4,1,1_Ia*%
%TO.N,TX_master*%
X148600000Y-27935000D03*
D11*
%TO.P,PAND4,2,1_Ib*%
%TO.N,AND_B_out*%
X148600000Y-30475000D03*
%TO.P,PAND4,3,1_O*%
%TO.N,J0_RX*%
X148600000Y-33015000D03*
%TO.P,PAND4,4,2_Ia*%
%TO.N,J0_TX*%
X148600000Y-35555000D03*
%TO.P,PAND4,5,2_Ib*%
%TO.N,AND_B_out*%
X148600000Y-38095000D03*
%TO.P,PAND4,6,2_O*%
%TO.N,RX_MJ0*%
X148600000Y-40635000D03*
%TO.P,PAND4,7,GND*%
%TO.N,GND*%
X148600000Y-43175000D03*
%TO.P,PAND4,8,4_O*%
%TO.N,RX_MJ1*%
X156220000Y-43175000D03*
%TO.P,PAND4,9,4_lb*%
%TO.N,AND_E_out*%
X156220000Y-40635000D03*
%TO.P,PAND4,10,4_Ia*%
%TO.N,J1_TX*%
X156220000Y-38095000D03*
%TO.P,PAND4,11,3_O*%
%TO.N,J1_RX*%
X156220000Y-35555000D03*
%TO.P,PAND4,12,3_lb*%
%TO.N,AND_E_out*%
X156220000Y-33015000D03*
%TO.P,PAND4,13,3_Ia*%
%TO.N,TX_master*%
X156220000Y-30475000D03*
%TO.P,PAND4,14,VCC*%
%TO.N,VCC_SERIAL*%
X156220000Y-27935000D03*
%TD*%
D12*
%TO.P,PAND3,1,1_Ia*%
%TO.N,A*%
X114300000Y-88895000D03*
D11*
%TO.P,PAND3,2,1_Ib*%
%TO.N,AND_D_in_B*%
X114300000Y-91435000D03*
%TO.P,PAND3,3,1_O*%
%TO.N,AND_I_out*%
X114300000Y-93975000D03*
%TO.P,PAND3,4,2_Ia*%
X114300000Y-96515000D03*
%TO.P,PAND3,5,2_Ib*%
%TO.N,AND_D_out*%
X114300000Y-99055000D03*
%TO.P,PAND3,6,2_O*%
%TO.N,AND_J_out*%
X114300000Y-101595000D03*
%TO.P,PAND3,7,GND*%
%TO.N,GND*%
X114300000Y-104135000D03*
%TO.P,PAND3,8,4_O*%
%TO.N,AND_M_out*%
X121920000Y-104135000D03*
%TO.P,PAND3,9,4_lb*%
%TO.N,AND_K_in_B*%
X121920000Y-101595000D03*
%TO.P,PAND3,10,4_Ia*%
%TO.N,AND_D_out*%
X121920000Y-99055000D03*
%TO.P,PAND3,11,3_O*%
%TO.N,AND_K_out*%
X121920000Y-96515000D03*
%TO.P,PAND3,12,3_lb*%
%TO.N,AND_K_in_B*%
X121920000Y-93975000D03*
%TO.P,PAND3,13,3_Ia*%
%TO.N,AND_I_out*%
X121920000Y-91435000D03*
%TO.P,PAND3,14,VCC*%
%TO.N,VCC_SERIAL*%
X121920000Y-88895000D03*
%TD*%
D12*
%TO.P,PAND2,1,1_Ia*%
%TO.N,AND_E_in_A*%
X130820000Y-63500000D03*
D11*
%TO.P,PAND2,2,1_Ib*%
%TO.N,AND_B_in_B*%
X130820000Y-66040000D03*
%TO.P,PAND2,3,1_O*%
%TO.N,AND_E_out*%
X130820000Y-68580000D03*
%TO.P,PAND2,4,2_Ia*%
%TO.N,AND_F_in_A*%
X130820000Y-71120000D03*
%TO.P,PAND2,5,2_Ib*%
%TO.N,AND_B_in_B*%
X130820000Y-73660000D03*
%TO.P,PAND2,6,2_O*%
%TO.N,AND_F_out*%
X130820000Y-76200000D03*
%TO.P,PAND2,7,GND*%
%TO.N,GND*%
X130820000Y-78740000D03*
%TO.P,PAND2,8,4_O*%
%TO.N,AND_H_out*%
X138440000Y-78740000D03*
%TO.P,PAND2,9,4_lb*%
%TO.N,AND_H_in_B*%
X138440000Y-76200000D03*
%TO.P,PAND2,10,4_Ia*%
%TO.N,AND_A_in_B*%
X138440000Y-73660000D03*
%TO.P,PAND2,11,3_O*%
%TO.N,AND_G_out*%
X138440000Y-71120000D03*
%TO.P,PAND2,12,3_lb*%
%TO.N,AND_B_in_B*%
X138440000Y-68580000D03*
%TO.P,PAND2,13,3_Ia*%
%TO.N,AND_C_out*%
X138440000Y-66040000D03*
%TO.P,PAND2,14,VCC*%
%TO.N,VCC_SERIAL*%
X138440000Y-63500000D03*
%TD*%
D12*
%TO.P,PAND1,1,1_Ia*%
%TO.N,AND_A_in_A*%
X148600000Y-50795000D03*
D11*
%TO.P,PAND1,2,1_Ib*%
%TO.N,AND_A_in_B*%
X148600000Y-53335000D03*
%TO.P,PAND1,3,1_O*%
%TO.N,AND_A_out*%
X148600000Y-55875000D03*
%TO.P,PAND1,4,2_Ia*%
X148600000Y-58415000D03*
%TO.P,PAND1,5,2_Ib*%
%TO.N,AND_B_in_B*%
X148600000Y-60955000D03*
%TO.P,PAND1,6,2_O*%
%TO.N,AND_B_out*%
X148600000Y-63495000D03*
%TO.P,PAND1,7,GND*%
%TO.N,GND*%
X148600000Y-66035000D03*
%TO.P,PAND1,8,4_O*%
%TO.N,AND_D_out*%
X156220000Y-66035000D03*
%TO.P,PAND1,9,4_lb*%
%TO.N,AND_D_in_B*%
X156220000Y-63495000D03*
%TO.P,PAND1,10,4_Ia*%
%TO.N,AND_C_in_B*%
X156220000Y-60955000D03*
%TO.P,PAND1,11,3_O*%
%TO.N,AND_C_out*%
X156220000Y-58415000D03*
%TO.P,PAND1,12,3_lb*%
%TO.N,AND_C_in_B*%
X156220000Y-55875000D03*
%TO.P,PAND1,13,3_Ia*%
%TO.N,A*%
X156220000Y-53335000D03*
%TO.P,PAND1,14,VCC*%
%TO.N,VCC_SERIAL*%
X156220000Y-50795000D03*
%TD*%
D13*
%TO.P,JSerial_R-P1,1,Pin_1*%
%TO.N,VCC_SERIAL*%
X108000000Y-162260000D03*
%TO.P,JSerial_R-P1,2,Pin_2*%
%TO.N,GND*%
X108000000Y-167260000D03*
%TO.P,JSerial_R-P1,3,Pin_3*%
%TO.N,To_RX*%
X108000000Y-172260000D03*
%TO.P,JSerial_R-P1,4,Pin_4*%
%TO.N,TX_master*%
X108000000Y-177260000D03*
%TD*%
%TO.P,JSelector1,1,Pin_1*%
%TO.N,A*%
X108000000Y-144440000D03*
%TO.P,JSelector1,2,Pin_2*%
%TO.N,AND_C_in_B*%
X108000000Y-149440000D03*
%TO.P,JSelector1,3,Pin_3*%
%TO.N,AND_D_in_B*%
X108000000Y-154440000D03*
%TD*%
%TO.P,JPower2,1,Pin_1*%
%TO.N,Net-(C1-Pad1)*%
X152400000Y-190500000D03*
%TO.P,JPower2,2,Pin_2*%
%TO.N,GND*%
X152400000Y-185500000D03*
%TD*%
%TO.P,JPower1,1,Pin_1*%
%TO.N,GND*%
X108000000Y-185000000D03*
%TO.P,JPower1,2,Pin_2*%
%TO.N,Net-(C1-Pad1)*%
X108000000Y-190000000D03*
%TD*%
%TO.P,J7,1,Pin_1*%
%TO.N,VCC_SERIAL*%
X167640000Y-177920000D03*
%TO.P,J7,2,Pin_2*%
%TO.N,GND*%
X167640000Y-182920000D03*
%TO.P,J7,3,Pin_3*%
%TO.N,J7_RX*%
X167640000Y-187920000D03*
%TO.P,J7,4,Pin_4*%
%TO.N,J7_TX*%
X167640000Y-192920000D03*
%TD*%
%TO.P,J6,1,Pin_1*%
%TO.N,VCC_SERIAL*%
X167640000Y-155100000D03*
%TO.P,J6,2,Pin_2*%
%TO.N,GND*%
X167640000Y-160100000D03*
%TO.P,J6,3,Pin_3*%
%TO.N,J6_RX*%
X167640000Y-165100000D03*
%TO.P,J6,4,Pin_4*%
%TO.N,J6_TX*%
X167640000Y-170100000D03*
%TD*%
%TO.P,J5,1,Pin_1*%
%TO.N,VCC_SERIAL*%
X167640000Y-132200000D03*
%TO.P,J5,2,Pin_2*%
%TO.N,GND*%
X167640000Y-137200000D03*
%TO.P,J5,3,Pin_3*%
%TO.N,J5_RX*%
X167640000Y-142200000D03*
%TO.P,J5,4,Pin_4*%
%TO.N,J5_TX*%
X167640000Y-147200000D03*
%TD*%
%TO.P,J4,1,Pin_1*%
%TO.N,VCC_SERIAL*%
X167640000Y-109340000D03*
%TO.P,J4,2,Pin_2*%
%TO.N,GND*%
X167640000Y-114340000D03*
%TO.P,J4,3,Pin_3*%
%TO.N,J4_RX*%
X167640000Y-119340000D03*
%TO.P,J4,4,Pin_4*%
%TO.N,J4_TX*%
X167640000Y-124340000D03*
%TD*%
%TO.P,J3,1,Pin_1*%
%TO.N,VCC_SERIAL*%
X167640000Y-86600000D03*
%TO.P,J3,2,Pin_2*%
%TO.N,GND*%
X167640000Y-91600000D03*
%TO.P,J3,3,Pin_3*%
%TO.N,J3_RX*%
X167640000Y-96600000D03*
%TO.P,J3,4,Pin_4*%
%TO.N,J3_TX*%
X167640000Y-101600000D03*
%TD*%
%TO.P,J2,1,Pin_1*%
%TO.N,VCC_SERIAL*%
X167640000Y-63620000D03*
%TO.P,J2,2,Pin_2*%
%TO.N,GND*%
X167640000Y-68620000D03*
%TO.P,J2,3,Pin_3*%
%TO.N,J2_RX*%
X167640000Y-73620000D03*
%TO.P,J2,4,Pin_4*%
%TO.N,J2_TX*%
X167640000Y-78620000D03*
%TD*%
%TO.P,J1,1,Pin_1*%
%TO.N,VCC_SERIAL*%
X167640000Y-40880000D03*
%TO.P,J1,2,Pin_2*%
%TO.N,GND*%
X167640000Y-45880000D03*
%TO.P,J1,3,Pin_3*%
%TO.N,J1_RX*%
X167640000Y-50880000D03*
%TO.P,J1,4,Pin_4*%
%TO.N,J1_TX*%
X167640000Y-55880000D03*
%TD*%
%TO.P,J0,1,Pin_1*%
%TO.N,VCC_SERIAL*%
X167640000Y-18020000D03*
%TO.P,J0,2,Pin_2*%
%TO.N,GND*%
X167640000Y-23020000D03*
%TO.P,J0,3,Pin_3*%
%TO.N,J0_RX*%
X167640000Y-28020000D03*
%TO.P,J0,4,Pin_4*%
%TO.N,J0_TX*%
X167640000Y-33020000D03*
%TD*%
D12*
%TO.P,INOT1,1,1_I*%
%TO.N,A*%
X114300000Y-43175000D03*
D11*
%TO.P,INOT1,2,1_O*%
%TO.N,AND_A_in_A*%
X114300000Y-45715000D03*
%TO.P,INOT1,3,2_I*%
%TO.N,AND_C_in_B*%
X114300000Y-48255000D03*
%TO.P,INOT1,4,2_O*%
%TO.N,AND_A_in_B*%
X114300000Y-50795000D03*
%TO.P,INOT1,5,3_I*%
%TO.N,AND_D_in_B*%
X114300000Y-53335000D03*
%TO.P,INOT1,6,3_O*%
%TO.N,AND_B_in_B*%
X114300000Y-55875000D03*
%TO.P,INOT1,7,GND*%
%TO.N,GND*%
X114300000Y-58415000D03*
%TO.P,INOT1,8,4_O*%
%TO.N,unconnected-(INOT1-Pad8)*%
X121920000Y-58415000D03*
%TO.P,INOT1,9,4_l*%
%TO.N,unconnected-(INOT1-Pad9)*%
X121920000Y-55875000D03*
%TO.P,INOT1,10,5_O*%
%TO.N,unconnected-(INOT1-Pad10)*%
X121920000Y-53335000D03*
%TO.P,INOT1,11,5_I*%
%TO.N,unconnected-(INOT1-Pad11)*%
X121920000Y-50795000D03*
%TO.P,INOT1,12,6_O*%
%TO.N,AND_K_in_B*%
X121920000Y-48255000D03*
%TO.P,INOT1,13,6_I*%
%TO.N,AND_J_out*%
X121920000Y-45715000D03*
%TO.P,INOT1,14,VCC*%
%TO.N,VCC_SERIAL*%
X121920000Y-43175000D03*
%TD*%
D10*
%TO.P,C12,1*%
%TO.N,VCC_SERIAL*%
X159000000Y-122000000D03*
%TO.P,C12,2*%
%TO.N,GND*%
X161500000Y-122000000D03*
%TD*%
%TO.P,C11,1*%
%TO.N,VCC_SERIAL*%
X125000000Y-43000000D03*
%TO.P,C11,2*%
%TO.N,GND*%
X127500000Y-43000000D03*
%TD*%
%TO.P,C10,1*%
%TO.N,VCC_SERIAL*%
X159000000Y-51000000D03*
%TO.P,C10,2*%
%TO.N,GND*%
X161500000Y-51000000D03*
%TD*%
%TO.P,C9,1*%
%TO.N,VCC_SERIAL*%
X142000000Y-93000000D03*
%TO.P,C9,2*%
%TO.N,GND*%
X144500000Y-93000000D03*
%TD*%
%TO.P,C8,1*%
%TO.N,VCC_SERIAL*%
X142000000Y-121000000D03*
%TO.P,C8,2*%
%TO.N,GND*%
X144500000Y-121000000D03*
%TD*%
%TO.P,C7,1*%
%TO.N,VCC_SERIAL*%
X125000000Y-86000000D03*
%TO.P,C7,2*%
%TO.N,GND*%
X127500000Y-86000000D03*
%TD*%
%TO.P,C6,1*%
%TO.N,VCC_SERIAL*%
X159000000Y-76000000D03*
%TO.P,C6,2*%
%TO.N,GND*%
X161500000Y-76000000D03*
%TD*%
%TO.P,C5,1*%
%TO.N,VCC_SERIAL*%
X159000000Y-155000000D03*
%TO.P,C5,2*%
%TO.N,GND*%
X161500000Y-155000000D03*
%TD*%
%TO.P,C4,1*%
%TO.N,VCC_SERIAL*%
X142000000Y-31000000D03*
%TO.P,C4,2*%
%TO.N,GND*%
X144500000Y-31000000D03*
%TD*%
%TO.P,C3,1*%
%TO.N,VCC_SERIAL*%
X142000000Y-63000000D03*
%TO.P,C3,2*%
%TO.N,GND*%
X144500000Y-63000000D03*
%TD*%
%TO.P,C2,1*%
%TO.N,VCC_SERIAL*%
X159000000Y-28000000D03*
%TO.P,C2,2*%
%TO.N,GND*%
X161500000Y-28000000D03*
%TD*%
%TO.P,C1,1*%
%TO.N,Net-(C1-Pad1)*%
X118000000Y-188660000D03*
%TO.P,C1,2*%
%TO.N,GND*%
X118000000Y-186160000D03*
%TD*%
D14*
%TO.N,RX_MJ0*%
X135000000Y-98000000D03*
X133000000Y-93000000D03*
X126000000Y-92000000D03*
X135000000Y-76000000D03*
X136000000Y-72000000D03*
X137000000Y-62000000D03*
X149000000Y-47000000D03*
%TO.N,RX_MJ1*%
X155000000Y-47000000D03*
X140000000Y-62000000D03*
X145000000Y-66000000D03*
X143000000Y-70000000D03*
X143858198Y-73858198D03*
X143000000Y-76000000D03*
%TO.N,AND_G_out*%
X159000000Y-79000000D03*
X145000000Y-74000000D03*
X144000000Y-71000000D03*
%TO.N,XO_C_in_B*%
X133000000Y-116000000D03*
X135000000Y-123000000D03*
X134000000Y-128000000D03*
%TO.N,XO_B_in_A*%
X135000000Y-103000000D03*
X136000000Y-112000000D03*
%TO.N,TX_master*%
X154000000Y-81000000D03*
X151000000Y-91000000D03*
X144000000Y-112000000D03*
%TO.N,AND_K_out*%
X158000000Y-124000000D03*
X127000000Y-103000000D03*
%TO.N,To_RX*%
X128000000Y-95000000D03*
%TO.N,AND_F_out*%
X134000000Y-84000000D03*
X134000000Y-76000000D03*
%TO.N,AND_B_out*%
X154000000Y-56000000D03*
X151000000Y-55000000D03*
X153000000Y-47000000D03*
X153000000Y-41000000D03*
%TO.N,AND_E_out*%
X127000000Y-60000000D03*
X127000000Y-58000000D03*
X129000000Y-45000000D03*
X136000000Y-47000000D03*
%TO.N,AND_F_in_A*%
X133000000Y-65000000D03*
X129000000Y-60000000D03*
X129000000Y-58000000D03*
%TO.N,AND_D_in_B*%
X117045000Y-84955000D03*
X114000000Y-78000000D03*
%TO.N,AND_D_out*%
X154000000Y-69000000D03*
%TO.N,AND_K_in_B*%
X118000000Y-63000000D03*
%TO.N,AND_C_out*%
X141000000Y-52000000D03*
X137000000Y-51000000D03*
%TO.N,AND_E_in_A*%
X122000000Y-61000000D03*
X124000000Y-46000000D03*
%TO.N,AND_J_out*%
X121000000Y-126000000D03*
X142000000Y-151000000D03*
%TO.N,AND_M_out*%
X120000000Y-121000000D03*
X141000000Y-152000000D03*
%TO.N,XO_A_in_A*%
X129000000Y-117000000D03*
%TO.N,AND_J_out*%
X112000000Y-78000000D03*
%TO.N,RX_MJ6*%
X130000000Y-150000000D03*
X130000000Y-155000000D03*
%TO.N,AND_C_out*%
X158000000Y-62000000D03*
%TD*%
D15*
%TO.N,GND*%
X170000000Y-20660000D02*
X167640000Y-23020000D01*
X170000000Y-18000000D02*
X170000000Y-20660000D01*
X167000000Y-15000000D02*
X170000000Y-18000000D01*
X155000000Y-15000000D02*
X167000000Y-15000000D01*
X154000000Y-16000000D02*
X155000000Y-15000000D01*
X148000000Y-16000000D02*
X154000000Y-16000000D01*
X143920000Y-20080000D02*
X148000000Y-16000000D01*
X143920000Y-22000000D02*
X143920000Y-20080000D01*
%TO.N,RX_MJ0*%
X145000000Y-101000000D02*
X145000000Y-101920000D01*
X141935000Y-97935000D02*
X145000000Y-101000000D01*
X145000000Y-101920000D02*
X141920000Y-105000000D01*
X135065000Y-97935000D02*
X141935000Y-97935000D01*
X135000000Y-98000000D02*
X135065000Y-97935000D01*
X127125000Y-93125000D02*
X126000000Y-92000000D01*
X127699695Y-95725000D02*
X127125000Y-95150305D01*
X127125000Y-95150305D02*
X127125000Y-93125000D01*
X129695000Y-92855000D02*
X129000000Y-93550000D01*
X128638604Y-95725000D02*
X127699695Y-95725000D01*
X129000000Y-95363604D02*
X128638604Y-95725000D01*
X132855000Y-92855000D02*
X129695000Y-92855000D01*
X129000000Y-93550000D02*
X129000000Y-95363604D01*
X133000000Y-93000000D02*
X132855000Y-92855000D01*
%TO.N,VCC_SERIAL*%
X125510991Y-86000000D02*
X125000000Y-86000000D01*
X130510992Y-91000000D02*
X125510991Y-86000000D01*
X133000000Y-91000000D02*
X130510992Y-91000000D01*
X135980000Y-93980000D02*
X133000000Y-91000000D01*
X138440000Y-93980000D02*
X135980000Y-93980000D01*
%TO.N,RX_MJ0*%
X136000000Y-75000000D02*
X135000000Y-76000000D01*
X136000000Y-72000000D02*
X136000000Y-75000000D01*
X138530991Y-62000000D02*
X137000000Y-62000000D01*
X140025305Y-63000000D02*
X139530991Y-63000000D01*
X140725000Y-62300305D02*
X140025305Y-63000000D01*
X143000000Y-52489009D02*
X143000000Y-60000000D01*
X140725000Y-62275000D02*
X140725000Y-62300305D01*
X148489009Y-47000000D02*
X143000000Y-52489009D01*
X143000000Y-60000000D02*
X140725000Y-62275000D01*
X149000000Y-47000000D02*
X148489009Y-47000000D01*
X139530991Y-63000000D02*
X138530991Y-62000000D01*
%TO.N,RX_MJ1*%
X153875000Y-45875000D02*
X155000000Y-47000000D01*
X147125000Y-45875000D02*
X153875000Y-45875000D01*
X142000000Y-51000000D02*
X147125000Y-45875000D01*
X142000000Y-60000000D02*
X142000000Y-51000000D01*
X140000000Y-62000000D02*
X142000000Y-60000000D01*
X143000000Y-68000000D02*
X145000000Y-66000000D01*
X143000000Y-70000000D02*
X143000000Y-68000000D01*
%TO.N,GND*%
X141000000Y-74000000D02*
X142960000Y-72040000D01*
X142960000Y-72040000D02*
X145040000Y-72040000D01*
X146080000Y-71000000D02*
X145040000Y-72040000D01*
X141000000Y-76080000D02*
X141000000Y-74000000D01*
%TO.N,RX_MJ1*%
X143000000Y-74716396D02*
X143858198Y-73858198D01*
X143000000Y-76000000D02*
X143000000Y-74716396D01*
%TO.N,AND_G_out*%
X157325000Y-77325000D02*
X159000000Y-79000000D01*
X152325000Y-77325000D02*
X157325000Y-77325000D01*
X149000000Y-74000000D02*
X152325000Y-77325000D01*
X145000000Y-74000000D02*
X149000000Y-74000000D01*
X143880000Y-71120000D02*
X144000000Y-71000000D01*
X138440000Y-71120000D02*
X143880000Y-71120000D01*
%TO.N,AND_B_in_B*%
X143375000Y-63465991D02*
X143375000Y-62261396D01*
X139875000Y-65454009D02*
X140534009Y-64795000D01*
X143375000Y-62261396D02*
X144681396Y-60955000D01*
X144681396Y-60955000D02*
X148600000Y-60955000D01*
X139875000Y-67145000D02*
X139875000Y-65454009D01*
X140534009Y-64795000D02*
X142045991Y-64795000D01*
X142045991Y-64795000D02*
X143375000Y-63465991D01*
X138440000Y-68580000D02*
X139875000Y-67145000D01*
%TO.N,XO_C_in_B*%
X135000000Y-118000000D02*
X133000000Y-116000000D01*
X135000000Y-123000000D02*
X135000000Y-118000000D01*
X135540000Y-129540000D02*
X134000000Y-128000000D01*
X138440000Y-129540000D02*
X135540000Y-129540000D01*
%TO.N,RX_MJ4*%
X142400000Y-128415000D02*
X148600000Y-134615000D01*
X136000000Y-127000000D02*
X137415000Y-128415000D01*
X133360000Y-127000000D02*
X136000000Y-127000000D01*
X137415000Y-128415000D02*
X142400000Y-128415000D01*
X130820000Y-129540000D02*
X133360000Y-127000000D01*
%TO.N,XO_B_in_A*%
X133600000Y-101600000D02*
X130820000Y-101600000D01*
X135000000Y-103000000D02*
X133600000Y-101600000D01*
X137000000Y-113000000D02*
X140080000Y-113000000D01*
X136000000Y-112000000D02*
X137000000Y-113000000D01*
%TO.N,TX_master*%
X151000000Y-84000000D02*
X154000000Y-81000000D01*
X151000000Y-91000000D02*
X151000000Y-84000000D01*
X146000000Y-112000000D02*
X144000000Y-112000000D01*
X149205000Y-115205000D02*
X146000000Y-112000000D01*
X149205000Y-121310000D02*
X149205000Y-115205000D01*
X148600000Y-121915000D02*
X149205000Y-121310000D01*
%TO.N,AND_K_out*%
X157040000Y-123040000D02*
X158000000Y-124000000D01*
X155040000Y-123040000D02*
X157040000Y-123040000D01*
X150000000Y-115000000D02*
X150000000Y-118000000D01*
X146000000Y-111000000D02*
X150000000Y-115000000D01*
X138489009Y-111000000D02*
X146000000Y-111000000D01*
X137315000Y-109825991D02*
X138489009Y-111000000D01*
X150000000Y-118000000D02*
X155040000Y-123040000D01*
X131270991Y-103000000D02*
X137315000Y-109044009D01*
X137315000Y-109044009D02*
X137315000Y-109825991D01*
X127000000Y-103000000D02*
X131270991Y-103000000D01*
%TO.N,To_RX*%
X127920000Y-94920000D02*
X128000000Y-95000000D01*
X127920000Y-90000000D02*
X127920000Y-94920000D01*
%TO.N,AND_F_out*%
X136000000Y-86000000D02*
X140080000Y-86000000D01*
X134000000Y-84000000D02*
X136000000Y-86000000D01*
X133800000Y-76200000D02*
X134000000Y-76000000D01*
X130820000Y-76200000D02*
X133800000Y-76200000D01*
%TO.N,J2_TX*%
X144000000Y-81000000D02*
X144000000Y-77840000D01*
X148600000Y-83820000D02*
X146820000Y-83820000D01*
X146820000Y-83820000D02*
X144000000Y-81000000D01*
%TO.N,AND_B_out*%
X151000000Y-59000000D02*
X154000000Y-56000000D01*
X151000000Y-61095000D02*
X151000000Y-59000000D01*
X148600000Y-63495000D02*
X151000000Y-61095000D01*
%TO.N,VCC_SERIAL*%
X152000000Y-56000000D02*
X152000000Y-55000000D01*
X151000000Y-57000000D02*
X149725000Y-58275000D01*
X152000000Y-56000000D02*
X151000000Y-57000000D01*
%TO.N,AND_C_in_B*%
X155095000Y-57000000D02*
X156220000Y-55875000D01*
X154000000Y-57000000D02*
X155095000Y-57000000D01*
X153000000Y-58000000D02*
X154000000Y-57000000D01*
X153000000Y-60000000D02*
X153000000Y-58000000D01*
%TO.N,VCC_SERIAL*%
X149725000Y-58275000D02*
X149725000Y-58880991D01*
X149725000Y-58880991D02*
X149065991Y-59540000D01*
X152000000Y-55015000D02*
X152000000Y-56000000D01*
X149065991Y-59540000D02*
X145460000Y-59540000D01*
X156220000Y-50795000D02*
X152000000Y-55015000D01*
X145460000Y-59540000D02*
X142000000Y-63000000D01*
%TO.N,AND_B_out*%
X153000000Y-53000000D02*
X151000000Y-55000000D01*
X153000000Y-47000000D02*
X153000000Y-53000000D01*
X150095000Y-38095000D02*
X153000000Y-41000000D01*
X148600000Y-38095000D02*
X150095000Y-38095000D01*
%TO.N,VCC_SERIAL*%
X166040000Y-85000000D02*
X167640000Y-86600000D01*
X154000000Y-85000000D02*
X166040000Y-85000000D01*
X153000000Y-86000000D02*
X154000000Y-85000000D01*
X151000000Y-93000000D02*
X153000000Y-91000000D01*
X153000000Y-91000000D02*
X153000000Y-86000000D01*
X149000000Y-93000000D02*
X151000000Y-93000000D01*
X147000000Y-95000000D02*
X149000000Y-93000000D01*
X144000000Y-95000000D02*
X147000000Y-95000000D01*
X142000000Y-93000000D02*
X144000000Y-95000000D01*
%TO.N,AND_E_out*%
X124000000Y-67920000D02*
X126080000Y-70000000D01*
X124000000Y-63000000D02*
X124000000Y-67920000D01*
X127000000Y-60000000D02*
X124000000Y-63000000D01*
X127000000Y-56329009D02*
X127000000Y-58000000D01*
X129000000Y-54329009D02*
X127000000Y-56329009D01*
X129000000Y-45000000D02*
X129000000Y-54329009D01*
X139565000Y-46435000D02*
X139000000Y-47000000D01*
X139000000Y-47000000D02*
X136000000Y-47000000D01*
X139565000Y-45435000D02*
X139565000Y-46435000D01*
X143000000Y-42000000D02*
X139565000Y-45435000D01*
X154855000Y-42000000D02*
X143000000Y-42000000D01*
X156220000Y-40635000D02*
X154855000Y-42000000D01*
%TO.N,AND_F_in_A*%
X133000000Y-63430000D02*
X133000000Y-65000000D01*
X129570000Y-60000000D02*
X133000000Y-63430000D01*
X129000000Y-60000000D02*
X129570000Y-60000000D01*
X129695000Y-57305000D02*
X129000000Y-58000000D01*
X129695000Y-46840000D02*
X129695000Y-57305000D01*
X130820000Y-45715000D02*
X129695000Y-46840000D01*
%TO.N,AND_D_in_B*%
X109450000Y-58185000D02*
X114300000Y-53335000D01*
X114000000Y-67000000D02*
X109450000Y-62450000D01*
X114000000Y-78000000D02*
X114000000Y-67000000D01*
X117045000Y-88690000D02*
X117045000Y-84955000D01*
X114300000Y-91435000D02*
X117045000Y-88690000D01*
X109450000Y-62450000D02*
X109450000Y-58185000D01*
%TO.N,XO_C_in_A*%
X137025000Y-95105000D02*
X138440000Y-96520000D01*
X129000000Y-96000000D02*
X129895000Y-95105000D01*
X129000000Y-99000000D02*
X129000000Y-96000000D01*
X121000000Y-107000000D02*
X129000000Y-99000000D01*
X121000000Y-108000000D02*
X121000000Y-107000000D01*
X123000000Y-110000000D02*
X121000000Y-108000000D01*
X124000000Y-110000000D02*
X123000000Y-110000000D01*
X125000000Y-111000000D02*
X124000000Y-110000000D01*
X129895000Y-95105000D02*
X137025000Y-95105000D01*
X124000000Y-114000000D02*
X125000000Y-113000000D01*
X121000000Y-118000000D02*
X121000000Y-116000000D01*
X121725000Y-118725000D02*
X121000000Y-118000000D01*
X121000000Y-116000000D02*
X123000000Y-114000000D01*
X125000000Y-113000000D02*
X125000000Y-111000000D01*
X121725000Y-129725000D02*
X121725000Y-118725000D01*
X123000000Y-114000000D02*
X124000000Y-114000000D01*
X128000000Y-136000000D02*
X121725000Y-129725000D01*
%TO.N,AND_D_out*%
X154000000Y-68255000D02*
X154000000Y-69000000D01*
X156220000Y-66035000D02*
X154000000Y-68255000D01*
%TO.N,AND_K_in_B*%
X118000000Y-52175000D02*
X118000000Y-63000000D01*
X121920000Y-48255000D02*
X118000000Y-52175000D01*
%TO.N,AND_C_out*%
X141000000Y-52000000D02*
X136080000Y-56920000D01*
X136080000Y-56920000D02*
X136080000Y-59000000D01*
X137000000Y-49355000D02*
X137000000Y-51000000D01*
X130820000Y-43175000D02*
X137000000Y-49355000D01*
%TO.N,AND_E_in_A*%
X123000000Y-61000000D02*
X122000000Y-61000000D01*
X124000000Y-60000000D02*
X123000000Y-61000000D01*
X124000000Y-46000000D02*
X124000000Y-60000000D01*
%TO.N,AND_J_out*%
X116000000Y-108000000D02*
X112920000Y-108000000D01*
X119045000Y-111045000D02*
X116000000Y-108000000D01*
X119045000Y-121000000D02*
X119045000Y-111045000D01*
X119045000Y-124045000D02*
X119045000Y-121000000D01*
X121000000Y-126000000D02*
X119045000Y-124045000D01*
X140716396Y-151000000D02*
X142000000Y-151000000D01*
X140000000Y-151716396D02*
X140716396Y-151000000D01*
X140000000Y-155510991D02*
X140000000Y-151716396D01*
X145629009Y-161140000D02*
X140000000Y-155510991D01*
X150190991Y-160015000D02*
X149065991Y-161140000D01*
X149065991Y-161140000D02*
X145629009Y-161140000D01*
X156220000Y-160015000D02*
X150190991Y-160015000D01*
%TO.N,AND_M_out*%
X120000000Y-115400000D02*
X123080000Y-112320000D01*
X120000000Y-121000000D02*
X120000000Y-115400000D01*
X143901396Y-154901396D02*
X141000000Y-152000000D01*
X146026396Y-154901396D02*
X143901396Y-154901396D01*
X148600000Y-157475000D02*
X146026396Y-154901396D01*
%TO.N,XO_A_in_A*%
X128000000Y-116000000D02*
X123080000Y-116000000D01*
X129000000Y-117000000D02*
X128000000Y-116000000D01*
%TO.N,AND_J_out*%
X109000000Y-57000000D02*
X109000000Y-75000000D01*
X113790000Y-52210000D02*
X109000000Y-57000000D01*
X109000000Y-75000000D02*
X112000000Y-78000000D01*
X121920000Y-45715000D02*
X115425000Y-52210000D01*
X115425000Y-52210000D02*
X113790000Y-52210000D01*
%TO.N,RX_MJ6*%
X130000000Y-155000000D02*
X130000000Y-150000000D01*
%TO.N,GND*%
X160000000Y-112080000D02*
X156160000Y-112080000D01*
X156160000Y-112080000D02*
X152080000Y-108000000D01*
%TO.N,J3_TX*%
X164273833Y-86360000D02*
X156220000Y-86360000D01*
X168965000Y-91051167D02*
X164273833Y-86360000D01*
X168965000Y-100275000D02*
X168965000Y-91051167D01*
X167640000Y-101600000D02*
X168965000Y-100275000D01*
X167320000Y-101920000D02*
X167640000Y-101600000D01*
X160000000Y-101920000D02*
X167320000Y-101920000D01*
%TO.N,GND*%
X156080000Y-96000000D02*
X148920000Y-96000000D01*
X161000000Y-91080000D02*
X156080000Y-96000000D01*
X157625000Y-72125000D02*
X149045000Y-72125000D01*
X161500000Y-76000000D02*
X157625000Y-72125000D01*
X149045000Y-72125000D02*
X147920000Y-71000000D01*
%TO.N,AND_C_out*%
X158000000Y-60195000D02*
X156220000Y-58415000D01*
X158000000Y-62000000D02*
X158000000Y-60195000D01*
%TO.N,AND_H_out*%
X147000000Y-130475000D02*
X148600000Y-132075000D01*
X147055000Y-126000000D02*
X147000000Y-126000000D01*
X148600000Y-124455000D02*
X147055000Y-126000000D01*
X147000000Y-126000000D02*
X147000000Y-130475000D01*
%TO.N,TX_master*%
X151140000Y-124455000D02*
X148600000Y-121915000D01*
X156220000Y-124455000D02*
X151140000Y-124455000D01*
%TO.N,VCC_SERIAL*%
X125000000Y-86000000D02*
X122105000Y-88895000D01*
X122105000Y-88895000D02*
X121920000Y-88895000D01*
X141020000Y-93980000D02*
X142000000Y-93000000D01*
X138440000Y-93980000D02*
X141020000Y-93980000D01*
%TO.N,XO_A_in_B*%
X135900000Y-101600000D02*
X130820000Y-96520000D01*
X138440000Y-101600000D02*
X135900000Y-101600000D01*
X138840000Y-102000000D02*
X138440000Y-101600000D01*
X141920000Y-102000000D02*
X138840000Y-102000000D01*
%TO.N,RX_MJ0*%
X139300000Y-105000000D02*
X138440000Y-104140000D01*
X141920000Y-105000000D02*
X139300000Y-105000000D01*
%TO.N,RX_MJ1*%
X141920000Y-108000000D02*
X139760000Y-108000000D01*
X139760000Y-108000000D02*
X138440000Y-106680000D01*
%TO.N,J1_RX*%
X164600000Y-53920000D02*
X161000000Y-53920000D01*
X167640000Y-50880000D02*
X164600000Y-53920000D01*
%TO.N,GND*%
X149960000Y-145040000D02*
X148920000Y-144000000D01*
X159080000Y-141000000D02*
X155080000Y-145000000D01*
X155080000Y-145000000D02*
X150000000Y-145000000D01*
X154920000Y-150000000D02*
X149960000Y-145040000D01*
X150000000Y-145000000D02*
X149960000Y-145040000D01*
%TO.N,VCC_SERIAL*%
X159000000Y-51000000D02*
X156425000Y-51000000D01*
X156425000Y-51000000D02*
X156220000Y-50795000D01*
%TO.N,A*%
X110825000Y-43175000D02*
X114300000Y-43175000D01*
X109000000Y-84000000D02*
X108000000Y-83000000D01*
X113000000Y-82000000D02*
X111000000Y-84000000D01*
X111000000Y-84000000D02*
X109000000Y-84000000D01*
X108000000Y-46000000D02*
X110825000Y-43175000D01*
X115920000Y-82000000D02*
X113000000Y-82000000D01*
X108000000Y-83000000D02*
X108000000Y-46000000D01*
%TO.N,AND_D_in_B*%
X158080000Y-65355000D02*
X156220000Y-63495000D01*
X158080000Y-71000000D02*
X158080000Y-65355000D01*
%TO.N,TX_master*%
X148600000Y-151320000D02*
X149920000Y-150000000D01*
X148600000Y-154935000D02*
X148600000Y-151320000D01*
X151140000Y-157475000D02*
X148600000Y-154935000D01*
X156220000Y-157475000D02*
X151140000Y-157475000D01*
%TO.N,VCC_SERIAL*%
X167000000Y-163000000D02*
X159000000Y-155000000D01*
X169000000Y-163000000D02*
X167000000Y-163000000D01*
X170000000Y-162000000D02*
X169000000Y-163000000D01*
X170000000Y-159000000D02*
X170000000Y-162000000D01*
X168965000Y-157965000D02*
X170000000Y-159000000D01*
X167640000Y-155100000D02*
X168965000Y-156425000D01*
X168965000Y-156425000D02*
X168965000Y-157965000D01*
%TO.N,J5_TX*%
X155000000Y-141000000D02*
X148920000Y-141000000D01*
X160000000Y-134000000D02*
X158000000Y-136000000D01*
X158000000Y-136000000D02*
X158000000Y-138000000D01*
X168000000Y-134000000D02*
X160000000Y-134000000D01*
X170000000Y-144840000D02*
X170000000Y-136000000D01*
X170000000Y-136000000D02*
X168000000Y-134000000D01*
X167640000Y-147200000D02*
X170000000Y-144840000D01*
X158000000Y-138000000D02*
X155000000Y-141000000D01*
%TO.N,VCC_SERIAL*%
X171000000Y-154000000D02*
X169900000Y-155100000D01*
X171000000Y-135560000D02*
X171000000Y-154000000D01*
X169900000Y-155100000D02*
X167640000Y-155100000D01*
X167640000Y-132200000D02*
X171000000Y-135560000D01*
X170000000Y-65980000D02*
X167640000Y-63620000D01*
X170000000Y-88960000D02*
X170000000Y-65980000D01*
X170000000Y-88960000D02*
X167640000Y-86600000D01*
X170000000Y-111700000D02*
X170000000Y-88960000D01*
X170000000Y-111700000D02*
X167640000Y-109340000D01*
X170000000Y-121000000D02*
X170000000Y-111700000D01*
X169000000Y-122000000D02*
X170000000Y-121000000D01*
X170000000Y-129840000D02*
X167640000Y-132200000D01*
X170000000Y-123000000D02*
X170000000Y-129840000D01*
X169000000Y-122000000D02*
X170000000Y-123000000D01*
X166000000Y-122000000D02*
X169000000Y-122000000D01*
X164000000Y-124000000D02*
X166000000Y-122000000D01*
X161000000Y-124000000D02*
X164000000Y-124000000D01*
X159000000Y-122000000D02*
X161000000Y-124000000D01*
X156305000Y-122000000D02*
X156220000Y-121915000D01*
X159000000Y-122000000D02*
X156305000Y-122000000D01*
%TO.N,J4_TX*%
X160950000Y-125870000D02*
X161000000Y-125920000D01*
X148600000Y-129535000D02*
X152265000Y-125870000D01*
X152265000Y-125870000D02*
X160950000Y-125870000D01*
%TO.N,AND_K_out*%
X158000000Y-128775000D02*
X156220000Y-126995000D01*
X158000000Y-134000000D02*
X158000000Y-128775000D01*
X157385000Y-134615000D02*
X158000000Y-134000000D01*
X156220000Y-134615000D02*
X157385000Y-134615000D01*
X125595000Y-96515000D02*
X126000000Y-96920000D01*
X121920000Y-96515000D02*
X125595000Y-96515000D01*
%TO.N,AND_D_out*%
X114300000Y-99055000D02*
X121920000Y-99055000D01*
X110135000Y-99055000D02*
X114300000Y-99055000D01*
X107000000Y-95920000D02*
X110135000Y-99055000D01*
%TO.N,AND_I_out*%
X113705000Y-95920000D02*
X114300000Y-96515000D01*
X110000000Y-95920000D02*
X113705000Y-95920000D01*
X114300000Y-93975000D02*
X114300000Y-96515000D01*
X119380000Y-93975000D02*
X121920000Y-91435000D01*
X114300000Y-93975000D02*
X119380000Y-93975000D01*
%TO.N,AND_D_in_B*%
X113945000Y-91080000D02*
X114300000Y-91435000D01*
X110000000Y-91080000D02*
X113945000Y-91080000D01*
%TO.N,AND_A_in_B*%
X114175000Y-50920000D02*
X114300000Y-50795000D01*
X111000000Y-50920000D02*
X114175000Y-50920000D01*
%TO.N,AND_C_in_B*%
X114125000Y-48080000D02*
X114300000Y-48255000D01*
X111000000Y-48080000D02*
X114125000Y-48080000D01*
%TO.N,AND_E_in_A*%
X130320000Y-64000000D02*
X130820000Y-63500000D01*
X126080000Y-64000000D02*
X130320000Y-64000000D01*
%TO.N,AND_H_in_B*%
X128000000Y-79000000D02*
X129675000Y-77325000D01*
X129675000Y-77325000D02*
X137315000Y-77325000D01*
X126080000Y-79000000D02*
X128000000Y-79000000D01*
X137315000Y-77325000D02*
X138440000Y-76200000D01*
%TO.N,AND_B_in_B*%
X135900000Y-68580000D02*
X130820000Y-73660000D01*
X138440000Y-68580000D02*
X135900000Y-68580000D01*
X135900000Y-66040000D02*
X138440000Y-68580000D01*
X130820000Y-66040000D02*
X135900000Y-66040000D01*
X128480000Y-76000000D02*
X130820000Y-73660000D01*
X126160000Y-76000000D02*
X128480000Y-76000000D01*
%TO.N,AND_F_in_A*%
X128940000Y-73000000D02*
X130820000Y-71120000D01*
X126080000Y-73000000D02*
X128940000Y-73000000D01*
%TO.N,AND_E_out*%
X129400000Y-70000000D02*
X130820000Y-68580000D01*
X126080000Y-70000000D02*
X129400000Y-70000000D01*
%TO.N,J6_TX*%
X143000000Y-161920000D02*
X147965000Y-161920000D01*
X147965000Y-161920000D02*
X148600000Y-162555000D01*
%TO.N,J6_RX*%
X147585000Y-159000000D02*
X148600000Y-160015000D01*
X145080000Y-159000000D02*
X147585000Y-159000000D01*
%TO.N,AND_C_out*%
X136080000Y-63680000D02*
X136080000Y-59000000D01*
X138440000Y-66040000D02*
X136080000Y-63680000D01*
%TO.N,AND_C_in_B*%
X154000000Y-61000000D02*
X153000000Y-60000000D01*
X156220000Y-60955000D02*
X154045000Y-60955000D01*
X154045000Y-60955000D02*
X154000000Y-61000000D01*
%TO.N,AND_A_out*%
X148600000Y-55875000D02*
X148600000Y-58415000D01*
X145080000Y-55000000D02*
X147725000Y-55000000D01*
X147725000Y-55000000D02*
X148600000Y-55875000D01*
%TO.N,AND_A_in_A*%
X147395000Y-52000000D02*
X148600000Y-50795000D01*
X145080000Y-52000000D02*
X147395000Y-52000000D01*
%TO.N,GND*%
X147535000Y-66035000D02*
X148600000Y-66035000D01*
X144500000Y-63000000D02*
X147535000Y-66035000D01*
X148600000Y-66035000D02*
X148600000Y-70320000D01*
X148600000Y-70320000D02*
X147920000Y-71000000D01*
X147920000Y-71000000D02*
X146080000Y-71000000D01*
X144000000Y-84000000D02*
X144000000Y-88000000D01*
X141000000Y-81000000D02*
X144000000Y-84000000D01*
X141000000Y-76080000D02*
X141000000Y-81000000D01*
X130820000Y-82100000D02*
X129920000Y-83000000D01*
X130820000Y-78740000D02*
X130820000Y-82100000D01*
X126080000Y-82000000D02*
X118920000Y-82000000D01*
X118920000Y-82000000D02*
X115920000Y-79000000D01*
X127080000Y-83000000D02*
X126080000Y-82000000D01*
X129920000Y-83000000D02*
X127080000Y-83000000D01*
X129920000Y-83000000D02*
X129920000Y-86000000D01*
X127500000Y-86000000D02*
X129920000Y-86000000D01*
X133920000Y-90000000D02*
X129920000Y-86000000D01*
X138080000Y-90000000D02*
X133920000Y-90000000D01*
X138080000Y-90000000D02*
X142000000Y-90000000D01*
X142000000Y-90000000D02*
X144000000Y-88000000D01*
X144000000Y-92500000D02*
X144500000Y-93000000D01*
X144000000Y-88000000D02*
X144000000Y-92500000D01*
X147040000Y-93000000D02*
X148600000Y-91440000D01*
X144500000Y-93000000D02*
X147040000Y-93000000D01*
X152080000Y-99160000D02*
X148920000Y-96000000D01*
X152080000Y-102000000D02*
X152080000Y-99160000D01*
X151920000Y-102160000D02*
X152080000Y-102000000D01*
X151920000Y-116000000D02*
X151920000Y-102160000D01*
X144500000Y-119580000D02*
X148080000Y-116000000D01*
X144500000Y-121000000D02*
X144500000Y-119580000D01*
X146205000Y-114125000D02*
X148080000Y-116000000D01*
X131045000Y-114125000D02*
X146205000Y-114125000D01*
X129920000Y-113000000D02*
X131045000Y-114125000D01*
X129920000Y-110120000D02*
X130820000Y-109220000D01*
X129920000Y-113000000D02*
X129920000Y-110120000D01*
X128680000Y-107080000D02*
X130820000Y-109220000D01*
X126000000Y-107080000D02*
X128680000Y-107080000D01*
X123080000Y-108000000D02*
X125080000Y-108000000D01*
X125080000Y-108000000D02*
X126000000Y-107080000D01*
%TO.N,AND_J_out*%
X118000000Y-104000000D02*
X115595000Y-101595000D01*
X118000000Y-106000000D02*
X118000000Y-104000000D01*
X116000000Y-108000000D02*
X118000000Y-106000000D01*
X115595000Y-101595000D02*
X114300000Y-101595000D01*
%TO.N,GND*%
X112355000Y-106080000D02*
X114300000Y-104135000D01*
X110000000Y-106080000D02*
X112355000Y-106080000D01*
X110000000Y-109400000D02*
X112920000Y-112320000D01*
X110000000Y-106080000D02*
X110000000Y-109400000D01*
X110000000Y-106080000D02*
X107000000Y-106080000D01*
X112920000Y-116000000D02*
X117920000Y-121000000D01*
X112920000Y-116000000D02*
X112920000Y-112320000D01*
%TO.N,AND_M_out*%
X120000000Y-109240000D02*
X123080000Y-112320000D01*
X120000000Y-106000000D02*
X120000000Y-109240000D01*
X120055000Y-106000000D02*
X120000000Y-106000000D01*
X121920000Y-104135000D02*
X120055000Y-106000000D01*
%TO.N,XO_J_in_B*%
X137315000Y-36970000D02*
X138440000Y-38095000D01*
X137315000Y-29765000D02*
X137315000Y-36970000D01*
X139080000Y-28000000D02*
X137315000Y-29765000D01*
%TO.N,VCC_SERIAL*%
X122095000Y-43000000D02*
X121920000Y-43175000D01*
X125000000Y-43000000D02*
X122095000Y-43000000D01*
%TO.N,GND*%
X130920000Y-59000000D02*
X134920000Y-55000000D01*
X125920000Y-59000000D02*
X130920000Y-59000000D01*
X120920000Y-64000000D02*
X115920000Y-64000000D01*
X125920000Y-59000000D02*
X120920000Y-64000000D01*
X111635000Y-61080000D02*
X111000000Y-61080000D01*
X114300000Y-58415000D02*
X111635000Y-61080000D01*
X113000000Y-61080000D02*
X115920000Y-64000000D01*
X111000000Y-61080000D02*
X113000000Y-61080000D01*
X115920000Y-79000000D02*
X115920000Y-64000000D01*
X114000000Y-80920000D02*
X115920000Y-79000000D01*
X110000000Y-80920000D02*
X114000000Y-80920000D01*
%TO.N,A*%
X114300000Y-83620000D02*
X115920000Y-82000000D01*
X114300000Y-88895000D02*
X114300000Y-83620000D01*
X111895000Y-88895000D02*
X114300000Y-88895000D01*
X111000000Y-88000000D02*
X111895000Y-88895000D01*
X109000000Y-88000000D02*
X111000000Y-88000000D01*
X108000000Y-89000000D02*
X109000000Y-88000000D01*
X108000000Y-92000000D02*
X108000000Y-89000000D01*
X104000000Y-96000000D02*
X108000000Y-92000000D01*
X104000000Y-108000000D02*
X104000000Y-96000000D01*
X108125000Y-112125000D02*
X104000000Y-108000000D01*
X108125000Y-144315000D02*
X108125000Y-112125000D01*
X108000000Y-144440000D02*
X108125000Y-144315000D01*
%TO.N,XO_C_in_B*%
X139565000Y-132485000D02*
X144000000Y-136920000D01*
X139565000Y-130665000D02*
X139565000Y-132485000D01*
X138440000Y-129540000D02*
X139565000Y-130665000D01*
%TO.N,RX_MJ7*%
X140920000Y-127000000D02*
X144000000Y-123920000D01*
X138440000Y-127000000D02*
X140920000Y-127000000D01*
%TO.N,RX_MJ6*%
X137120001Y-116799999D02*
X137920000Y-116000000D01*
X137120001Y-123140001D02*
X137120001Y-116799999D01*
X138440000Y-124460000D02*
X137120001Y-123140001D01*
%TO.N,VCC_SERIAL*%
X141080000Y-121920000D02*
X142000000Y-121000000D01*
X138440000Y-121920000D02*
X141080000Y-121920000D01*
%TO.N,RX_MJ2*%
X129900000Y-121000000D02*
X130820000Y-121920000D01*
X128080000Y-121000000D02*
X129900000Y-121000000D01*
%TO.N,RX_MJ3*%
X130360000Y-124000000D02*
X130820000Y-124460000D01*
X128000000Y-124000000D02*
X130360000Y-124000000D01*
%TO.N,XO_B_in_B*%
X128080000Y-127000000D02*
X130820000Y-127000000D01*
%TO.N,RX_MJ4*%
X130360000Y-130000000D02*
X130820000Y-129540000D01*
X128080000Y-130000000D02*
X130360000Y-130000000D01*
%TO.N,RX_MJ5*%
X129900000Y-133000000D02*
X130820000Y-132080000D01*
X128080000Y-133000000D02*
X129900000Y-133000000D01*
%TO.N,XO_C_in_A*%
X129440000Y-136000000D02*
X130820000Y-134620000D01*
X128000000Y-136000000D02*
X129440000Y-136000000D01*
%TO.N,VCC_SERIAL*%
X140455000Y-31000000D02*
X138440000Y-33015000D01*
X142000000Y-31000000D02*
X140455000Y-31000000D01*
%TO.N,AND_C_out*%
X133000000Y-42000000D02*
X131825000Y-43175000D01*
X132555000Y-35555000D02*
X133000000Y-36000000D01*
X133000000Y-36000000D02*
X133000000Y-42000000D01*
X131825000Y-43175000D02*
X130820000Y-43175000D01*
X130820000Y-35555000D02*
X132555000Y-35555000D01*
%TO.N,XO_I_in_A*%
X130795000Y-40635000D02*
X130820000Y-40635000D01*
X128160000Y-38000000D02*
X130795000Y-40635000D01*
%TO.N,XO_H_in_A*%
X130095000Y-33015000D02*
X130820000Y-33015000D01*
X128080000Y-31000000D02*
X130095000Y-33015000D01*
%TO.N,GND*%
X125500000Y-35000000D02*
X122500000Y-38000000D01*
X128080000Y-35000000D02*
X125500000Y-35000000D01*
X125920000Y-31000000D02*
X128920000Y-28000000D01*
X117920000Y-31000000D02*
X125920000Y-31000000D01*
X111000000Y-37920000D02*
X117920000Y-31000000D01*
X111080000Y-38000000D02*
X111000000Y-37920000D01*
X118000000Y-38000000D02*
X111080000Y-38000000D01*
X122500000Y-38000000D02*
X118000000Y-38000000D01*
X127500000Y-43000000D02*
X122500000Y-38000000D01*
X134565000Y-52000000D02*
X134920000Y-52000000D01*
X130820000Y-48255000D02*
X134565000Y-52000000D01*
X134920000Y-52000000D02*
X134920000Y-55000000D01*
X139000000Y-52000000D02*
X134920000Y-52000000D01*
X140840000Y-50160000D02*
X139000000Y-52000000D01*
X140840000Y-47000000D02*
X140840000Y-50160000D01*
X140840000Y-47000000D02*
X143000000Y-44840000D01*
X143000000Y-44840000D02*
X143000000Y-44080000D01*
X148600000Y-43175000D02*
X143905000Y-43175000D01*
X143905000Y-43175000D02*
X143000000Y-44080000D01*
X150705001Y-45280001D02*
X148600000Y-43175000D01*
X160200001Y-45280001D02*
X150705001Y-45280001D01*
X161000000Y-46080000D02*
X160200001Y-45280001D01*
%TO.N,AND_B_out*%
X147000000Y-25000000D02*
X147000000Y-28875000D01*
X150000000Y-22000000D02*
X147000000Y-25000000D01*
X147000000Y-28875000D02*
X148600000Y-30475000D01*
X154080000Y-22000000D02*
X150000000Y-22000000D01*
%TO.N,J1_RX*%
X168965000Y-45331167D02*
X168965000Y-49555000D01*
X162125000Y-38491167D02*
X168965000Y-45331167D01*
X161425992Y-34755001D02*
X162125000Y-35454009D01*
X162125000Y-35454009D02*
X162125000Y-38491167D01*
X168965000Y-49555000D02*
X167640000Y-50880000D01*
X157019999Y-34755001D02*
X161425992Y-34755001D01*
X156220000Y-35555000D02*
X157019999Y-34755001D01*
%TO.N,AND_E_out*%
X155095000Y-34140000D02*
X155095000Y-39510000D01*
X155095000Y-39510000D02*
X156220000Y-40635000D01*
X156220000Y-33015000D02*
X155095000Y-34140000D01*
%TO.N,J0_RX*%
X143905000Y-33015000D02*
X143000000Y-33920000D01*
X148600000Y-33015000D02*
X143905000Y-33015000D01*
%TO.N,AND_B_out*%
X149725000Y-36970000D02*
X148600000Y-38095000D01*
X149725000Y-31600000D02*
X149725000Y-36970000D01*
X148600000Y-30475000D02*
X149725000Y-31600000D01*
%TO.N,TX_master*%
X151140000Y-30475000D02*
X148600000Y-27935000D01*
X156220000Y-30475000D02*
X151140000Y-30475000D01*
%TO.N,VCC_SERIAL*%
X156220000Y-27935000D02*
X158935000Y-27935000D01*
X158935000Y-27935000D02*
X159000000Y-28000000D01*
X156285000Y-155000000D02*
X156220000Y-154935000D01*
X159000000Y-155000000D02*
X156285000Y-155000000D01*
%TO.N,J6_TX*%
X149725000Y-161430000D02*
X148600000Y-162555000D01*
X167640000Y-167969009D02*
X163000000Y-163329009D01*
X162430000Y-161430000D02*
X149725000Y-161430000D01*
X163000000Y-163329009D02*
X163000000Y-162000000D01*
X167640000Y-170100000D02*
X167640000Y-167969009D01*
X163000000Y-162000000D02*
X162430000Y-161430000D01*
%TO.N,J6_RX*%
X149725000Y-158890000D02*
X148600000Y-160015000D01*
X161430000Y-158890000D02*
X149725000Y-158890000D01*
X167640000Y-165100000D02*
X161430000Y-158890000D01*
%TO.N,GND*%
X162540000Y-155000000D02*
X161500000Y-155000000D01*
X167640000Y-160100000D02*
X162540000Y-155000000D01*
%TO.N,J7_RX*%
X161000000Y-165000000D02*
X161000000Y-162920000D01*
X164000000Y-168000000D02*
X161000000Y-165000000D01*
X166000000Y-173000000D02*
X164000000Y-171000000D01*
X170000000Y-175000000D02*
X168000000Y-173000000D01*
X164000000Y-171000000D02*
X164000000Y-168000000D01*
X170000000Y-186000000D02*
X170000000Y-175000000D01*
X169405000Y-186595000D02*
X170000000Y-186000000D01*
X168965000Y-186595000D02*
X169405000Y-186595000D01*
X168000000Y-173000000D02*
X166000000Y-173000000D01*
X167640000Y-187920000D02*
X168965000Y-186595000D01*
%TO.N,J7_TX*%
X149920000Y-177000000D02*
X150920000Y-176000000D01*
X149000000Y-177000000D02*
X149920000Y-177000000D01*
X144000000Y-182000000D02*
X149000000Y-177000000D01*
X144000000Y-187000000D02*
X144000000Y-182000000D01*
X145000000Y-188000000D02*
X144000000Y-187000000D01*
X154000000Y-188000000D02*
X145000000Y-188000000D01*
X158920000Y-192920000D02*
X154000000Y-188000000D01*
X167640000Y-192920000D02*
X158920000Y-192920000D01*
%TO.N,Net-(C1-Pad1)*%
X118000000Y-188660000D02*
X150560000Y-188660000D01*
X150560000Y-188660000D02*
X152400000Y-190500000D01*
X116660000Y-190000000D02*
X118000000Y-188660000D01*
X108000000Y-190000000D02*
X116660000Y-190000000D01*
%TO.N,GND*%
X110260000Y-167260000D02*
X108000000Y-167260000D01*
X111000000Y-168000000D02*
X110260000Y-167260000D01*
X111000000Y-182000000D02*
X111000000Y-168000000D01*
X108000000Y-185000000D02*
X111000000Y-182000000D01*
X116840000Y-185000000D02*
X118000000Y-186160000D01*
X108000000Y-185000000D02*
X116840000Y-185000000D01*
X126000000Y-147000000D02*
X126000000Y-149260000D01*
X126000000Y-147000000D02*
X126080000Y-147080000D01*
X117840000Y-138840000D02*
X126000000Y-147000000D01*
X126000000Y-149260000D02*
X108000000Y-167260000D01*
X126080000Y-147080000D02*
X144000000Y-147080000D01*
X117840000Y-136000000D02*
X117840000Y-138840000D01*
X117840000Y-121080000D02*
X117920000Y-121000000D01*
X117840000Y-136000000D02*
X117840000Y-121080000D01*
X134080000Y-137160000D02*
X144000000Y-147080000D01*
X130820000Y-137160000D02*
X134080000Y-137160000D01*
X145525000Y-134080000D02*
X148600000Y-137155000D01*
X144000000Y-134080000D02*
X145525000Y-134080000D01*
X147000000Y-138755000D02*
X148600000Y-137155000D01*
X147000000Y-142080000D02*
X147000000Y-138755000D01*
X148920000Y-144000000D02*
X147000000Y-142080000D01*
%TO.N,J5_TX*%
X148920000Y-139375000D02*
X156220000Y-132075000D01*
X148920000Y-141000000D02*
X148920000Y-139375000D01*
%TO.N,GND*%
X145840000Y-147080000D02*
X148920000Y-144000000D01*
X144000000Y-147080000D02*
X145840000Y-147080000D01*
X134920000Y-156160000D02*
X144000000Y-147080000D01*
X134920000Y-159000000D02*
X134920000Y-156160000D01*
X134920000Y-164000000D02*
X143000000Y-172080000D01*
X134920000Y-159000000D02*
X134920000Y-164000000D01*
X146695000Y-172080000D02*
X148600000Y-170175000D01*
X143000000Y-172080000D02*
X146695000Y-172080000D01*
X151505000Y-173080000D02*
X161000000Y-173080000D01*
X148600000Y-170175000D02*
X151505000Y-173080000D01*
X161080000Y-176000000D02*
X152400000Y-184680000D01*
X152400000Y-184680000D02*
X152400000Y-185500000D01*
X167640000Y-182560000D02*
X167640000Y-182920000D01*
X161080000Y-176000000D02*
X167640000Y-182560000D01*
X161000000Y-173080000D02*
X161000000Y-175920000D01*
X161000000Y-175920000D02*
X161080000Y-176000000D01*
%TO.N,J7_RX*%
X156585000Y-162920000D02*
X156220000Y-162555000D01*
X161000000Y-162920000D02*
X156585000Y-162920000D01*
%TO.N,GND*%
X160080000Y-150000000D02*
X154920000Y-150000000D01*
X160080000Y-153580000D02*
X161500000Y-155000000D01*
X160080000Y-150000000D02*
X160080000Y-153580000D01*
%TO.N,J5_RX*%
X165840000Y-144000000D02*
X167640000Y-142200000D01*
X159080000Y-144000000D02*
X165840000Y-144000000D01*
%TO.N,GND*%
X159080000Y-138000000D02*
X161000000Y-136080000D01*
X159080000Y-141000000D02*
X159080000Y-138000000D01*
X166520000Y-136080000D02*
X167640000Y-137200000D01*
X161000000Y-136080000D02*
X166520000Y-136080000D01*
%TO.N,J4_TX*%
X166060000Y-125920000D02*
X167640000Y-124340000D01*
X161000000Y-125920000D02*
X166060000Y-125920000D01*
%TO.N,GND*%
X161500000Y-120480000D02*
X167640000Y-114340000D01*
X161500000Y-122000000D02*
X161500000Y-120480000D01*
X160000000Y-112080000D02*
X165380000Y-112080000D01*
X165380000Y-112080000D02*
X167640000Y-114340000D01*
%TO.N,J3_RX*%
X167040000Y-96000000D02*
X167640000Y-96600000D01*
X159080000Y-96000000D02*
X167040000Y-96000000D01*
%TO.N,GND*%
X167120000Y-91080000D02*
X167640000Y-91600000D01*
X161000000Y-91080000D02*
X167120000Y-91080000D01*
%TO.N,J2_RX*%
X149759999Y-80120001D02*
X148600000Y-81280000D01*
X161000000Y-80920000D02*
X160200001Y-80120001D01*
X160200001Y-80120001D02*
X149759999Y-80120001D01*
%TO.N,VCC_SERIAL*%
X167640000Y-84640000D02*
X159000000Y-76000000D01*
X167640000Y-86600000D02*
X167640000Y-84640000D01*
%TO.N,GND*%
X161000000Y-75500000D02*
X161500000Y-76000000D01*
X161000000Y-64080000D02*
X161000000Y-75500000D01*
X163100000Y-64080000D02*
X167640000Y-68620000D01*
X161000000Y-64080000D02*
X163100000Y-64080000D01*
X161000000Y-50500000D02*
X161500000Y-51000000D01*
X161000000Y-46080000D02*
X161000000Y-50500000D01*
X161200000Y-45880000D02*
X161000000Y-46080000D01*
X167640000Y-45880000D02*
X161200000Y-45880000D01*
%TO.N,J1_TX*%
X161000000Y-35920000D02*
X158395000Y-35920000D01*
X158395000Y-35920000D02*
X156220000Y-38095000D01*
%TO.N,VCC_SERIAL*%
X167640000Y-36640000D02*
X159000000Y-28000000D01*
X167640000Y-40880000D02*
X167640000Y-36640000D01*
X159000000Y-26660000D02*
X167640000Y-18020000D01*
X159000000Y-28000000D02*
X159000000Y-26660000D01*
%TO.N,GND*%
X162660000Y-28000000D02*
X167640000Y-23020000D01*
X161500000Y-28000000D02*
X162660000Y-28000000D01*
X143920000Y-22000000D02*
X143920000Y-30420000D01*
X143920000Y-30420000D02*
X144500000Y-31000000D01*
%TD*%
M02*
