%TF.GenerationSoftware,KiCad,Pcbnew,(6.0.8)*%
%TF.CreationDate,2022-11-05T23:26:08+09:00*%
%TF.ProjectId,CIRCUITOS,43495243-5549-4544-9f53-2e6b69636164,rev?*%
%TF.SameCoordinates,Original*%
%TF.FileFunction,Drillmap*%
%TF.FilePolarity,Positive*%
%FSLAX45Y45*%
G04 Gerber Fmt 4.5, Leading zero omitted, Abs format (unit mm)*
G04 Created by KiCad (PCBNEW (6.0.8)) date 2022-11-05 23:26:08*
%MOMM*%
%LPD*%
G01*
G04 APERTURE LIST*
%ADD10C,0.100000*%
%ADD11C,0.200000*%
%ADD12C,0.040000*%
%ADD13C,0.080000*%
%ADD14C,0.110000*%
G04 APERTURE END LIST*
D10*
X16150000Y-18700000D02*
G75*
G03*
X16150000Y-18700000I-150000J0D01*
G01*
X15950000Y-1900000D02*
G75*
G03*
X15950000Y-1900000I-150000J0D01*
G01*
X11650000Y-19300000D02*
G75*
G03*
X11650000Y-19300000I-150000J0D01*
G01*
X10950000Y-2800000D02*
G75*
G03*
X10950000Y-2800000I-150000J0D01*
G01*
X17200000Y-19600000D02*
X10300000Y-19600000D01*
X10300000Y-19600000D02*
X10300000Y-1400000D01*
X10300000Y-1400000D02*
X17200000Y-1400000D01*
X17200000Y-1400000D02*
X17200000Y-19600000D01*
D11*
D12*
X11180000Y-7780000D02*
X11220000Y-7820000D01*
X11220000Y-7780000D02*
X11180000Y-7820000D01*
X11380000Y-7780000D02*
X11420000Y-7820000D01*
X11420000Y-7780000D02*
X11380000Y-7820000D01*
X11684500Y-8475500D02*
X11724500Y-8515500D01*
X11724500Y-8475500D02*
X11684500Y-8515500D01*
X11780000Y-6280000D02*
X11820000Y-6320000D01*
X11820000Y-6280000D02*
X11780000Y-6320000D01*
X11980000Y-12080000D02*
X12020000Y-12120000D01*
X12020000Y-12080000D02*
X11980000Y-12120000D01*
X12080000Y-12580000D02*
X12120000Y-12620000D01*
X12120000Y-12580000D02*
X12080000Y-12620000D01*
X12180000Y-6080000D02*
X12220000Y-6120000D01*
X12220000Y-6080000D02*
X12180000Y-6120000D01*
X12380000Y-4580000D02*
X12420000Y-4620000D01*
X12420000Y-4580000D02*
X12380000Y-4620000D01*
X12580000Y-9180000D02*
X12620000Y-9220000D01*
X12620000Y-9180000D02*
X12580000Y-9220000D01*
X12680000Y-5780000D02*
X12720000Y-5820000D01*
X12720000Y-5780000D02*
X12680000Y-5820000D01*
X12680000Y-5980000D02*
X12720000Y-6020000D01*
X12720000Y-5980000D02*
X12680000Y-6020000D01*
X12680000Y-10280000D02*
X12720000Y-10320000D01*
X12720000Y-10280000D02*
X12680000Y-10320000D01*
X12780000Y-9480000D02*
X12820000Y-9520000D01*
X12820000Y-9480000D02*
X12780000Y-9520000D01*
X12880000Y-4480000D02*
X12920000Y-4520000D01*
X12920000Y-4480000D02*
X12880000Y-4520000D01*
X12880000Y-5780000D02*
X12920000Y-5820000D01*
X12920000Y-5780000D02*
X12880000Y-5820000D01*
X12880000Y-5980000D02*
X12920000Y-6020000D01*
X12920000Y-5980000D02*
X12880000Y-6020000D01*
X12880000Y-11680000D02*
X12920000Y-11720000D01*
X12920000Y-11680000D02*
X12880000Y-11720000D01*
X12980000Y-14980000D02*
X13020000Y-15020000D01*
X13020000Y-14980000D02*
X12980000Y-15020000D01*
X12980000Y-15480000D02*
X13020000Y-15520000D01*
X13020000Y-15480000D02*
X12980000Y-15520000D01*
X13280000Y-6480000D02*
X13320000Y-6520000D01*
X13320000Y-6480000D02*
X13280000Y-6520000D01*
X13280000Y-9280000D02*
X13320000Y-9320000D01*
X13320000Y-9280000D02*
X13280000Y-9320000D01*
X13280000Y-11580000D02*
X13320000Y-11620000D01*
X13320000Y-11580000D02*
X13280000Y-11620000D01*
X13380000Y-7580000D02*
X13420000Y-7620000D01*
X13420000Y-7580000D02*
X13380000Y-7620000D01*
X13380000Y-8380000D02*
X13420000Y-8420000D01*
X13420000Y-8380000D02*
X13380000Y-8420000D01*
X13380000Y-12780000D02*
X13420000Y-12820000D01*
X13420000Y-12780000D02*
X13380000Y-12820000D01*
X13480000Y-7580000D02*
X13520000Y-7620000D01*
X13520000Y-7580000D02*
X13480000Y-7620000D01*
X13480000Y-9780000D02*
X13520000Y-9820000D01*
X13520000Y-9780000D02*
X13480000Y-9820000D01*
X13480000Y-10280000D02*
X13520000Y-10320000D01*
X13520000Y-10280000D02*
X13480000Y-10320000D01*
X13480000Y-12280000D02*
X13520000Y-12320000D01*
X13520000Y-12280000D02*
X13480000Y-12320000D01*
X13580000Y-4680000D02*
X13620000Y-4720000D01*
X13620000Y-4680000D02*
X13580000Y-4720000D01*
X13580000Y-7180000D02*
X13620000Y-7220000D01*
X13620000Y-7180000D02*
X13580000Y-7220000D01*
X13580000Y-11180000D02*
X13620000Y-11220000D01*
X13620000Y-11180000D02*
X13580000Y-11220000D01*
X13680000Y-5080000D02*
X13720000Y-5120000D01*
X13720000Y-5080000D02*
X13680000Y-5120000D01*
X13680000Y-6180000D02*
X13720000Y-6220000D01*
X13720000Y-6180000D02*
X13680000Y-6220000D01*
X13980000Y-6180000D02*
X14020000Y-6220000D01*
X14020000Y-6180000D02*
X13980000Y-6220000D01*
X14080000Y-5180000D02*
X14120000Y-5220000D01*
X14120000Y-5180000D02*
X14080000Y-5220000D01*
X14080000Y-15180000D02*
X14120000Y-15220000D01*
X14120000Y-15180000D02*
X14080000Y-15220000D01*
X14180000Y-15080000D02*
X14220000Y-15120000D01*
X14220000Y-15080000D02*
X14180000Y-15120000D01*
X14280000Y-6980000D02*
X14320000Y-7020000D01*
X14320000Y-6980000D02*
X14280000Y-7020000D01*
X14280000Y-7580000D02*
X14320000Y-7620000D01*
X14320000Y-7580000D02*
X14280000Y-7620000D01*
X14365820Y-7365820D02*
X14405820Y-7405820D01*
X14405820Y-7365820D02*
X14365820Y-7405820D01*
X14380000Y-7080000D02*
X14420000Y-7120000D01*
X14420000Y-7080000D02*
X14380000Y-7120000D01*
X14380000Y-11180000D02*
X14420000Y-11220000D01*
X14420000Y-11180000D02*
X14380000Y-11220000D01*
X14480000Y-6580000D02*
X14520000Y-6620000D01*
X14520000Y-6580000D02*
X14480000Y-6620000D01*
X14480000Y-7380000D02*
X14520000Y-7420000D01*
X14520000Y-7380000D02*
X14480000Y-7420000D01*
X14880000Y-4680000D02*
X14920000Y-4720000D01*
X14920000Y-4680000D02*
X14880000Y-4720000D01*
X15080000Y-5480000D02*
X15120000Y-5520000D01*
X15120000Y-5480000D02*
X15080000Y-5520000D01*
X15080000Y-9080000D02*
X15120000Y-9120000D01*
X15120000Y-9080000D02*
X15080000Y-9120000D01*
X15280000Y-4080000D02*
X15320000Y-4120000D01*
X15320000Y-4080000D02*
X15280000Y-4120000D01*
X15280000Y-4680000D02*
X15320000Y-4720000D01*
X15320000Y-4680000D02*
X15280000Y-4720000D01*
X15380000Y-5580000D02*
X15420000Y-5620000D01*
X15420000Y-5580000D02*
X15380000Y-5620000D01*
X15380000Y-6880000D02*
X15420000Y-6920000D01*
X15420000Y-6880000D02*
X15380000Y-6920000D01*
X15380000Y-8080000D02*
X15420000Y-8120000D01*
X15420000Y-8080000D02*
X15380000Y-8120000D01*
X15480000Y-4680000D02*
X15520000Y-4720000D01*
X15520000Y-4680000D02*
X15480000Y-4720000D01*
X15780000Y-6180000D02*
X15820000Y-6220000D01*
X15820000Y-6180000D02*
X15780000Y-6220000D01*
X15780000Y-12380000D02*
X15820000Y-12420000D01*
X15820000Y-12380000D02*
X15780000Y-12420000D01*
X15880000Y-7880000D02*
X15920000Y-7920000D01*
X15920000Y-7880000D02*
X15880000Y-7920000D01*
D13*
X10740000Y-9592000D02*
G75*
G03*
X10740000Y-9592000I-40000J0D01*
G01*
X10740000Y-10608000D02*
G75*
G03*
X10740000Y-10608000I-40000J0D01*
G01*
X11040000Y-8092000D02*
G75*
G03*
X11040000Y-8092000I-40000J0D01*
G01*
X11040000Y-9108000D02*
G75*
G03*
X11040000Y-9108000I-40000J0D01*
G01*
X11040000Y-9592000D02*
G75*
G03*
X11040000Y-9592000I-40000J0D01*
G01*
X11040000Y-10608000D02*
G75*
G03*
X11040000Y-10608000I-40000J0D01*
G01*
X11140000Y-3792000D02*
G75*
G03*
X11140000Y-3792000I-40000J0D01*
G01*
X11140000Y-4808000D02*
G75*
G03*
X11140000Y-4808000I-40000J0D01*
G01*
X11140000Y-5092000D02*
G75*
G03*
X11140000Y-5092000I-40000J0D01*
G01*
X11140000Y-6108000D02*
G75*
G03*
X11140000Y-6108000I-40000J0D01*
G01*
X11332000Y-10800000D02*
G75*
G03*
X11332000Y-10800000I-40000J0D01*
G01*
X11332000Y-11232000D02*
G75*
G03*
X11332000Y-11232000I-40000J0D01*
G01*
X11332000Y-11600000D02*
G75*
G03*
X11332000Y-11600000I-40000J0D01*
G01*
X11470000Y-4317500D02*
G75*
G03*
X11470000Y-4317500I-40000J0D01*
G01*
X11470000Y-4571500D02*
G75*
G03*
X11470000Y-4571500I-40000J0D01*
G01*
X11470000Y-4825500D02*
G75*
G03*
X11470000Y-4825500I-40000J0D01*
G01*
X11470000Y-5079500D02*
G75*
G03*
X11470000Y-5079500I-40000J0D01*
G01*
X11470000Y-5333500D02*
G75*
G03*
X11470000Y-5333500I-40000J0D01*
G01*
X11470000Y-5587500D02*
G75*
G03*
X11470000Y-5587500I-40000J0D01*
G01*
X11470000Y-5841500D02*
G75*
G03*
X11470000Y-5841500I-40000J0D01*
G01*
X11470000Y-8889500D02*
G75*
G03*
X11470000Y-8889500I-40000J0D01*
G01*
X11470000Y-9143500D02*
G75*
G03*
X11470000Y-9143500I-40000J0D01*
G01*
X11470000Y-9397500D02*
G75*
G03*
X11470000Y-9397500I-40000J0D01*
G01*
X11470000Y-9651500D02*
G75*
G03*
X11470000Y-9651500I-40000J0D01*
G01*
X11470000Y-9905500D02*
G75*
G03*
X11470000Y-9905500I-40000J0D01*
G01*
X11470000Y-10159500D02*
G75*
G03*
X11470000Y-10159500I-40000J0D01*
G01*
X11470000Y-10413500D02*
G75*
G03*
X11470000Y-10413500I-40000J0D01*
G01*
X11632000Y-6400000D02*
G75*
G03*
X11632000Y-6400000I-40000J0D01*
G01*
X11632000Y-7000000D02*
G75*
G03*
X11632000Y-7000000I-40000J0D01*
G01*
X11632000Y-7300000D02*
G75*
G03*
X11632000Y-7300000I-40000J0D01*
G01*
X11632000Y-7900000D02*
G75*
G03*
X11632000Y-7900000I-40000J0D01*
G01*
X11632000Y-8200000D02*
G75*
G03*
X11632000Y-8200000I-40000J0D01*
G01*
X11640000Y-7600000D02*
G75*
G03*
X11640000Y-7600000I-40000J0D01*
G01*
X11824000Y-12400000D02*
G75*
G03*
X11824000Y-12400000I-40000J0D01*
G01*
X11824000Y-13600000D02*
G75*
G03*
X11824000Y-13600000I-40000J0D01*
G01*
X11832000Y-3100000D02*
G75*
G03*
X11832000Y-3100000I-40000J0D01*
G01*
X11832000Y-3500000D02*
G75*
G03*
X11832000Y-3500000I-40000J0D01*
G01*
X11832000Y-12100000D02*
G75*
G03*
X11832000Y-12100000I-40000J0D01*
G01*
X11832000Y-12700000D02*
G75*
G03*
X11832000Y-12700000I-40000J0D01*
G01*
X11832000Y-13000000D02*
G75*
G03*
X11832000Y-13000000I-40000J0D01*
G01*
X11832000Y-13300000D02*
G75*
G03*
X11832000Y-13300000I-40000J0D01*
G01*
X11840000Y-3800000D02*
G75*
G03*
X11840000Y-3800000I-40000J0D01*
G01*
X11840000Y-18616000D02*
G75*
G03*
X11840000Y-18616000I-40000J0D01*
G01*
X11840000Y-18866000D02*
G75*
G03*
X11840000Y-18866000I-40000J0D01*
G01*
X12232000Y-4317500D02*
G75*
G03*
X12232000Y-4317500I-40000J0D01*
G01*
X12232000Y-4571500D02*
G75*
G03*
X12232000Y-4571500I-40000J0D01*
G01*
X12232000Y-4825500D02*
G75*
G03*
X12232000Y-4825500I-40000J0D01*
G01*
X12232000Y-5079500D02*
G75*
G03*
X12232000Y-5079500I-40000J0D01*
G01*
X12232000Y-5333500D02*
G75*
G03*
X12232000Y-5333500I-40000J0D01*
G01*
X12232000Y-5587500D02*
G75*
G03*
X12232000Y-5587500I-40000J0D01*
G01*
X12232000Y-5841500D02*
G75*
G03*
X12232000Y-5841500I-40000J0D01*
G01*
X12232000Y-8889500D02*
G75*
G03*
X12232000Y-8889500I-40000J0D01*
G01*
X12232000Y-9143500D02*
G75*
G03*
X12232000Y-9143500I-40000J0D01*
G01*
X12232000Y-9397500D02*
G75*
G03*
X12232000Y-9397500I-40000J0D01*
G01*
X12232000Y-9651500D02*
G75*
G03*
X12232000Y-9651500I-40000J0D01*
G01*
X12232000Y-9905500D02*
G75*
G03*
X12232000Y-9905500I-40000J0D01*
G01*
X12232000Y-10159500D02*
G75*
G03*
X12232000Y-10159500I-40000J0D01*
G01*
X12232000Y-10413500D02*
G75*
G03*
X12232000Y-10413500I-40000J0D01*
G01*
X12348000Y-10800000D02*
G75*
G03*
X12348000Y-10800000I-40000J0D01*
G01*
X12348000Y-11232000D02*
G75*
G03*
X12348000Y-11232000I-40000J0D01*
G01*
X12348000Y-11600000D02*
G75*
G03*
X12348000Y-11600000I-40000J0D01*
G01*
X12540000Y-4300000D02*
G75*
G03*
X12540000Y-4300000I-40000J0D01*
G01*
X12540000Y-8600000D02*
G75*
G03*
X12540000Y-8600000I-40000J0D01*
G01*
X12632000Y-5900000D02*
G75*
G03*
X12632000Y-5900000I-40000J0D01*
G01*
X12640000Y-9692000D02*
G75*
G03*
X12640000Y-9692000I-40000J0D01*
G01*
X12640000Y-10708000D02*
G75*
G03*
X12640000Y-10708000I-40000J0D01*
G01*
X12648000Y-6400000D02*
G75*
G03*
X12648000Y-6400000I-40000J0D01*
G01*
X12648000Y-7000000D02*
G75*
G03*
X12648000Y-7000000I-40000J0D01*
G01*
X12648000Y-7300000D02*
G75*
G03*
X12648000Y-7300000I-40000J0D01*
G01*
X12648000Y-7900000D02*
G75*
G03*
X12648000Y-7900000I-40000J0D01*
G01*
X12648000Y-8200000D02*
G75*
G03*
X12648000Y-8200000I-40000J0D01*
G01*
X12656000Y-7600000D02*
G75*
G03*
X12656000Y-7600000I-40000J0D01*
G01*
X12790000Y-4300000D02*
G75*
G03*
X12790000Y-4300000I-40000J0D01*
G01*
X12790000Y-8600000D02*
G75*
G03*
X12790000Y-8600000I-40000J0D01*
G01*
X12832000Y-9000000D02*
G75*
G03*
X12832000Y-9000000I-40000J0D01*
G01*
X12840000Y-12400000D02*
G75*
G03*
X12840000Y-12400000I-40000J0D01*
G01*
X12840000Y-13600000D02*
G75*
G03*
X12840000Y-13600000I-40000J0D01*
G01*
X12848000Y-3100000D02*
G75*
G03*
X12848000Y-3100000I-40000J0D01*
G01*
X12848000Y-3500000D02*
G75*
G03*
X12848000Y-3500000I-40000J0D01*
G01*
X12848000Y-12100000D02*
G75*
G03*
X12848000Y-12100000I-40000J0D01*
G01*
X12848000Y-12700000D02*
G75*
G03*
X12848000Y-12700000I-40000J0D01*
G01*
X12848000Y-13000000D02*
G75*
G03*
X12848000Y-13000000I-40000J0D01*
G01*
X12848000Y-13300000D02*
G75*
G03*
X12848000Y-13300000I-40000J0D01*
G01*
X12856000Y-3800000D02*
G75*
G03*
X12856000Y-3800000I-40000J0D01*
G01*
X12932000Y-2800000D02*
G75*
G03*
X12932000Y-2800000I-40000J0D01*
G01*
X13032000Y-8300000D02*
G75*
G03*
X13032000Y-8300000I-40000J0D01*
G01*
X13032000Y-8600000D02*
G75*
G03*
X13032000Y-8600000I-40000J0D01*
G01*
X13032000Y-11300000D02*
G75*
G03*
X13032000Y-11300000I-40000J0D01*
G01*
X13122000Y-3301500D02*
G75*
G03*
X13122000Y-3301500I-40000J0D01*
G01*
X13122000Y-3555500D02*
G75*
G03*
X13122000Y-3555500I-40000J0D01*
G01*
X13122000Y-3809500D02*
G75*
G03*
X13122000Y-3809500I-40000J0D01*
G01*
X13122000Y-4063500D02*
G75*
G03*
X13122000Y-4063500I-40000J0D01*
G01*
X13122000Y-4317500D02*
G75*
G03*
X13122000Y-4317500I-40000J0D01*
G01*
X13122000Y-4571500D02*
G75*
G03*
X13122000Y-4571500I-40000J0D01*
G01*
X13122000Y-4825500D02*
G75*
G03*
X13122000Y-4825500I-40000J0D01*
G01*
X13122000Y-6350000D02*
G75*
G03*
X13122000Y-6350000I-40000J0D01*
G01*
X13122000Y-6604000D02*
G75*
G03*
X13122000Y-6604000I-40000J0D01*
G01*
X13122000Y-6858000D02*
G75*
G03*
X13122000Y-6858000I-40000J0D01*
G01*
X13122000Y-7112000D02*
G75*
G03*
X13122000Y-7112000I-40000J0D01*
G01*
X13122000Y-7366000D02*
G75*
G03*
X13122000Y-7366000I-40000J0D01*
G01*
X13122000Y-7620000D02*
G75*
G03*
X13122000Y-7620000I-40000J0D01*
G01*
X13122000Y-7874000D02*
G75*
G03*
X13122000Y-7874000I-40000J0D01*
G01*
X13122000Y-9398000D02*
G75*
G03*
X13122000Y-9398000I-40000J0D01*
G01*
X13122000Y-9652000D02*
G75*
G03*
X13122000Y-9652000I-40000J0D01*
G01*
X13122000Y-9906000D02*
G75*
G03*
X13122000Y-9906000I-40000J0D01*
G01*
X13122000Y-10160000D02*
G75*
G03*
X13122000Y-10160000I-40000J0D01*
G01*
X13122000Y-10414000D02*
G75*
G03*
X13122000Y-10414000I-40000J0D01*
G01*
X13122000Y-10668000D02*
G75*
G03*
X13122000Y-10668000I-40000J0D01*
G01*
X13122000Y-10922000D02*
G75*
G03*
X13122000Y-10922000I-40000J0D01*
G01*
X13122000Y-12192000D02*
G75*
G03*
X13122000Y-12192000I-40000J0D01*
G01*
X13122000Y-12446000D02*
G75*
G03*
X13122000Y-12446000I-40000J0D01*
G01*
X13122000Y-12700000D02*
G75*
G03*
X13122000Y-12700000I-40000J0D01*
G01*
X13122000Y-12954000D02*
G75*
G03*
X13122000Y-12954000I-40000J0D01*
G01*
X13122000Y-13208000D02*
G75*
G03*
X13122000Y-13208000I-40000J0D01*
G01*
X13122000Y-13462000D02*
G75*
G03*
X13122000Y-13462000I-40000J0D01*
G01*
X13122000Y-13716000D02*
G75*
G03*
X13122000Y-13716000I-40000J0D01*
G01*
X13532000Y-5200000D02*
G75*
G03*
X13532000Y-5200000I-40000J0D01*
G01*
X13532000Y-5500000D02*
G75*
G03*
X13532000Y-5500000I-40000J0D01*
G01*
X13532000Y-15900000D02*
G75*
G03*
X13532000Y-15900000I-40000J0D01*
G01*
X13648000Y-5900000D02*
G75*
G03*
X13648000Y-5900000I-40000J0D01*
G01*
X13832000Y-11600000D02*
G75*
G03*
X13832000Y-11600000I-40000J0D01*
G01*
X13848000Y-9000000D02*
G75*
G03*
X13848000Y-9000000I-40000J0D01*
G01*
X13884000Y-3301500D02*
G75*
G03*
X13884000Y-3301500I-40000J0D01*
G01*
X13884000Y-3555500D02*
G75*
G03*
X13884000Y-3555500I-40000J0D01*
G01*
X13884000Y-3809500D02*
G75*
G03*
X13884000Y-3809500I-40000J0D01*
G01*
X13884000Y-4063500D02*
G75*
G03*
X13884000Y-4063500I-40000J0D01*
G01*
X13884000Y-4317500D02*
G75*
G03*
X13884000Y-4317500I-40000J0D01*
G01*
X13884000Y-4571500D02*
G75*
G03*
X13884000Y-4571500I-40000J0D01*
G01*
X13884000Y-4825500D02*
G75*
G03*
X13884000Y-4825500I-40000J0D01*
G01*
X13884000Y-6350000D02*
G75*
G03*
X13884000Y-6350000I-40000J0D01*
G01*
X13884000Y-6604000D02*
G75*
G03*
X13884000Y-6604000I-40000J0D01*
G01*
X13884000Y-6858000D02*
G75*
G03*
X13884000Y-6858000I-40000J0D01*
G01*
X13884000Y-7112000D02*
G75*
G03*
X13884000Y-7112000I-40000J0D01*
G01*
X13884000Y-7366000D02*
G75*
G03*
X13884000Y-7366000I-40000J0D01*
G01*
X13884000Y-7620000D02*
G75*
G03*
X13884000Y-7620000I-40000J0D01*
G01*
X13884000Y-7874000D02*
G75*
G03*
X13884000Y-7874000I-40000J0D01*
G01*
X13884000Y-9398000D02*
G75*
G03*
X13884000Y-9398000I-40000J0D01*
G01*
X13884000Y-9652000D02*
G75*
G03*
X13884000Y-9652000I-40000J0D01*
G01*
X13884000Y-9906000D02*
G75*
G03*
X13884000Y-9906000I-40000J0D01*
G01*
X13884000Y-10160000D02*
G75*
G03*
X13884000Y-10160000I-40000J0D01*
G01*
X13884000Y-10414000D02*
G75*
G03*
X13884000Y-10414000I-40000J0D01*
G01*
X13884000Y-10668000D02*
G75*
G03*
X13884000Y-10668000I-40000J0D01*
G01*
X13884000Y-10922000D02*
G75*
G03*
X13884000Y-10922000I-40000J0D01*
G01*
X13884000Y-12192000D02*
G75*
G03*
X13884000Y-12192000I-40000J0D01*
G01*
X13884000Y-12446000D02*
G75*
G03*
X13884000Y-12446000I-40000J0D01*
G01*
X13884000Y-12700000D02*
G75*
G03*
X13884000Y-12700000I-40000J0D01*
G01*
X13884000Y-12954000D02*
G75*
G03*
X13884000Y-12954000I-40000J0D01*
G01*
X13884000Y-13208000D02*
G75*
G03*
X13884000Y-13208000I-40000J0D01*
G01*
X13884000Y-13462000D02*
G75*
G03*
X13884000Y-13462000I-40000J0D01*
G01*
X13884000Y-13716000D02*
G75*
G03*
X13884000Y-13716000I-40000J0D01*
G01*
X13948000Y-2800000D02*
G75*
G03*
X13948000Y-2800000I-40000J0D01*
G01*
X14048000Y-8300000D02*
G75*
G03*
X14048000Y-8300000I-40000J0D01*
G01*
X14048000Y-8600000D02*
G75*
G03*
X14048000Y-8600000I-40000J0D01*
G01*
X14048000Y-11300000D02*
G75*
G03*
X14048000Y-11300000I-40000J0D01*
G01*
X14124000Y-4700000D02*
G75*
G03*
X14124000Y-4700000I-40000J0D01*
G01*
X14140000Y-6592000D02*
G75*
G03*
X14140000Y-6592000I-40000J0D01*
G01*
X14140000Y-7608000D02*
G75*
G03*
X14140000Y-7608000I-40000J0D01*
G01*
X14232000Y-10200000D02*
G75*
G03*
X14232000Y-10200000I-40000J0D01*
G01*
X14232000Y-10500000D02*
G75*
G03*
X14232000Y-10500000I-40000J0D01*
G01*
X14232000Y-10800000D02*
G75*
G03*
X14232000Y-10800000I-40000J0D01*
G01*
X14240000Y-3100000D02*
G75*
G03*
X14240000Y-3100000I-40000J0D01*
G01*
X14240000Y-6300000D02*
G75*
G03*
X14240000Y-6300000I-40000J0D01*
G01*
X14240000Y-9300000D02*
G75*
G03*
X14240000Y-9300000I-40000J0D01*
G01*
X14240000Y-12100000D02*
G75*
G03*
X14240000Y-12100000I-40000J0D01*
G01*
X14340000Y-3392000D02*
G75*
G03*
X14340000Y-3392000I-40000J0D01*
G01*
X14340000Y-4408000D02*
G75*
G03*
X14340000Y-4408000I-40000J0D01*
G01*
X14340000Y-16192000D02*
G75*
G03*
X14340000Y-16192000I-40000J0D01*
G01*
X14340000Y-17208000D02*
G75*
G03*
X14340000Y-17208000I-40000J0D01*
G01*
X14432000Y-2200000D02*
G75*
G03*
X14432000Y-2200000I-40000J0D01*
G01*
X14440000Y-7784000D02*
G75*
G03*
X14440000Y-7784000I-40000J0D01*
G01*
X14440000Y-8800000D02*
G75*
G03*
X14440000Y-8800000I-40000J0D01*
G01*
X14440000Y-12392000D02*
G75*
G03*
X14440000Y-12392000I-40000J0D01*
G01*
X14440000Y-13408000D02*
G75*
G03*
X14440000Y-13408000I-40000J0D01*
G01*
X14440000Y-13692000D02*
G75*
G03*
X14440000Y-13692000I-40000J0D01*
G01*
X14440000Y-14708000D02*
G75*
G03*
X14440000Y-14708000I-40000J0D01*
G01*
X14490000Y-3100000D02*
G75*
G03*
X14490000Y-3100000I-40000J0D01*
G01*
X14490000Y-6300000D02*
G75*
G03*
X14490000Y-6300000I-40000J0D01*
G01*
X14490000Y-9300000D02*
G75*
G03*
X14490000Y-9300000I-40000J0D01*
G01*
X14490000Y-12100000D02*
G75*
G03*
X14490000Y-12100000I-40000J0D01*
G01*
X14548000Y-5200000D02*
G75*
G03*
X14548000Y-5200000I-40000J0D01*
G01*
X14548000Y-5500000D02*
G75*
G03*
X14548000Y-5500000I-40000J0D01*
G01*
X14548000Y-15900000D02*
G75*
G03*
X14548000Y-15900000I-40000J0D01*
G01*
X14832000Y-7100000D02*
G75*
G03*
X14832000Y-7100000I-40000J0D01*
G01*
X14848000Y-11600000D02*
G75*
G03*
X14848000Y-11600000I-40000J0D01*
G01*
X14900000Y-2793500D02*
G75*
G03*
X14900000Y-2793500I-40000J0D01*
G01*
X14900000Y-3047500D02*
G75*
G03*
X14900000Y-3047500I-40000J0D01*
G01*
X14900000Y-3301500D02*
G75*
G03*
X14900000Y-3301500I-40000J0D01*
G01*
X14900000Y-3555500D02*
G75*
G03*
X14900000Y-3555500I-40000J0D01*
G01*
X14900000Y-3809500D02*
G75*
G03*
X14900000Y-3809500I-40000J0D01*
G01*
X14900000Y-4063500D02*
G75*
G03*
X14900000Y-4063500I-40000J0D01*
G01*
X14900000Y-4317500D02*
G75*
G03*
X14900000Y-4317500I-40000J0D01*
G01*
X14900000Y-5079500D02*
G75*
G03*
X14900000Y-5079500I-40000J0D01*
G01*
X14900000Y-5333500D02*
G75*
G03*
X14900000Y-5333500I-40000J0D01*
G01*
X14900000Y-5587500D02*
G75*
G03*
X14900000Y-5587500I-40000J0D01*
G01*
X14900000Y-5841500D02*
G75*
G03*
X14900000Y-5841500I-40000J0D01*
G01*
X14900000Y-6095500D02*
G75*
G03*
X14900000Y-6095500I-40000J0D01*
G01*
X14900000Y-6349500D02*
G75*
G03*
X14900000Y-6349500I-40000J0D01*
G01*
X14900000Y-6603500D02*
G75*
G03*
X14900000Y-6603500I-40000J0D01*
G01*
X14900000Y-7620000D02*
G75*
G03*
X14900000Y-7620000I-40000J0D01*
G01*
X14900000Y-7874000D02*
G75*
G03*
X14900000Y-7874000I-40000J0D01*
G01*
X14900000Y-8128000D02*
G75*
G03*
X14900000Y-8128000I-40000J0D01*
G01*
X14900000Y-8382000D02*
G75*
G03*
X14900000Y-8382000I-40000J0D01*
G01*
X14900000Y-8636000D02*
G75*
G03*
X14900000Y-8636000I-40000J0D01*
G01*
X14900000Y-8890000D02*
G75*
G03*
X14900000Y-8890000I-40000J0D01*
G01*
X14900000Y-9144000D02*
G75*
G03*
X14900000Y-9144000I-40000J0D01*
G01*
X14900000Y-12191500D02*
G75*
G03*
X14900000Y-12191500I-40000J0D01*
G01*
X14900000Y-12445500D02*
G75*
G03*
X14900000Y-12445500I-40000J0D01*
G01*
X14900000Y-12699500D02*
G75*
G03*
X14900000Y-12699500I-40000J0D01*
G01*
X14900000Y-12953500D02*
G75*
G03*
X14900000Y-12953500I-40000J0D01*
G01*
X14900000Y-13207500D02*
G75*
G03*
X14900000Y-13207500I-40000J0D01*
G01*
X14900000Y-13461500D02*
G75*
G03*
X14900000Y-13461500I-40000J0D01*
G01*
X14900000Y-13715500D02*
G75*
G03*
X14900000Y-13715500I-40000J0D01*
G01*
X14900000Y-15493500D02*
G75*
G03*
X14900000Y-15493500I-40000J0D01*
G01*
X14900000Y-15747500D02*
G75*
G03*
X14900000Y-15747500I-40000J0D01*
G01*
X14900000Y-16001500D02*
G75*
G03*
X14900000Y-16001500I-40000J0D01*
G01*
X14900000Y-16255500D02*
G75*
G03*
X14900000Y-16255500I-40000J0D01*
G01*
X14900000Y-16509500D02*
G75*
G03*
X14900000Y-16509500I-40000J0D01*
G01*
X14900000Y-16763500D02*
G75*
G03*
X14900000Y-16763500I-40000J0D01*
G01*
X14900000Y-17017500D02*
G75*
G03*
X14900000Y-17017500I-40000J0D01*
G01*
X14932000Y-9600000D02*
G75*
G03*
X14932000Y-9600000I-40000J0D01*
G01*
X14932000Y-14100000D02*
G75*
G03*
X14932000Y-14100000I-40000J0D01*
G01*
X14932000Y-14400000D02*
G75*
G03*
X14932000Y-14400000I-40000J0D01*
G01*
X15032000Y-15000000D02*
G75*
G03*
X15032000Y-15000000I-40000J0D01*
G01*
X15132000Y-17600000D02*
G75*
G03*
X15132000Y-17600000I-40000J0D01*
G01*
X15140000Y-4700000D02*
G75*
G03*
X15140000Y-4700000I-40000J0D01*
G01*
X15232000Y-11600000D02*
G75*
G03*
X15232000Y-11600000I-40000J0D01*
G01*
X15248000Y-10200000D02*
G75*
G03*
X15248000Y-10200000I-40000J0D01*
G01*
X15248000Y-10500000D02*
G75*
G03*
X15248000Y-10500000I-40000J0D01*
G01*
X15248000Y-10800000D02*
G75*
G03*
X15248000Y-10800000I-40000J0D01*
G01*
X15448000Y-2200000D02*
G75*
G03*
X15448000Y-2200000I-40000J0D01*
G01*
X15662000Y-2793500D02*
G75*
G03*
X15662000Y-2793500I-40000J0D01*
G01*
X15662000Y-3047500D02*
G75*
G03*
X15662000Y-3047500I-40000J0D01*
G01*
X15662000Y-3301500D02*
G75*
G03*
X15662000Y-3301500I-40000J0D01*
G01*
X15662000Y-3555500D02*
G75*
G03*
X15662000Y-3555500I-40000J0D01*
G01*
X15662000Y-3809500D02*
G75*
G03*
X15662000Y-3809500I-40000J0D01*
G01*
X15662000Y-4063500D02*
G75*
G03*
X15662000Y-4063500I-40000J0D01*
G01*
X15662000Y-4317500D02*
G75*
G03*
X15662000Y-4317500I-40000J0D01*
G01*
X15662000Y-5079500D02*
G75*
G03*
X15662000Y-5079500I-40000J0D01*
G01*
X15662000Y-5333500D02*
G75*
G03*
X15662000Y-5333500I-40000J0D01*
G01*
X15662000Y-5587500D02*
G75*
G03*
X15662000Y-5587500I-40000J0D01*
G01*
X15662000Y-5841500D02*
G75*
G03*
X15662000Y-5841500I-40000J0D01*
G01*
X15662000Y-6095500D02*
G75*
G03*
X15662000Y-6095500I-40000J0D01*
G01*
X15662000Y-6349500D02*
G75*
G03*
X15662000Y-6349500I-40000J0D01*
G01*
X15662000Y-6603500D02*
G75*
G03*
X15662000Y-6603500I-40000J0D01*
G01*
X15662000Y-7620000D02*
G75*
G03*
X15662000Y-7620000I-40000J0D01*
G01*
X15662000Y-7874000D02*
G75*
G03*
X15662000Y-7874000I-40000J0D01*
G01*
X15662000Y-8128000D02*
G75*
G03*
X15662000Y-8128000I-40000J0D01*
G01*
X15662000Y-8382000D02*
G75*
G03*
X15662000Y-8382000I-40000J0D01*
G01*
X15662000Y-8636000D02*
G75*
G03*
X15662000Y-8636000I-40000J0D01*
G01*
X15662000Y-8890000D02*
G75*
G03*
X15662000Y-8890000I-40000J0D01*
G01*
X15662000Y-9144000D02*
G75*
G03*
X15662000Y-9144000I-40000J0D01*
G01*
X15662000Y-12191500D02*
G75*
G03*
X15662000Y-12191500I-40000J0D01*
G01*
X15662000Y-12445500D02*
G75*
G03*
X15662000Y-12445500I-40000J0D01*
G01*
X15662000Y-12699500D02*
G75*
G03*
X15662000Y-12699500I-40000J0D01*
G01*
X15662000Y-12953500D02*
G75*
G03*
X15662000Y-12953500I-40000J0D01*
G01*
X15662000Y-13207500D02*
G75*
G03*
X15662000Y-13207500I-40000J0D01*
G01*
X15662000Y-13461500D02*
G75*
G03*
X15662000Y-13461500I-40000J0D01*
G01*
X15662000Y-13715500D02*
G75*
G03*
X15662000Y-13715500I-40000J0D01*
G01*
X15662000Y-15493500D02*
G75*
G03*
X15662000Y-15493500I-40000J0D01*
G01*
X15662000Y-15747500D02*
G75*
G03*
X15662000Y-15747500I-40000J0D01*
G01*
X15662000Y-16001500D02*
G75*
G03*
X15662000Y-16001500I-40000J0D01*
G01*
X15662000Y-16255500D02*
G75*
G03*
X15662000Y-16255500I-40000J0D01*
G01*
X15662000Y-16509500D02*
G75*
G03*
X15662000Y-16509500I-40000J0D01*
G01*
X15662000Y-16763500D02*
G75*
G03*
X15662000Y-16763500I-40000J0D01*
G01*
X15662000Y-17017500D02*
G75*
G03*
X15662000Y-17017500I-40000J0D01*
G01*
X15848000Y-7100000D02*
G75*
G03*
X15848000Y-7100000I-40000J0D01*
G01*
X15940000Y-2800000D02*
G75*
G03*
X15940000Y-2800000I-40000J0D01*
G01*
X15940000Y-5100000D02*
G75*
G03*
X15940000Y-5100000I-40000J0D01*
G01*
X15940000Y-7600000D02*
G75*
G03*
X15940000Y-7600000I-40000J0D01*
G01*
X15940000Y-12200000D02*
G75*
G03*
X15940000Y-12200000I-40000J0D01*
G01*
X15940000Y-15500000D02*
G75*
G03*
X15940000Y-15500000I-40000J0D01*
G01*
X15948000Y-9600000D02*
G75*
G03*
X15948000Y-9600000I-40000J0D01*
G01*
X15948000Y-14100000D02*
G75*
G03*
X15948000Y-14100000I-40000J0D01*
G01*
X15948000Y-14400000D02*
G75*
G03*
X15948000Y-14400000I-40000J0D01*
G01*
X16040000Y-10192000D02*
G75*
G03*
X16040000Y-10192000I-40000J0D01*
G01*
X16040000Y-11208000D02*
G75*
G03*
X16040000Y-11208000I-40000J0D01*
G01*
X16048000Y-15000000D02*
G75*
G03*
X16048000Y-15000000I-40000J0D01*
G01*
X16140000Y-3592000D02*
G75*
G03*
X16140000Y-3592000I-40000J0D01*
G01*
X16140000Y-4608000D02*
G75*
G03*
X16140000Y-4608000I-40000J0D01*
G01*
X16140000Y-5392000D02*
G75*
G03*
X16140000Y-5392000I-40000J0D01*
G01*
X16140000Y-6408000D02*
G75*
G03*
X16140000Y-6408000I-40000J0D01*
G01*
X16140000Y-8092000D02*
G75*
G03*
X16140000Y-8092000I-40000J0D01*
G01*
X16140000Y-9108000D02*
G75*
G03*
X16140000Y-9108000I-40000J0D01*
G01*
X16140000Y-12592000D02*
G75*
G03*
X16140000Y-12592000I-40000J0D01*
G01*
X16140000Y-13608000D02*
G75*
G03*
X16140000Y-13608000I-40000J0D01*
G01*
X16140000Y-16292000D02*
G75*
G03*
X16140000Y-16292000I-40000J0D01*
G01*
X16140000Y-17308000D02*
G75*
G03*
X16140000Y-17308000I-40000J0D01*
G01*
X16148000Y-17600000D02*
G75*
G03*
X16148000Y-17600000I-40000J0D01*
G01*
X16190000Y-2800000D02*
G75*
G03*
X16190000Y-2800000I-40000J0D01*
G01*
X16190000Y-5100000D02*
G75*
G03*
X16190000Y-5100000I-40000J0D01*
G01*
X16190000Y-7600000D02*
G75*
G03*
X16190000Y-7600000I-40000J0D01*
G01*
X16190000Y-12200000D02*
G75*
G03*
X16190000Y-12200000I-40000J0D01*
G01*
X16190000Y-15500000D02*
G75*
G03*
X16190000Y-15500000I-40000J0D01*
G01*
X16248000Y-11600000D02*
G75*
G03*
X16248000Y-11600000I-40000J0D01*
G01*
D14*
X10800000Y-14389000D02*
X10800000Y-14499000D01*
X10745000Y-14444000D02*
X10855000Y-14444000D01*
X10800000Y-14889000D02*
X10800000Y-14999000D01*
X10745000Y-14944000D02*
X10855000Y-14944000D01*
X10800000Y-15389000D02*
X10800000Y-15499000D01*
X10745000Y-15444000D02*
X10855000Y-15444000D01*
X10800000Y-16171000D02*
X10800000Y-16281000D01*
X10745000Y-16226000D02*
X10855000Y-16226000D01*
X10800000Y-16671000D02*
X10800000Y-16781000D01*
X10745000Y-16726000D02*
X10855000Y-16726000D01*
X10800000Y-17171000D02*
X10800000Y-17281000D01*
X10745000Y-17226000D02*
X10855000Y-17226000D01*
X10800000Y-17671000D02*
X10800000Y-17781000D01*
X10745000Y-17726000D02*
X10855000Y-17726000D01*
X10800000Y-18445000D02*
X10800000Y-18555000D01*
X10745000Y-18500000D02*
X10855000Y-18500000D01*
X10800000Y-18945000D02*
X10800000Y-19055000D01*
X10745000Y-19000000D02*
X10855000Y-19000000D01*
X15240000Y-18495000D02*
X15240000Y-18605000D01*
X15185000Y-18550000D02*
X15295000Y-18550000D01*
X15240000Y-18995000D02*
X15240000Y-19105000D01*
X15185000Y-19050000D02*
X15295000Y-19050000D01*
X16764000Y-1747000D02*
X16764000Y-1857000D01*
X16709000Y-1802000D02*
X16819000Y-1802000D01*
X16764000Y-2247000D02*
X16764000Y-2357000D01*
X16709000Y-2302000D02*
X16819000Y-2302000D01*
X16764000Y-2747000D02*
X16764000Y-2857000D01*
X16709000Y-2802000D02*
X16819000Y-2802000D01*
X16764000Y-3247000D02*
X16764000Y-3357000D01*
X16709000Y-3302000D02*
X16819000Y-3302000D01*
X16764000Y-4033000D02*
X16764000Y-4143000D01*
X16709000Y-4088000D02*
X16819000Y-4088000D01*
X16764000Y-4533000D02*
X16764000Y-4643000D01*
X16709000Y-4588000D02*
X16819000Y-4588000D01*
X16764000Y-5033000D02*
X16764000Y-5143000D01*
X16709000Y-5088000D02*
X16819000Y-5088000D01*
X16764000Y-5533000D02*
X16764000Y-5643000D01*
X16709000Y-5588000D02*
X16819000Y-5588000D01*
X16764000Y-6307000D02*
X16764000Y-6417000D01*
X16709000Y-6362000D02*
X16819000Y-6362000D01*
X16764000Y-6807000D02*
X16764000Y-6917000D01*
X16709000Y-6862000D02*
X16819000Y-6862000D01*
X16764000Y-7307000D02*
X16764000Y-7417000D01*
X16709000Y-7362000D02*
X16819000Y-7362000D01*
X16764000Y-7807000D02*
X16764000Y-7917000D01*
X16709000Y-7862000D02*
X16819000Y-7862000D01*
X16764000Y-8605000D02*
X16764000Y-8715000D01*
X16709000Y-8660000D02*
X16819000Y-8660000D01*
X16764000Y-9105000D02*
X16764000Y-9215000D01*
X16709000Y-9160000D02*
X16819000Y-9160000D01*
X16764000Y-9605000D02*
X16764000Y-9715000D01*
X16709000Y-9660000D02*
X16819000Y-9660000D01*
X16764000Y-10105000D02*
X16764000Y-10215000D01*
X16709000Y-10160000D02*
X16819000Y-10160000D01*
X16764000Y-10879000D02*
X16764000Y-10989000D01*
X16709000Y-10934000D02*
X16819000Y-10934000D01*
X16764000Y-11379000D02*
X16764000Y-11489000D01*
X16709000Y-11434000D02*
X16819000Y-11434000D01*
X16764000Y-11879000D02*
X16764000Y-11989000D01*
X16709000Y-11934000D02*
X16819000Y-11934000D01*
X16764000Y-12379000D02*
X16764000Y-12489000D01*
X16709000Y-12434000D02*
X16819000Y-12434000D01*
X16764000Y-13165000D02*
X16764000Y-13275000D01*
X16709000Y-13220000D02*
X16819000Y-13220000D01*
X16764000Y-13665000D02*
X16764000Y-13775000D01*
X16709000Y-13720000D02*
X16819000Y-13720000D01*
X16764000Y-14165000D02*
X16764000Y-14275000D01*
X16709000Y-14220000D02*
X16819000Y-14220000D01*
X16764000Y-14665000D02*
X16764000Y-14775000D01*
X16709000Y-14720000D02*
X16819000Y-14720000D01*
X16764000Y-15455000D02*
X16764000Y-15565000D01*
X16709000Y-15510000D02*
X16819000Y-15510000D01*
X16764000Y-15955000D02*
X16764000Y-16065000D01*
X16709000Y-16010000D02*
X16819000Y-16010000D01*
X16764000Y-16455000D02*
X16764000Y-16565000D01*
X16709000Y-16510000D02*
X16819000Y-16510000D01*
X16764000Y-16955000D02*
X16764000Y-17065000D01*
X16709000Y-17010000D02*
X16819000Y-17010000D01*
X16764000Y-17737000D02*
X16764000Y-17847000D01*
X16709000Y-17792000D02*
X16819000Y-17792000D01*
X16764000Y-18237000D02*
X16764000Y-18347000D01*
X16709000Y-18292000D02*
X16819000Y-18292000D01*
X16764000Y-18737000D02*
X16764000Y-18847000D01*
X16709000Y-18792000D02*
X16819000Y-18792000D01*
X16764000Y-19237000D02*
X16764000Y-19347000D01*
X16709000Y-19292000D02*
X16819000Y-19292000D01*
D11*
X10552619Y-19915476D02*
X10552619Y-19715476D01*
X10600238Y-19715476D01*
X10628810Y-19725000D01*
X10647857Y-19744048D01*
X10657381Y-19763095D01*
X10666905Y-19801190D01*
X10666905Y-19829762D01*
X10657381Y-19867857D01*
X10647857Y-19886905D01*
X10628810Y-19905952D01*
X10600238Y-19915476D01*
X10552619Y-19915476D01*
X10752619Y-19915476D02*
X10752619Y-19782143D01*
X10752619Y-19820238D02*
X10762143Y-19801190D01*
X10771667Y-19791667D01*
X10790714Y-19782143D01*
X10809762Y-19782143D01*
X10876429Y-19915476D02*
X10876429Y-19782143D01*
X10876429Y-19715476D02*
X10866905Y-19725000D01*
X10876429Y-19734524D01*
X10885952Y-19725000D01*
X10876429Y-19715476D01*
X10876429Y-19734524D01*
X11000238Y-19915476D02*
X10981190Y-19905952D01*
X10971667Y-19886905D01*
X10971667Y-19715476D01*
X11105000Y-19915476D02*
X11085952Y-19905952D01*
X11076429Y-19886905D01*
X11076429Y-19715476D01*
X11333571Y-19915476D02*
X11333571Y-19715476D01*
X11400238Y-19858333D01*
X11466905Y-19715476D01*
X11466905Y-19915476D01*
X11647857Y-19915476D02*
X11647857Y-19810714D01*
X11638333Y-19791667D01*
X11619286Y-19782143D01*
X11581190Y-19782143D01*
X11562143Y-19791667D01*
X11647857Y-19905952D02*
X11628809Y-19915476D01*
X11581190Y-19915476D01*
X11562143Y-19905952D01*
X11552619Y-19886905D01*
X11552619Y-19867857D01*
X11562143Y-19848810D01*
X11581190Y-19839286D01*
X11628809Y-19839286D01*
X11647857Y-19829762D01*
X11743095Y-19782143D02*
X11743095Y-19982143D01*
X11743095Y-19791667D02*
X11762143Y-19782143D01*
X11800238Y-19782143D01*
X11819286Y-19791667D01*
X11828809Y-19801190D01*
X11838333Y-19820238D01*
X11838333Y-19877381D01*
X11828809Y-19896429D01*
X11819286Y-19905952D01*
X11800238Y-19915476D01*
X11762143Y-19915476D01*
X11743095Y-19905952D01*
X11924048Y-19896429D02*
X11933571Y-19905952D01*
X11924048Y-19915476D01*
X11914524Y-19905952D01*
X11924048Y-19896429D01*
X11924048Y-19915476D01*
X11924048Y-19791667D02*
X11933571Y-19801190D01*
X11924048Y-19810714D01*
X11914524Y-19801190D01*
X11924048Y-19791667D01*
X11924048Y-19810714D01*
D12*
X10255000Y-20225000D02*
X10295000Y-20265000D01*
X10295000Y-20225000D02*
X10255000Y-20265000D01*
D11*
X10590714Y-20135476D02*
X10609762Y-20135476D01*
X10628810Y-20145000D01*
X10638333Y-20154524D01*
X10647857Y-20173571D01*
X10657381Y-20211667D01*
X10657381Y-20259286D01*
X10647857Y-20297381D01*
X10638333Y-20316429D01*
X10628810Y-20325952D01*
X10609762Y-20335476D01*
X10590714Y-20335476D01*
X10571667Y-20325952D01*
X10562143Y-20316429D01*
X10552619Y-20297381D01*
X10543095Y-20259286D01*
X10543095Y-20211667D01*
X10552619Y-20173571D01*
X10562143Y-20154524D01*
X10571667Y-20145000D01*
X10590714Y-20135476D01*
X10743095Y-20316429D02*
X10752619Y-20325952D01*
X10743095Y-20335476D01*
X10733571Y-20325952D01*
X10743095Y-20316429D01*
X10743095Y-20335476D01*
X10924048Y-20202143D02*
X10924048Y-20335476D01*
X10876429Y-20125952D02*
X10828810Y-20268810D01*
X10952619Y-20268810D01*
X11066905Y-20135476D02*
X11085952Y-20135476D01*
X11105000Y-20145000D01*
X11114524Y-20154524D01*
X11124048Y-20173571D01*
X11133571Y-20211667D01*
X11133571Y-20259286D01*
X11124048Y-20297381D01*
X11114524Y-20316429D01*
X11105000Y-20325952D01*
X11085952Y-20335476D01*
X11066905Y-20335476D01*
X11047857Y-20325952D01*
X11038333Y-20316429D01*
X11028810Y-20297381D01*
X11019286Y-20259286D01*
X11019286Y-20211667D01*
X11028810Y-20173571D01*
X11038333Y-20154524D01*
X11047857Y-20145000D01*
X11066905Y-20135476D01*
X11257381Y-20135476D02*
X11276428Y-20135476D01*
X11295476Y-20145000D01*
X11305000Y-20154524D01*
X11314524Y-20173571D01*
X11324048Y-20211667D01*
X11324048Y-20259286D01*
X11314524Y-20297381D01*
X11305000Y-20316429D01*
X11295476Y-20325952D01*
X11276428Y-20335476D01*
X11257381Y-20335476D01*
X11238333Y-20325952D01*
X11228809Y-20316429D01*
X11219286Y-20297381D01*
X11209762Y-20259286D01*
X11209762Y-20211667D01*
X11219286Y-20173571D01*
X11228809Y-20154524D01*
X11238333Y-20145000D01*
X11257381Y-20135476D01*
X11409762Y-20335476D02*
X11409762Y-20202143D01*
X11409762Y-20221190D02*
X11419286Y-20211667D01*
X11438333Y-20202143D01*
X11466905Y-20202143D01*
X11485952Y-20211667D01*
X11495476Y-20230714D01*
X11495476Y-20335476D01*
X11495476Y-20230714D02*
X11505000Y-20211667D01*
X11524048Y-20202143D01*
X11552619Y-20202143D01*
X11571667Y-20211667D01*
X11581190Y-20230714D01*
X11581190Y-20335476D01*
X11676428Y-20335476D02*
X11676428Y-20202143D01*
X11676428Y-20221190D02*
X11685952Y-20211667D01*
X11705000Y-20202143D01*
X11733571Y-20202143D01*
X11752619Y-20211667D01*
X11762143Y-20230714D01*
X11762143Y-20335476D01*
X11762143Y-20230714D02*
X11771667Y-20211667D01*
X11790714Y-20202143D01*
X11819286Y-20202143D01*
X11838333Y-20211667D01*
X11847857Y-20230714D01*
X11847857Y-20335476D01*
X12238333Y-20125952D02*
X12066905Y-20383095D01*
X12495476Y-20135476D02*
X12514524Y-20135476D01*
X12533571Y-20145000D01*
X12543095Y-20154524D01*
X12552619Y-20173571D01*
X12562143Y-20211667D01*
X12562143Y-20259286D01*
X12552619Y-20297381D01*
X12543095Y-20316429D01*
X12533571Y-20325952D01*
X12514524Y-20335476D01*
X12495476Y-20335476D01*
X12476428Y-20325952D01*
X12466905Y-20316429D01*
X12457381Y-20297381D01*
X12447857Y-20259286D01*
X12447857Y-20211667D01*
X12457381Y-20173571D01*
X12466905Y-20154524D01*
X12476428Y-20145000D01*
X12495476Y-20135476D01*
X12647857Y-20316429D02*
X12657381Y-20325952D01*
X12647857Y-20335476D01*
X12638333Y-20325952D01*
X12647857Y-20316429D01*
X12647857Y-20335476D01*
X12781190Y-20135476D02*
X12800238Y-20135476D01*
X12819286Y-20145000D01*
X12828809Y-20154524D01*
X12838333Y-20173571D01*
X12847857Y-20211667D01*
X12847857Y-20259286D01*
X12838333Y-20297381D01*
X12828809Y-20316429D01*
X12819286Y-20325952D01*
X12800238Y-20335476D01*
X12781190Y-20335476D01*
X12762143Y-20325952D01*
X12752619Y-20316429D01*
X12743095Y-20297381D01*
X12733571Y-20259286D01*
X12733571Y-20211667D01*
X12743095Y-20173571D01*
X12752619Y-20154524D01*
X12762143Y-20145000D01*
X12781190Y-20135476D01*
X13038333Y-20335476D02*
X12924048Y-20335476D01*
X12981190Y-20335476D02*
X12981190Y-20135476D01*
X12962143Y-20164048D01*
X12943095Y-20183095D01*
X12924048Y-20192619D01*
X13219286Y-20135476D02*
X13124048Y-20135476D01*
X13114524Y-20230714D01*
X13124048Y-20221190D01*
X13143095Y-20211667D01*
X13190714Y-20211667D01*
X13209762Y-20221190D01*
X13219286Y-20230714D01*
X13228809Y-20249762D01*
X13228809Y-20297381D01*
X13219286Y-20316429D01*
X13209762Y-20325952D01*
X13190714Y-20335476D01*
X13143095Y-20335476D01*
X13124048Y-20325952D01*
X13114524Y-20316429D01*
X13295476Y-20135476D02*
X13428809Y-20135476D01*
X13343095Y-20335476D01*
X13495476Y-20135476D02*
X13495476Y-20173571D01*
X13571667Y-20135476D02*
X13571667Y-20173571D01*
X13866905Y-20411667D02*
X13857381Y-20402143D01*
X13838333Y-20373571D01*
X13828809Y-20354524D01*
X13819286Y-20325952D01*
X13809762Y-20278333D01*
X13809762Y-20240238D01*
X13819286Y-20192619D01*
X13828809Y-20164048D01*
X13838333Y-20145000D01*
X13857381Y-20116429D01*
X13866905Y-20106905D01*
X14038333Y-20135476D02*
X13943095Y-20135476D01*
X13933571Y-20230714D01*
X13943095Y-20221190D01*
X13962143Y-20211667D01*
X14009762Y-20211667D01*
X14028809Y-20221190D01*
X14038333Y-20230714D01*
X14047857Y-20249762D01*
X14047857Y-20297381D01*
X14038333Y-20316429D01*
X14028809Y-20325952D01*
X14009762Y-20335476D01*
X13962143Y-20335476D01*
X13943095Y-20325952D01*
X13933571Y-20316429D01*
X14114524Y-20135476D02*
X14247857Y-20135476D01*
X14162143Y-20335476D01*
X14476428Y-20335476D02*
X14476428Y-20135476D01*
X14562143Y-20335476D02*
X14562143Y-20230714D01*
X14552619Y-20211667D01*
X14533571Y-20202143D01*
X14505000Y-20202143D01*
X14485952Y-20211667D01*
X14476428Y-20221190D01*
X14685952Y-20335476D02*
X14666905Y-20325952D01*
X14657381Y-20316429D01*
X14647857Y-20297381D01*
X14647857Y-20240238D01*
X14657381Y-20221190D01*
X14666905Y-20211667D01*
X14685952Y-20202143D01*
X14714524Y-20202143D01*
X14733571Y-20211667D01*
X14743095Y-20221190D01*
X14752619Y-20240238D01*
X14752619Y-20297381D01*
X14743095Y-20316429D01*
X14733571Y-20325952D01*
X14714524Y-20335476D01*
X14685952Y-20335476D01*
X14866905Y-20335476D02*
X14847857Y-20325952D01*
X14838333Y-20306905D01*
X14838333Y-20135476D01*
X15019286Y-20325952D02*
X15000238Y-20335476D01*
X14962143Y-20335476D01*
X14943095Y-20325952D01*
X14933571Y-20306905D01*
X14933571Y-20230714D01*
X14943095Y-20211667D01*
X14962143Y-20202143D01*
X15000238Y-20202143D01*
X15019286Y-20211667D01*
X15028809Y-20230714D01*
X15028809Y-20249762D01*
X14933571Y-20268810D01*
X15105000Y-20325952D02*
X15124048Y-20335476D01*
X15162143Y-20335476D01*
X15181190Y-20325952D01*
X15190714Y-20306905D01*
X15190714Y-20297381D01*
X15181190Y-20278333D01*
X15162143Y-20268810D01*
X15133571Y-20268810D01*
X15114524Y-20259286D01*
X15105000Y-20240238D01*
X15105000Y-20230714D01*
X15114524Y-20211667D01*
X15133571Y-20202143D01*
X15162143Y-20202143D01*
X15181190Y-20211667D01*
X15257381Y-20411667D02*
X15266905Y-20402143D01*
X15285952Y-20373571D01*
X15295476Y-20354524D01*
X15305000Y-20325952D01*
X15314524Y-20278333D01*
X15314524Y-20240238D01*
X15305000Y-20192619D01*
X15295476Y-20164048D01*
X15285952Y-20145000D01*
X15266905Y-20116429D01*
X15257381Y-20106905D01*
D13*
X10295000Y-20509000D02*
G75*
G03*
X10295000Y-20509000I-40000J0D01*
G01*
D11*
X10590714Y-20399476D02*
X10609762Y-20399476D01*
X10628810Y-20409000D01*
X10638333Y-20418524D01*
X10647857Y-20437571D01*
X10657381Y-20475667D01*
X10657381Y-20523286D01*
X10647857Y-20561381D01*
X10638333Y-20580429D01*
X10628810Y-20589952D01*
X10609762Y-20599476D01*
X10590714Y-20599476D01*
X10571667Y-20589952D01*
X10562143Y-20580429D01*
X10552619Y-20561381D01*
X10543095Y-20523286D01*
X10543095Y-20475667D01*
X10552619Y-20437571D01*
X10562143Y-20418524D01*
X10571667Y-20409000D01*
X10590714Y-20399476D01*
X10743095Y-20580429D02*
X10752619Y-20589952D01*
X10743095Y-20599476D01*
X10733571Y-20589952D01*
X10743095Y-20580429D01*
X10743095Y-20599476D01*
X10866905Y-20485190D02*
X10847857Y-20475667D01*
X10838333Y-20466143D01*
X10828810Y-20447095D01*
X10828810Y-20437571D01*
X10838333Y-20418524D01*
X10847857Y-20409000D01*
X10866905Y-20399476D01*
X10905000Y-20399476D01*
X10924048Y-20409000D01*
X10933571Y-20418524D01*
X10943095Y-20437571D01*
X10943095Y-20447095D01*
X10933571Y-20466143D01*
X10924048Y-20475667D01*
X10905000Y-20485190D01*
X10866905Y-20485190D01*
X10847857Y-20494714D01*
X10838333Y-20504238D01*
X10828810Y-20523286D01*
X10828810Y-20561381D01*
X10838333Y-20580429D01*
X10847857Y-20589952D01*
X10866905Y-20599476D01*
X10905000Y-20599476D01*
X10924048Y-20589952D01*
X10933571Y-20580429D01*
X10943095Y-20561381D01*
X10943095Y-20523286D01*
X10933571Y-20504238D01*
X10924048Y-20494714D01*
X10905000Y-20485190D01*
X11066905Y-20399476D02*
X11085952Y-20399476D01*
X11105000Y-20409000D01*
X11114524Y-20418524D01*
X11124048Y-20437571D01*
X11133571Y-20475667D01*
X11133571Y-20523286D01*
X11124048Y-20561381D01*
X11114524Y-20580429D01*
X11105000Y-20589952D01*
X11085952Y-20599476D01*
X11066905Y-20599476D01*
X11047857Y-20589952D01*
X11038333Y-20580429D01*
X11028810Y-20561381D01*
X11019286Y-20523286D01*
X11019286Y-20475667D01*
X11028810Y-20437571D01*
X11038333Y-20418524D01*
X11047857Y-20409000D01*
X11066905Y-20399476D01*
X11257381Y-20399476D02*
X11276428Y-20399476D01*
X11295476Y-20409000D01*
X11305000Y-20418524D01*
X11314524Y-20437571D01*
X11324048Y-20475667D01*
X11324048Y-20523286D01*
X11314524Y-20561381D01*
X11305000Y-20580429D01*
X11295476Y-20589952D01*
X11276428Y-20599476D01*
X11257381Y-20599476D01*
X11238333Y-20589952D01*
X11228809Y-20580429D01*
X11219286Y-20561381D01*
X11209762Y-20523286D01*
X11209762Y-20475667D01*
X11219286Y-20437571D01*
X11228809Y-20418524D01*
X11238333Y-20409000D01*
X11257381Y-20399476D01*
X11409762Y-20599476D02*
X11409762Y-20466143D01*
X11409762Y-20485190D02*
X11419286Y-20475667D01*
X11438333Y-20466143D01*
X11466905Y-20466143D01*
X11485952Y-20475667D01*
X11495476Y-20494714D01*
X11495476Y-20599476D01*
X11495476Y-20494714D02*
X11505000Y-20475667D01*
X11524048Y-20466143D01*
X11552619Y-20466143D01*
X11571667Y-20475667D01*
X11581190Y-20494714D01*
X11581190Y-20599476D01*
X11676428Y-20599476D02*
X11676428Y-20466143D01*
X11676428Y-20485190D02*
X11685952Y-20475667D01*
X11705000Y-20466143D01*
X11733571Y-20466143D01*
X11752619Y-20475667D01*
X11762143Y-20494714D01*
X11762143Y-20599476D01*
X11762143Y-20494714D02*
X11771667Y-20475667D01*
X11790714Y-20466143D01*
X11819286Y-20466143D01*
X11838333Y-20475667D01*
X11847857Y-20494714D01*
X11847857Y-20599476D01*
X12238333Y-20389952D02*
X12066905Y-20647095D01*
X12495476Y-20399476D02*
X12514524Y-20399476D01*
X12533571Y-20409000D01*
X12543095Y-20418524D01*
X12552619Y-20437571D01*
X12562143Y-20475667D01*
X12562143Y-20523286D01*
X12552619Y-20561381D01*
X12543095Y-20580429D01*
X12533571Y-20589952D01*
X12514524Y-20599476D01*
X12495476Y-20599476D01*
X12476428Y-20589952D01*
X12466905Y-20580429D01*
X12457381Y-20561381D01*
X12447857Y-20523286D01*
X12447857Y-20475667D01*
X12457381Y-20437571D01*
X12466905Y-20418524D01*
X12476428Y-20409000D01*
X12495476Y-20399476D01*
X12647857Y-20580429D02*
X12657381Y-20589952D01*
X12647857Y-20599476D01*
X12638333Y-20589952D01*
X12647857Y-20580429D01*
X12647857Y-20599476D01*
X12781190Y-20399476D02*
X12800238Y-20399476D01*
X12819286Y-20409000D01*
X12828809Y-20418524D01*
X12838333Y-20437571D01*
X12847857Y-20475667D01*
X12847857Y-20523286D01*
X12838333Y-20561381D01*
X12828809Y-20580429D01*
X12819286Y-20589952D01*
X12800238Y-20599476D01*
X12781190Y-20599476D01*
X12762143Y-20589952D01*
X12752619Y-20580429D01*
X12743095Y-20561381D01*
X12733571Y-20523286D01*
X12733571Y-20475667D01*
X12743095Y-20437571D01*
X12752619Y-20418524D01*
X12762143Y-20409000D01*
X12781190Y-20399476D01*
X12914524Y-20399476D02*
X13038333Y-20399476D01*
X12971667Y-20475667D01*
X13000238Y-20475667D01*
X13019286Y-20485190D01*
X13028809Y-20494714D01*
X13038333Y-20513762D01*
X13038333Y-20561381D01*
X13028809Y-20580429D01*
X13019286Y-20589952D01*
X13000238Y-20599476D01*
X12943095Y-20599476D01*
X12924048Y-20589952D01*
X12914524Y-20580429D01*
X13228809Y-20599476D02*
X13114524Y-20599476D01*
X13171667Y-20599476D02*
X13171667Y-20399476D01*
X13152619Y-20428048D01*
X13133571Y-20447095D01*
X13114524Y-20456619D01*
X13409762Y-20399476D02*
X13314524Y-20399476D01*
X13305000Y-20494714D01*
X13314524Y-20485190D01*
X13333571Y-20475667D01*
X13381190Y-20475667D01*
X13400238Y-20485190D01*
X13409762Y-20494714D01*
X13419286Y-20513762D01*
X13419286Y-20561381D01*
X13409762Y-20580429D01*
X13400238Y-20589952D01*
X13381190Y-20599476D01*
X13333571Y-20599476D01*
X13314524Y-20589952D01*
X13305000Y-20580429D01*
X13495476Y-20399476D02*
X13495476Y-20437571D01*
X13571667Y-20399476D02*
X13571667Y-20437571D01*
X13866905Y-20675667D02*
X13857381Y-20666143D01*
X13838333Y-20637571D01*
X13828809Y-20618524D01*
X13819286Y-20589952D01*
X13809762Y-20542333D01*
X13809762Y-20504238D01*
X13819286Y-20456619D01*
X13828809Y-20428048D01*
X13838333Y-20409000D01*
X13857381Y-20380429D01*
X13866905Y-20370905D01*
X13933571Y-20418524D02*
X13943095Y-20409000D01*
X13962143Y-20399476D01*
X14009762Y-20399476D01*
X14028809Y-20409000D01*
X14038333Y-20418524D01*
X14047857Y-20437571D01*
X14047857Y-20456619D01*
X14038333Y-20485190D01*
X13924048Y-20599476D01*
X14047857Y-20599476D01*
X14143095Y-20599476D02*
X14181190Y-20599476D01*
X14200238Y-20589952D01*
X14209762Y-20580429D01*
X14228809Y-20551857D01*
X14238333Y-20513762D01*
X14238333Y-20437571D01*
X14228809Y-20418524D01*
X14219286Y-20409000D01*
X14200238Y-20399476D01*
X14162143Y-20399476D01*
X14143095Y-20409000D01*
X14133571Y-20418524D01*
X14124048Y-20437571D01*
X14124048Y-20485190D01*
X14133571Y-20504238D01*
X14143095Y-20513762D01*
X14162143Y-20523286D01*
X14200238Y-20523286D01*
X14219286Y-20513762D01*
X14228809Y-20504238D01*
X14238333Y-20485190D01*
X14409762Y-20466143D02*
X14409762Y-20599476D01*
X14362143Y-20389952D02*
X14314524Y-20532810D01*
X14438333Y-20532810D01*
X14666905Y-20599476D02*
X14666905Y-20399476D01*
X14752619Y-20599476D02*
X14752619Y-20494714D01*
X14743095Y-20475667D01*
X14724048Y-20466143D01*
X14695476Y-20466143D01*
X14676428Y-20475667D01*
X14666905Y-20485190D01*
X14876428Y-20599476D02*
X14857381Y-20589952D01*
X14847857Y-20580429D01*
X14838333Y-20561381D01*
X14838333Y-20504238D01*
X14847857Y-20485190D01*
X14857381Y-20475667D01*
X14876428Y-20466143D01*
X14905000Y-20466143D01*
X14924048Y-20475667D01*
X14933571Y-20485190D01*
X14943095Y-20504238D01*
X14943095Y-20561381D01*
X14933571Y-20580429D01*
X14924048Y-20589952D01*
X14905000Y-20599476D01*
X14876428Y-20599476D01*
X15057381Y-20599476D02*
X15038333Y-20589952D01*
X15028809Y-20570905D01*
X15028809Y-20399476D01*
X15209762Y-20589952D02*
X15190714Y-20599476D01*
X15152619Y-20599476D01*
X15133571Y-20589952D01*
X15124048Y-20570905D01*
X15124048Y-20494714D01*
X15133571Y-20475667D01*
X15152619Y-20466143D01*
X15190714Y-20466143D01*
X15209762Y-20475667D01*
X15219286Y-20494714D01*
X15219286Y-20513762D01*
X15124048Y-20532810D01*
X15295476Y-20589952D02*
X15314524Y-20599476D01*
X15352619Y-20599476D01*
X15371667Y-20589952D01*
X15381190Y-20570905D01*
X15381190Y-20561381D01*
X15371667Y-20542333D01*
X15352619Y-20532810D01*
X15324048Y-20532810D01*
X15305000Y-20523286D01*
X15295476Y-20504238D01*
X15295476Y-20494714D01*
X15305000Y-20475667D01*
X15324048Y-20466143D01*
X15352619Y-20466143D01*
X15371667Y-20475667D01*
X15447857Y-20675667D02*
X15457381Y-20666143D01*
X15476428Y-20637571D01*
X15485952Y-20618524D01*
X15495476Y-20589952D01*
X15505000Y-20542333D01*
X15505000Y-20504238D01*
X15495476Y-20456619D01*
X15485952Y-20428048D01*
X15476428Y-20409000D01*
X15457381Y-20380429D01*
X15447857Y-20370905D01*
D14*
X10240000Y-20718000D02*
X10240000Y-20828000D01*
X10185000Y-20773000D02*
X10295000Y-20773000D01*
D11*
X10657381Y-20863476D02*
X10543095Y-20863476D01*
X10600238Y-20863476D02*
X10600238Y-20663476D01*
X10581190Y-20692048D01*
X10562143Y-20711095D01*
X10543095Y-20720619D01*
X10743095Y-20844429D02*
X10752619Y-20853952D01*
X10743095Y-20863476D01*
X10733571Y-20853952D01*
X10743095Y-20844429D01*
X10743095Y-20863476D01*
X10943095Y-20863476D02*
X10828810Y-20863476D01*
X10885952Y-20863476D02*
X10885952Y-20663476D01*
X10866905Y-20692048D01*
X10847857Y-20711095D01*
X10828810Y-20720619D01*
X11066905Y-20663476D02*
X11085952Y-20663476D01*
X11105000Y-20673000D01*
X11114524Y-20682524D01*
X11124048Y-20701571D01*
X11133571Y-20739667D01*
X11133571Y-20787286D01*
X11124048Y-20825381D01*
X11114524Y-20844429D01*
X11105000Y-20853952D01*
X11085952Y-20863476D01*
X11066905Y-20863476D01*
X11047857Y-20853952D01*
X11038333Y-20844429D01*
X11028810Y-20825381D01*
X11019286Y-20787286D01*
X11019286Y-20739667D01*
X11028810Y-20701571D01*
X11038333Y-20682524D01*
X11047857Y-20673000D01*
X11066905Y-20663476D01*
X11257381Y-20663476D02*
X11276428Y-20663476D01*
X11295476Y-20673000D01*
X11305000Y-20682524D01*
X11314524Y-20701571D01*
X11324048Y-20739667D01*
X11324048Y-20787286D01*
X11314524Y-20825381D01*
X11305000Y-20844429D01*
X11295476Y-20853952D01*
X11276428Y-20863476D01*
X11257381Y-20863476D01*
X11238333Y-20853952D01*
X11228809Y-20844429D01*
X11219286Y-20825381D01*
X11209762Y-20787286D01*
X11209762Y-20739667D01*
X11219286Y-20701571D01*
X11228809Y-20682524D01*
X11238333Y-20673000D01*
X11257381Y-20663476D01*
X11409762Y-20863476D02*
X11409762Y-20730143D01*
X11409762Y-20749190D02*
X11419286Y-20739667D01*
X11438333Y-20730143D01*
X11466905Y-20730143D01*
X11485952Y-20739667D01*
X11495476Y-20758714D01*
X11495476Y-20863476D01*
X11495476Y-20758714D02*
X11505000Y-20739667D01*
X11524048Y-20730143D01*
X11552619Y-20730143D01*
X11571667Y-20739667D01*
X11581190Y-20758714D01*
X11581190Y-20863476D01*
X11676428Y-20863476D02*
X11676428Y-20730143D01*
X11676428Y-20749190D02*
X11685952Y-20739667D01*
X11705000Y-20730143D01*
X11733571Y-20730143D01*
X11752619Y-20739667D01*
X11762143Y-20758714D01*
X11762143Y-20863476D01*
X11762143Y-20758714D02*
X11771667Y-20739667D01*
X11790714Y-20730143D01*
X11819286Y-20730143D01*
X11838333Y-20739667D01*
X11847857Y-20758714D01*
X11847857Y-20863476D01*
X12238333Y-20653952D02*
X12066905Y-20911095D01*
X12495476Y-20663476D02*
X12514524Y-20663476D01*
X12533571Y-20673000D01*
X12543095Y-20682524D01*
X12552619Y-20701571D01*
X12562143Y-20739667D01*
X12562143Y-20787286D01*
X12552619Y-20825381D01*
X12543095Y-20844429D01*
X12533571Y-20853952D01*
X12514524Y-20863476D01*
X12495476Y-20863476D01*
X12476428Y-20853952D01*
X12466905Y-20844429D01*
X12457381Y-20825381D01*
X12447857Y-20787286D01*
X12447857Y-20739667D01*
X12457381Y-20701571D01*
X12466905Y-20682524D01*
X12476428Y-20673000D01*
X12495476Y-20663476D01*
X12647857Y-20844429D02*
X12657381Y-20853952D01*
X12647857Y-20863476D01*
X12638333Y-20853952D01*
X12647857Y-20844429D01*
X12647857Y-20863476D01*
X12781190Y-20663476D02*
X12800238Y-20663476D01*
X12819286Y-20673000D01*
X12828809Y-20682524D01*
X12838333Y-20701571D01*
X12847857Y-20739667D01*
X12847857Y-20787286D01*
X12838333Y-20825381D01*
X12828809Y-20844429D01*
X12819286Y-20853952D01*
X12800238Y-20863476D01*
X12781190Y-20863476D01*
X12762143Y-20853952D01*
X12752619Y-20844429D01*
X12743095Y-20825381D01*
X12733571Y-20787286D01*
X12733571Y-20739667D01*
X12743095Y-20701571D01*
X12752619Y-20682524D01*
X12762143Y-20673000D01*
X12781190Y-20663476D01*
X13019286Y-20730143D02*
X13019286Y-20863476D01*
X12971667Y-20653952D02*
X12924048Y-20796810D01*
X13047857Y-20796810D01*
X13105000Y-20663476D02*
X13228809Y-20663476D01*
X13162143Y-20739667D01*
X13190714Y-20739667D01*
X13209762Y-20749190D01*
X13219286Y-20758714D01*
X13228809Y-20777762D01*
X13228809Y-20825381D01*
X13219286Y-20844429D01*
X13209762Y-20853952D01*
X13190714Y-20863476D01*
X13133571Y-20863476D01*
X13114524Y-20853952D01*
X13105000Y-20844429D01*
X13295476Y-20663476D02*
X13419286Y-20663476D01*
X13352619Y-20739667D01*
X13381190Y-20739667D01*
X13400238Y-20749190D01*
X13409762Y-20758714D01*
X13419286Y-20777762D01*
X13419286Y-20825381D01*
X13409762Y-20844429D01*
X13400238Y-20853952D01*
X13381190Y-20863476D01*
X13324048Y-20863476D01*
X13305000Y-20853952D01*
X13295476Y-20844429D01*
X13495476Y-20663476D02*
X13495476Y-20701571D01*
X13571667Y-20663476D02*
X13571667Y-20701571D01*
X13866905Y-20939667D02*
X13857381Y-20930143D01*
X13838333Y-20901571D01*
X13828809Y-20882524D01*
X13819286Y-20853952D01*
X13809762Y-20806333D01*
X13809762Y-20768238D01*
X13819286Y-20720619D01*
X13828809Y-20692048D01*
X13838333Y-20673000D01*
X13857381Y-20644429D01*
X13866905Y-20634905D01*
X14028809Y-20730143D02*
X14028809Y-20863476D01*
X13981190Y-20653952D02*
X13933571Y-20796810D01*
X14057381Y-20796810D01*
X14114524Y-20663476D02*
X14238333Y-20663476D01*
X14171667Y-20739667D01*
X14200238Y-20739667D01*
X14219286Y-20749190D01*
X14228809Y-20758714D01*
X14238333Y-20777762D01*
X14238333Y-20825381D01*
X14228809Y-20844429D01*
X14219286Y-20853952D01*
X14200238Y-20863476D01*
X14143095Y-20863476D01*
X14124048Y-20853952D01*
X14114524Y-20844429D01*
X14476428Y-20863476D02*
X14476428Y-20663476D01*
X14562143Y-20863476D02*
X14562143Y-20758714D01*
X14552619Y-20739667D01*
X14533571Y-20730143D01*
X14505000Y-20730143D01*
X14485952Y-20739667D01*
X14476428Y-20749190D01*
X14685952Y-20863476D02*
X14666905Y-20853952D01*
X14657381Y-20844429D01*
X14647857Y-20825381D01*
X14647857Y-20768238D01*
X14657381Y-20749190D01*
X14666905Y-20739667D01*
X14685952Y-20730143D01*
X14714524Y-20730143D01*
X14733571Y-20739667D01*
X14743095Y-20749190D01*
X14752619Y-20768238D01*
X14752619Y-20825381D01*
X14743095Y-20844429D01*
X14733571Y-20853952D01*
X14714524Y-20863476D01*
X14685952Y-20863476D01*
X14866905Y-20863476D02*
X14847857Y-20853952D01*
X14838333Y-20834905D01*
X14838333Y-20663476D01*
X15019286Y-20853952D02*
X15000238Y-20863476D01*
X14962143Y-20863476D01*
X14943095Y-20853952D01*
X14933571Y-20834905D01*
X14933571Y-20758714D01*
X14943095Y-20739667D01*
X14962143Y-20730143D01*
X15000238Y-20730143D01*
X15019286Y-20739667D01*
X15028809Y-20758714D01*
X15028809Y-20777762D01*
X14933571Y-20796810D01*
X15105000Y-20853952D02*
X15124048Y-20863476D01*
X15162143Y-20863476D01*
X15181190Y-20853952D01*
X15190714Y-20834905D01*
X15190714Y-20825381D01*
X15181190Y-20806333D01*
X15162143Y-20796810D01*
X15133571Y-20796810D01*
X15114524Y-20787286D01*
X15105000Y-20768238D01*
X15105000Y-20758714D01*
X15114524Y-20739667D01*
X15133571Y-20730143D01*
X15162143Y-20730143D01*
X15181190Y-20739667D01*
X15257381Y-20939667D02*
X15266905Y-20930143D01*
X15285952Y-20901571D01*
X15295476Y-20882524D01*
X15305000Y-20853952D01*
X15314524Y-20806333D01*
X15314524Y-20768238D01*
X15305000Y-20720619D01*
X15295476Y-20692048D01*
X15285952Y-20673000D01*
X15266905Y-20644429D01*
X15257381Y-20634905D01*
M02*
