%TF.GenerationSoftware,KiCad,Pcbnew,(6.0.8)*%
%TF.CreationDate,2022-11-05T23:26:06+09:00*%
%TF.ProjectId,CIRCUITOS,43495243-5549-4544-9f53-2e6b69636164,rev?*%
%TF.SameCoordinates,Original*%
%TF.FileFunction,Legend,Top*%
%TF.FilePolarity,Positive*%
%FSLAX46Y46*%
G04 Gerber Fmt 4.6, Leading zero omitted, Abs format (unit mm)*
G04 Created by KiCad (PCBNEW (6.0.8)) date 2022-11-05 23:26:06*
%MOMM*%
%LPD*%
G01*
G04 APERTURE LIST*
%ADD10C,0.450000*%
%ADD11C,0.300000*%
%ADD12C,0.150000*%
%ADD13C,0.120000*%
G04 APERTURE END LIST*
D10*
X128000000Y-172071428D02*
X128142857Y-172214285D01*
X128000000Y-172357142D01*
X127857142Y-172214285D01*
X128000000Y-172071428D01*
X128000000Y-172357142D01*
X128000000Y-170500000D02*
X128142857Y-170642857D01*
X128000000Y-170785714D01*
X127857142Y-170642857D01*
X128000000Y-170500000D01*
X128000000Y-170785714D01*
X129142857Y-173500000D02*
X129285714Y-173357142D01*
X129571428Y-172928571D01*
X129714285Y-172642857D01*
X129857142Y-172214285D01*
X130000000Y-171500000D01*
X130000000Y-170928571D01*
X129857142Y-170214285D01*
X129714285Y-169785714D01*
X129571428Y-169500000D01*
X129285714Y-169071428D01*
X129142857Y-168928571D01*
D11*
X117952380Y-191904761D02*
X117952380Y-193523809D01*
X118047619Y-193714285D01*
X118142857Y-193809523D01*
X118333333Y-193904761D01*
X118714285Y-193904761D01*
X118904761Y-193809523D01*
X119000000Y-193714285D01*
X119095238Y-193523809D01*
X119095238Y-191904761D01*
X120428571Y-191904761D02*
X120809523Y-191904761D01*
X121000000Y-192000000D01*
X121190476Y-192190476D01*
X121285714Y-192571428D01*
X121285714Y-193238095D01*
X121190476Y-193619047D01*
X121000000Y-193809523D01*
X120809523Y-193904761D01*
X120428571Y-193904761D01*
X120238095Y-193809523D01*
X120047619Y-193619047D01*
X119952380Y-193238095D01*
X119952380Y-192571428D01*
X120047619Y-192190476D01*
X120238095Y-192000000D01*
X120428571Y-191904761D01*
X123285714Y-193714285D02*
X123190476Y-193809523D01*
X122904761Y-193904761D01*
X122714285Y-193904761D01*
X122428571Y-193809523D01*
X122238095Y-193619047D01*
X122142857Y-193428571D01*
X122047619Y-193047619D01*
X122047619Y-192761904D01*
X122142857Y-192380952D01*
X122238095Y-192190476D01*
X122428571Y-192000000D01*
X122714285Y-191904761D01*
X122904761Y-191904761D01*
X123190476Y-192000000D01*
X123285714Y-192095238D01*
X123666666Y-194095238D02*
X125190476Y-194095238D01*
X125380952Y-191904761D02*
X126523809Y-191904761D01*
X125952380Y-193904761D02*
X125952380Y-191904761D01*
X127857142Y-192857142D02*
X127190476Y-192857142D01*
X127190476Y-193904761D02*
X127190476Y-191904761D01*
X128142857Y-191904761D01*
X129952380Y-192000000D02*
X129761904Y-191904761D01*
X129476190Y-191904761D01*
X129190476Y-192000000D01*
X129000000Y-192190476D01*
X128904761Y-192380952D01*
X128809523Y-192761904D01*
X128809523Y-193047619D01*
X128904761Y-193428571D01*
X129000000Y-193619047D01*
X129190476Y-193809523D01*
X129476190Y-193904761D01*
X129666666Y-193904761D01*
X129952380Y-193809523D01*
X130047619Y-193714285D01*
X130047619Y-193047619D01*
X129666666Y-193047619D01*
X130428571Y-194095238D02*
X131952380Y-194095238D01*
X132428571Y-193904761D02*
X132428571Y-191904761D01*
X133190476Y-191904761D01*
X133380952Y-192000000D01*
X133476190Y-192095238D01*
X133571428Y-192285714D01*
X133571428Y-192571428D01*
X133476190Y-192761904D01*
X133380952Y-192857142D01*
X133190476Y-192952380D01*
X132428571Y-192952380D01*
X134333333Y-193333333D02*
X135285714Y-193333333D01*
X134142857Y-193904761D02*
X134809523Y-191904761D01*
X135476190Y-193904761D01*
X136809523Y-192857142D02*
X137095238Y-192952380D01*
X137190476Y-193047619D01*
X137285714Y-193238095D01*
X137285714Y-193523809D01*
X137190476Y-193714285D01*
X137095238Y-193809523D01*
X136904761Y-193904761D01*
X136142857Y-193904761D01*
X136142857Y-191904761D01*
X136809523Y-191904761D01*
X137000000Y-192000000D01*
X137095238Y-192095238D01*
X137190476Y-192285714D01*
X137190476Y-192476190D01*
X137095238Y-192666666D01*
X137000000Y-192761904D01*
X136809523Y-192857142D01*
X136142857Y-192857142D01*
X138809523Y-192857142D02*
X138142857Y-192857142D01*
X138142857Y-193904761D02*
X138142857Y-191904761D01*
X139095238Y-191904761D01*
X139380952Y-194095238D02*
X140904761Y-194095238D01*
X141095238Y-191904761D02*
X141761904Y-193904761D01*
X142428571Y-191904761D01*
X143476190Y-191904761D02*
X143666666Y-191904761D01*
X143857142Y-192000000D01*
X143952380Y-192095238D01*
X144047619Y-192285714D01*
X144142857Y-192666666D01*
X144142857Y-193142857D01*
X144047619Y-193523809D01*
X143952380Y-193714285D01*
X143857142Y-193809523D01*
X143666666Y-193904761D01*
X143476190Y-193904761D01*
X143285714Y-193809523D01*
X143190476Y-193714285D01*
X143095238Y-193523809D01*
X143000000Y-193142857D01*
X143000000Y-192666666D01*
X143095238Y-192285714D01*
X143190476Y-192095238D01*
X143285714Y-192000000D01*
X143476190Y-191904761D01*
D12*
%TO.C,R90*%
X134357142Y-113652380D02*
X134023809Y-113176190D01*
X133785714Y-113652380D02*
X133785714Y-112652380D01*
X134166666Y-112652380D01*
X134261904Y-112700000D01*
X134309523Y-112747619D01*
X134357142Y-112842857D01*
X134357142Y-112985714D01*
X134309523Y-113080952D01*
X134261904Y-113128571D01*
X134166666Y-113176190D01*
X133785714Y-113176190D01*
X134833333Y-113652380D02*
X135023809Y-113652380D01*
X135119047Y-113604761D01*
X135166666Y-113557142D01*
X135261904Y-113414285D01*
X135309523Y-113223809D01*
X135309523Y-112842857D01*
X135261904Y-112747619D01*
X135214285Y-112700000D01*
X135119047Y-112652380D01*
X134928571Y-112652380D01*
X134833333Y-112700000D01*
X134785714Y-112747619D01*
X134738095Y-112842857D01*
X134738095Y-113080952D01*
X134785714Y-113176190D01*
X134833333Y-113223809D01*
X134928571Y-113271428D01*
X135119047Y-113271428D01*
X135214285Y-113223809D01*
X135261904Y-113176190D01*
X135309523Y-113080952D01*
X135928571Y-112652380D02*
X136023809Y-112652380D01*
X136119047Y-112700000D01*
X136166666Y-112747619D01*
X136214285Y-112842857D01*
X136261904Y-113033333D01*
X136261904Y-113271428D01*
X136214285Y-113461904D01*
X136166666Y-113557142D01*
X136119047Y-113604761D01*
X136023809Y-113652380D01*
X135928571Y-113652380D01*
X135833333Y-113604761D01*
X135785714Y-113557142D01*
X135738095Y-113461904D01*
X135690476Y-113271428D01*
X135690476Y-113033333D01*
X135738095Y-112842857D01*
X135785714Y-112747619D01*
X135833333Y-112700000D01*
X135928571Y-112652380D01*
%TO.C,R89*%
X122357142Y-127452380D02*
X122023809Y-126976190D01*
X121785714Y-127452380D02*
X121785714Y-126452380D01*
X122166666Y-126452380D01*
X122261904Y-126500000D01*
X122309523Y-126547619D01*
X122357142Y-126642857D01*
X122357142Y-126785714D01*
X122309523Y-126880952D01*
X122261904Y-126928571D01*
X122166666Y-126976190D01*
X121785714Y-126976190D01*
X122928571Y-126880952D02*
X122833333Y-126833333D01*
X122785714Y-126785714D01*
X122738095Y-126690476D01*
X122738095Y-126642857D01*
X122785714Y-126547619D01*
X122833333Y-126500000D01*
X122928571Y-126452380D01*
X123119047Y-126452380D01*
X123214285Y-126500000D01*
X123261904Y-126547619D01*
X123309523Y-126642857D01*
X123309523Y-126690476D01*
X123261904Y-126785714D01*
X123214285Y-126833333D01*
X123119047Y-126880952D01*
X122928571Y-126880952D01*
X122833333Y-126928571D01*
X122785714Y-126976190D01*
X122738095Y-127071428D01*
X122738095Y-127261904D01*
X122785714Y-127357142D01*
X122833333Y-127404761D01*
X122928571Y-127452380D01*
X123119047Y-127452380D01*
X123214285Y-127404761D01*
X123261904Y-127357142D01*
X123309523Y-127261904D01*
X123309523Y-127071428D01*
X123261904Y-126976190D01*
X123214285Y-126928571D01*
X123119047Y-126880952D01*
X123785714Y-127452380D02*
X123976190Y-127452380D01*
X124071428Y-127404761D01*
X124119047Y-127357142D01*
X124214285Y-127214285D01*
X124261904Y-127023809D01*
X124261904Y-126642857D01*
X124214285Y-126547619D01*
X124166666Y-126500000D01*
X124071428Y-126452380D01*
X123880952Y-126452380D01*
X123785714Y-126500000D01*
X123738095Y-126547619D01*
X123690476Y-126642857D01*
X123690476Y-126880952D01*
X123738095Y-126976190D01*
X123785714Y-127023809D01*
X123880952Y-127071428D01*
X124071428Y-127071428D01*
X124166666Y-127023809D01*
X124214285Y-126976190D01*
X124261904Y-126880952D01*
%TO.C,R87*%
X146357142Y-102452380D02*
X146023809Y-101976190D01*
X145785714Y-102452380D02*
X145785714Y-101452380D01*
X146166666Y-101452380D01*
X146261904Y-101500000D01*
X146309523Y-101547619D01*
X146357142Y-101642857D01*
X146357142Y-101785714D01*
X146309523Y-101880952D01*
X146261904Y-101928571D01*
X146166666Y-101976190D01*
X145785714Y-101976190D01*
X146928571Y-101880952D02*
X146833333Y-101833333D01*
X146785714Y-101785714D01*
X146738095Y-101690476D01*
X146738095Y-101642857D01*
X146785714Y-101547619D01*
X146833333Y-101500000D01*
X146928571Y-101452380D01*
X147119047Y-101452380D01*
X147214285Y-101500000D01*
X147261904Y-101547619D01*
X147309523Y-101642857D01*
X147309523Y-101690476D01*
X147261904Y-101785714D01*
X147214285Y-101833333D01*
X147119047Y-101880952D01*
X146928571Y-101880952D01*
X146833333Y-101928571D01*
X146785714Y-101976190D01*
X146738095Y-102071428D01*
X146738095Y-102261904D01*
X146785714Y-102357142D01*
X146833333Y-102404761D01*
X146928571Y-102452380D01*
X147119047Y-102452380D01*
X147214285Y-102404761D01*
X147261904Y-102357142D01*
X147309523Y-102261904D01*
X147309523Y-102071428D01*
X147261904Y-101976190D01*
X147214285Y-101928571D01*
X147119047Y-101880952D01*
X147642857Y-101452380D02*
X148309523Y-101452380D01*
X147880952Y-102452380D01*
%TO.C,R86*%
X117357142Y-116452380D02*
X117023809Y-115976190D01*
X116785714Y-116452380D02*
X116785714Y-115452380D01*
X117166666Y-115452380D01*
X117261904Y-115500000D01*
X117309523Y-115547619D01*
X117357142Y-115642857D01*
X117357142Y-115785714D01*
X117309523Y-115880952D01*
X117261904Y-115928571D01*
X117166666Y-115976190D01*
X116785714Y-115976190D01*
X117928571Y-115880952D02*
X117833333Y-115833333D01*
X117785714Y-115785714D01*
X117738095Y-115690476D01*
X117738095Y-115642857D01*
X117785714Y-115547619D01*
X117833333Y-115500000D01*
X117928571Y-115452380D01*
X118119047Y-115452380D01*
X118214285Y-115500000D01*
X118261904Y-115547619D01*
X118309523Y-115642857D01*
X118309523Y-115690476D01*
X118261904Y-115785714D01*
X118214285Y-115833333D01*
X118119047Y-115880952D01*
X117928571Y-115880952D01*
X117833333Y-115928571D01*
X117785714Y-115976190D01*
X117738095Y-116071428D01*
X117738095Y-116261904D01*
X117785714Y-116357142D01*
X117833333Y-116404761D01*
X117928571Y-116452380D01*
X118119047Y-116452380D01*
X118214285Y-116404761D01*
X118261904Y-116357142D01*
X118309523Y-116261904D01*
X118309523Y-116071428D01*
X118261904Y-115976190D01*
X118214285Y-115928571D01*
X118119047Y-115880952D01*
X119166666Y-115452380D02*
X118976190Y-115452380D01*
X118880952Y-115500000D01*
X118833333Y-115547619D01*
X118738095Y-115690476D01*
X118690476Y-115880952D01*
X118690476Y-116261904D01*
X118738095Y-116357142D01*
X118785714Y-116404761D01*
X118880952Y-116452380D01*
X119071428Y-116452380D01*
X119166666Y-116404761D01*
X119214285Y-116357142D01*
X119261904Y-116261904D01*
X119261904Y-116023809D01*
X119214285Y-115928571D01*
X119166666Y-115880952D01*
X119071428Y-115833333D01*
X118880952Y-115833333D01*
X118785714Y-115880952D01*
X118738095Y-115928571D01*
X118690476Y-116023809D01*
%TO.C,R85*%
X146357142Y-108152380D02*
X146023809Y-107676190D01*
X145785714Y-108152380D02*
X145785714Y-107152380D01*
X146166666Y-107152380D01*
X146261904Y-107200000D01*
X146309523Y-107247619D01*
X146357142Y-107342857D01*
X146357142Y-107485714D01*
X146309523Y-107580952D01*
X146261904Y-107628571D01*
X146166666Y-107676190D01*
X145785714Y-107676190D01*
X146928571Y-107580952D02*
X146833333Y-107533333D01*
X146785714Y-107485714D01*
X146738095Y-107390476D01*
X146738095Y-107342857D01*
X146785714Y-107247619D01*
X146833333Y-107200000D01*
X146928571Y-107152380D01*
X147119047Y-107152380D01*
X147214285Y-107200000D01*
X147261904Y-107247619D01*
X147309523Y-107342857D01*
X147309523Y-107390476D01*
X147261904Y-107485714D01*
X147214285Y-107533333D01*
X147119047Y-107580952D01*
X146928571Y-107580952D01*
X146833333Y-107628571D01*
X146785714Y-107676190D01*
X146738095Y-107771428D01*
X146738095Y-107961904D01*
X146785714Y-108057142D01*
X146833333Y-108104761D01*
X146928571Y-108152380D01*
X147119047Y-108152380D01*
X147214285Y-108104761D01*
X147261904Y-108057142D01*
X147309523Y-107961904D01*
X147309523Y-107771428D01*
X147261904Y-107676190D01*
X147214285Y-107628571D01*
X147119047Y-107580952D01*
X148214285Y-107152380D02*
X147738095Y-107152380D01*
X147690476Y-107628571D01*
X147738095Y-107580952D01*
X147833333Y-107533333D01*
X148071428Y-107533333D01*
X148166666Y-107580952D01*
X148214285Y-107628571D01*
X148261904Y-107723809D01*
X148261904Y-107961904D01*
X148214285Y-108057142D01*
X148166666Y-108104761D01*
X148071428Y-108152380D01*
X147833333Y-108152380D01*
X147738095Y-108104761D01*
X147690476Y-108057142D01*
%TO.C,R84*%
X146127142Y-105402380D02*
X145793809Y-104926190D01*
X145555714Y-105402380D02*
X145555714Y-104402380D01*
X145936666Y-104402380D01*
X146031904Y-104450000D01*
X146079523Y-104497619D01*
X146127142Y-104592857D01*
X146127142Y-104735714D01*
X146079523Y-104830952D01*
X146031904Y-104878571D01*
X145936666Y-104926190D01*
X145555714Y-104926190D01*
X146698571Y-104830952D02*
X146603333Y-104783333D01*
X146555714Y-104735714D01*
X146508095Y-104640476D01*
X146508095Y-104592857D01*
X146555714Y-104497619D01*
X146603333Y-104450000D01*
X146698571Y-104402380D01*
X146889047Y-104402380D01*
X146984285Y-104450000D01*
X147031904Y-104497619D01*
X147079523Y-104592857D01*
X147079523Y-104640476D01*
X147031904Y-104735714D01*
X146984285Y-104783333D01*
X146889047Y-104830952D01*
X146698571Y-104830952D01*
X146603333Y-104878571D01*
X146555714Y-104926190D01*
X146508095Y-105021428D01*
X146508095Y-105211904D01*
X146555714Y-105307142D01*
X146603333Y-105354761D01*
X146698571Y-105402380D01*
X146889047Y-105402380D01*
X146984285Y-105354761D01*
X147031904Y-105307142D01*
X147079523Y-105211904D01*
X147079523Y-105021428D01*
X147031904Y-104926190D01*
X146984285Y-104878571D01*
X146889047Y-104830952D01*
X147936666Y-104735714D02*
X147936666Y-105402380D01*
X147698571Y-104354761D02*
X147460476Y-105069047D01*
X148079523Y-105069047D01*
%TO.C,R83*%
X122277142Y-136452380D02*
X121943809Y-135976190D01*
X121705714Y-136452380D02*
X121705714Y-135452380D01*
X122086666Y-135452380D01*
X122181904Y-135500000D01*
X122229523Y-135547619D01*
X122277142Y-135642857D01*
X122277142Y-135785714D01*
X122229523Y-135880952D01*
X122181904Y-135928571D01*
X122086666Y-135976190D01*
X121705714Y-135976190D01*
X122848571Y-135880952D02*
X122753333Y-135833333D01*
X122705714Y-135785714D01*
X122658095Y-135690476D01*
X122658095Y-135642857D01*
X122705714Y-135547619D01*
X122753333Y-135500000D01*
X122848571Y-135452380D01*
X123039047Y-135452380D01*
X123134285Y-135500000D01*
X123181904Y-135547619D01*
X123229523Y-135642857D01*
X123229523Y-135690476D01*
X123181904Y-135785714D01*
X123134285Y-135833333D01*
X123039047Y-135880952D01*
X122848571Y-135880952D01*
X122753333Y-135928571D01*
X122705714Y-135976190D01*
X122658095Y-136071428D01*
X122658095Y-136261904D01*
X122705714Y-136357142D01*
X122753333Y-136404761D01*
X122848571Y-136452380D01*
X123039047Y-136452380D01*
X123134285Y-136404761D01*
X123181904Y-136357142D01*
X123229523Y-136261904D01*
X123229523Y-136071428D01*
X123181904Y-135976190D01*
X123134285Y-135928571D01*
X123039047Y-135880952D01*
X123562857Y-135452380D02*
X124181904Y-135452380D01*
X123848571Y-135833333D01*
X123991428Y-135833333D01*
X124086666Y-135880952D01*
X124134285Y-135928571D01*
X124181904Y-136023809D01*
X124181904Y-136261904D01*
X124134285Y-136357142D01*
X124086666Y-136404761D01*
X123991428Y-136452380D01*
X123705714Y-136452380D01*
X123610476Y-136404761D01*
X123562857Y-136357142D01*
%TO.C,R82*%
X144452380Y-142642857D02*
X143976190Y-142976190D01*
X144452380Y-143214285D02*
X143452380Y-143214285D01*
X143452380Y-142833333D01*
X143500000Y-142738095D01*
X143547619Y-142690476D01*
X143642857Y-142642857D01*
X143785714Y-142642857D01*
X143880952Y-142690476D01*
X143928571Y-142738095D01*
X143976190Y-142833333D01*
X143976190Y-143214285D01*
X143880952Y-142071428D02*
X143833333Y-142166666D01*
X143785714Y-142214285D01*
X143690476Y-142261904D01*
X143642857Y-142261904D01*
X143547619Y-142214285D01*
X143500000Y-142166666D01*
X143452380Y-142071428D01*
X143452380Y-141880952D01*
X143500000Y-141785714D01*
X143547619Y-141738095D01*
X143642857Y-141690476D01*
X143690476Y-141690476D01*
X143785714Y-141738095D01*
X143833333Y-141785714D01*
X143880952Y-141880952D01*
X143880952Y-142071428D01*
X143928571Y-142166666D01*
X143976190Y-142214285D01*
X144071428Y-142261904D01*
X144261904Y-142261904D01*
X144357142Y-142214285D01*
X144404761Y-142166666D01*
X144452380Y-142071428D01*
X144452380Y-141880952D01*
X144404761Y-141785714D01*
X144357142Y-141738095D01*
X144261904Y-141690476D01*
X144071428Y-141690476D01*
X143976190Y-141738095D01*
X143928571Y-141785714D01*
X143880952Y-141880952D01*
X143547619Y-141309523D02*
X143500000Y-141261904D01*
X143452380Y-141166666D01*
X143452380Y-140928571D01*
X143500000Y-140833333D01*
X143547619Y-140785714D01*
X143642857Y-140738095D01*
X143738095Y-140738095D01*
X143880952Y-140785714D01*
X144452380Y-141357142D01*
X144452380Y-140738095D01*
%TO.C,R81*%
X122357142Y-130452380D02*
X122023809Y-129976190D01*
X121785714Y-130452380D02*
X121785714Y-129452380D01*
X122166666Y-129452380D01*
X122261904Y-129500000D01*
X122309523Y-129547619D01*
X122357142Y-129642857D01*
X122357142Y-129785714D01*
X122309523Y-129880952D01*
X122261904Y-129928571D01*
X122166666Y-129976190D01*
X121785714Y-129976190D01*
X122928571Y-129880952D02*
X122833333Y-129833333D01*
X122785714Y-129785714D01*
X122738095Y-129690476D01*
X122738095Y-129642857D01*
X122785714Y-129547619D01*
X122833333Y-129500000D01*
X122928571Y-129452380D01*
X123119047Y-129452380D01*
X123214285Y-129500000D01*
X123261904Y-129547619D01*
X123309523Y-129642857D01*
X123309523Y-129690476D01*
X123261904Y-129785714D01*
X123214285Y-129833333D01*
X123119047Y-129880952D01*
X122928571Y-129880952D01*
X122833333Y-129928571D01*
X122785714Y-129976190D01*
X122738095Y-130071428D01*
X122738095Y-130261904D01*
X122785714Y-130357142D01*
X122833333Y-130404761D01*
X122928571Y-130452380D01*
X123119047Y-130452380D01*
X123214285Y-130404761D01*
X123261904Y-130357142D01*
X123309523Y-130261904D01*
X123309523Y-130071428D01*
X123261904Y-129976190D01*
X123214285Y-129928571D01*
X123119047Y-129880952D01*
X124261904Y-130452380D02*
X123690476Y-130452380D01*
X123976190Y-130452380D02*
X123976190Y-129452380D01*
X123880952Y-129595238D01*
X123785714Y-129690476D01*
X123690476Y-129738095D01*
%TO.C,R80*%
X122357142Y-133452380D02*
X122023809Y-132976190D01*
X121785714Y-133452380D02*
X121785714Y-132452380D01*
X122166666Y-132452380D01*
X122261904Y-132500000D01*
X122309523Y-132547619D01*
X122357142Y-132642857D01*
X122357142Y-132785714D01*
X122309523Y-132880952D01*
X122261904Y-132928571D01*
X122166666Y-132976190D01*
X121785714Y-132976190D01*
X122928571Y-132880952D02*
X122833333Y-132833333D01*
X122785714Y-132785714D01*
X122738095Y-132690476D01*
X122738095Y-132642857D01*
X122785714Y-132547619D01*
X122833333Y-132500000D01*
X122928571Y-132452380D01*
X123119047Y-132452380D01*
X123214285Y-132500000D01*
X123261904Y-132547619D01*
X123309523Y-132642857D01*
X123309523Y-132690476D01*
X123261904Y-132785714D01*
X123214285Y-132833333D01*
X123119047Y-132880952D01*
X122928571Y-132880952D01*
X122833333Y-132928571D01*
X122785714Y-132976190D01*
X122738095Y-133071428D01*
X122738095Y-133261904D01*
X122785714Y-133357142D01*
X122833333Y-133404761D01*
X122928571Y-133452380D01*
X123119047Y-133452380D01*
X123214285Y-133404761D01*
X123261904Y-133357142D01*
X123309523Y-133261904D01*
X123309523Y-133071428D01*
X123261904Y-132976190D01*
X123214285Y-132928571D01*
X123119047Y-132880952D01*
X123928571Y-132452380D02*
X124023809Y-132452380D01*
X124119047Y-132500000D01*
X124166666Y-132547619D01*
X124214285Y-132642857D01*
X124261904Y-132833333D01*
X124261904Y-133071428D01*
X124214285Y-133261904D01*
X124166666Y-133357142D01*
X124119047Y-133404761D01*
X124023809Y-133452380D01*
X123928571Y-133452380D01*
X123833333Y-133404761D01*
X123785714Y-133357142D01*
X123738095Y-133261904D01*
X123690476Y-133071428D01*
X123690476Y-132833333D01*
X123738095Y-132642857D01*
X123785714Y-132547619D01*
X123833333Y-132500000D01*
X123928571Y-132452380D01*
%TO.C,R79*%
X122277142Y-124452380D02*
X121943809Y-123976190D01*
X121705714Y-124452380D02*
X121705714Y-123452380D01*
X122086666Y-123452380D01*
X122181904Y-123500000D01*
X122229523Y-123547619D01*
X122277142Y-123642857D01*
X122277142Y-123785714D01*
X122229523Y-123880952D01*
X122181904Y-123928571D01*
X122086666Y-123976190D01*
X121705714Y-123976190D01*
X122610476Y-123452380D02*
X123277142Y-123452380D01*
X122848571Y-124452380D01*
X123705714Y-124452380D02*
X123896190Y-124452380D01*
X123991428Y-124404761D01*
X124039047Y-124357142D01*
X124134285Y-124214285D01*
X124181904Y-124023809D01*
X124181904Y-123642857D01*
X124134285Y-123547619D01*
X124086666Y-123500000D01*
X123991428Y-123452380D01*
X123800952Y-123452380D01*
X123705714Y-123500000D01*
X123658095Y-123547619D01*
X123610476Y-123642857D01*
X123610476Y-123880952D01*
X123658095Y-123976190D01*
X123705714Y-124023809D01*
X123800952Y-124071428D01*
X123991428Y-124071428D01*
X124086666Y-124023809D01*
X124134285Y-123976190D01*
X124181904Y-123880952D01*
%TO.C,R78*%
X122357142Y-121452380D02*
X122023809Y-120976190D01*
X121785714Y-121452380D02*
X121785714Y-120452380D01*
X122166666Y-120452380D01*
X122261904Y-120500000D01*
X122309523Y-120547619D01*
X122357142Y-120642857D01*
X122357142Y-120785714D01*
X122309523Y-120880952D01*
X122261904Y-120928571D01*
X122166666Y-120976190D01*
X121785714Y-120976190D01*
X122690476Y-120452380D02*
X123357142Y-120452380D01*
X122928571Y-121452380D01*
X123880952Y-120880952D02*
X123785714Y-120833333D01*
X123738095Y-120785714D01*
X123690476Y-120690476D01*
X123690476Y-120642857D01*
X123738095Y-120547619D01*
X123785714Y-120500000D01*
X123880952Y-120452380D01*
X124071428Y-120452380D01*
X124166666Y-120500000D01*
X124214285Y-120547619D01*
X124261904Y-120642857D01*
X124261904Y-120690476D01*
X124214285Y-120785714D01*
X124166666Y-120833333D01*
X124071428Y-120880952D01*
X123880952Y-120880952D01*
X123785714Y-120928571D01*
X123738095Y-120976190D01*
X123690476Y-121071428D01*
X123690476Y-121261904D01*
X123738095Y-121357142D01*
X123785714Y-121404761D01*
X123880952Y-121452380D01*
X124071428Y-121452380D01*
X124166666Y-121404761D01*
X124214285Y-121357142D01*
X124261904Y-121261904D01*
X124261904Y-121071428D01*
X124214285Y-120976190D01*
X124166666Y-120928571D01*
X124071428Y-120880952D01*
%TO.C,R77*%
X143057142Y-116452380D02*
X142723809Y-115976190D01*
X142485714Y-116452380D02*
X142485714Y-115452380D01*
X142866666Y-115452380D01*
X142961904Y-115500000D01*
X143009523Y-115547619D01*
X143057142Y-115642857D01*
X143057142Y-115785714D01*
X143009523Y-115880952D01*
X142961904Y-115928571D01*
X142866666Y-115976190D01*
X142485714Y-115976190D01*
X143390476Y-115452380D02*
X144057142Y-115452380D01*
X143628571Y-116452380D01*
X144342857Y-115452380D02*
X145009523Y-115452380D01*
X144580952Y-116452380D01*
%TO.C,R76*%
X144402380Y-129642857D02*
X143926190Y-129976190D01*
X144402380Y-130214285D02*
X143402380Y-130214285D01*
X143402380Y-129833333D01*
X143450000Y-129738095D01*
X143497619Y-129690476D01*
X143592857Y-129642857D01*
X143735714Y-129642857D01*
X143830952Y-129690476D01*
X143878571Y-129738095D01*
X143926190Y-129833333D01*
X143926190Y-130214285D01*
X143402380Y-129309523D02*
X143402380Y-128642857D01*
X144402380Y-129071428D01*
X143402380Y-127833333D02*
X143402380Y-128023809D01*
X143450000Y-128119047D01*
X143497619Y-128166666D01*
X143640476Y-128261904D01*
X143830952Y-128309523D01*
X144211904Y-128309523D01*
X144307142Y-128261904D01*
X144354761Y-128214285D01*
X144402380Y-128119047D01*
X144402380Y-127928571D01*
X144354761Y-127833333D01*
X144307142Y-127785714D01*
X144211904Y-127738095D01*
X143973809Y-127738095D01*
X143878571Y-127785714D01*
X143830952Y-127833333D01*
X143783333Y-127928571D01*
X143783333Y-128119047D01*
X143830952Y-128214285D01*
X143878571Y-128261904D01*
X143973809Y-128309523D01*
%TO.C,R69*%
X117357142Y-108452380D02*
X117023809Y-107976190D01*
X116785714Y-108452380D02*
X116785714Y-107452380D01*
X117166666Y-107452380D01*
X117261904Y-107500000D01*
X117309523Y-107547619D01*
X117357142Y-107642857D01*
X117357142Y-107785714D01*
X117309523Y-107880952D01*
X117261904Y-107928571D01*
X117166666Y-107976190D01*
X116785714Y-107976190D01*
X118214285Y-107452380D02*
X118023809Y-107452380D01*
X117928571Y-107500000D01*
X117880952Y-107547619D01*
X117785714Y-107690476D01*
X117738095Y-107880952D01*
X117738095Y-108261904D01*
X117785714Y-108357142D01*
X117833333Y-108404761D01*
X117928571Y-108452380D01*
X118119047Y-108452380D01*
X118214285Y-108404761D01*
X118261904Y-108357142D01*
X118309523Y-108261904D01*
X118309523Y-108023809D01*
X118261904Y-107928571D01*
X118214285Y-107880952D01*
X118119047Y-107833333D01*
X117928571Y-107833333D01*
X117833333Y-107880952D01*
X117785714Y-107928571D01*
X117738095Y-108023809D01*
X118785714Y-108452380D02*
X118976190Y-108452380D01*
X119071428Y-108404761D01*
X119119047Y-108357142D01*
X119214285Y-108214285D01*
X119261904Y-108023809D01*
X119261904Y-107642857D01*
X119214285Y-107547619D01*
X119166666Y-107500000D01*
X119071428Y-107452380D01*
X118880952Y-107452380D01*
X118785714Y-107500000D01*
X118738095Y-107547619D01*
X118690476Y-107642857D01*
X118690476Y-107880952D01*
X118738095Y-107976190D01*
X118785714Y-108023809D01*
X118880952Y-108071428D01*
X119071428Y-108071428D01*
X119166666Y-108023809D01*
X119214285Y-107976190D01*
X119261904Y-107880952D01*
%TO.C,R67*%
X122437142Y-38452380D02*
X122103809Y-37976190D01*
X121865714Y-38452380D02*
X121865714Y-37452380D01*
X122246666Y-37452380D01*
X122341904Y-37500000D01*
X122389523Y-37547619D01*
X122437142Y-37642857D01*
X122437142Y-37785714D01*
X122389523Y-37880952D01*
X122341904Y-37928571D01*
X122246666Y-37976190D01*
X121865714Y-37976190D01*
X123294285Y-37452380D02*
X123103809Y-37452380D01*
X123008571Y-37500000D01*
X122960952Y-37547619D01*
X122865714Y-37690476D01*
X122818095Y-37880952D01*
X122818095Y-38261904D01*
X122865714Y-38357142D01*
X122913333Y-38404761D01*
X123008571Y-38452380D01*
X123199047Y-38452380D01*
X123294285Y-38404761D01*
X123341904Y-38357142D01*
X123389523Y-38261904D01*
X123389523Y-38023809D01*
X123341904Y-37928571D01*
X123294285Y-37880952D01*
X123199047Y-37833333D01*
X123008571Y-37833333D01*
X122913333Y-37880952D01*
X122865714Y-37928571D01*
X122818095Y-38023809D01*
X123722857Y-37452380D02*
X124389523Y-37452380D01*
X123960952Y-38452380D01*
%TO.C,R64*%
X122357142Y-31452380D02*
X122023809Y-30976190D01*
X121785714Y-31452380D02*
X121785714Y-30452380D01*
X122166666Y-30452380D01*
X122261904Y-30500000D01*
X122309523Y-30547619D01*
X122357142Y-30642857D01*
X122357142Y-30785714D01*
X122309523Y-30880952D01*
X122261904Y-30928571D01*
X122166666Y-30976190D01*
X121785714Y-30976190D01*
X123214285Y-30452380D02*
X123023809Y-30452380D01*
X122928571Y-30500000D01*
X122880952Y-30547619D01*
X122785714Y-30690476D01*
X122738095Y-30880952D01*
X122738095Y-31261904D01*
X122785714Y-31357142D01*
X122833333Y-31404761D01*
X122928571Y-31452380D01*
X123119047Y-31452380D01*
X123214285Y-31404761D01*
X123261904Y-31357142D01*
X123309523Y-31261904D01*
X123309523Y-31023809D01*
X123261904Y-30928571D01*
X123214285Y-30880952D01*
X123119047Y-30833333D01*
X122928571Y-30833333D01*
X122833333Y-30880952D01*
X122785714Y-30928571D01*
X122738095Y-31023809D01*
X124166666Y-30785714D02*
X124166666Y-31452380D01*
X123928571Y-30404761D02*
X123690476Y-31119047D01*
X124309523Y-31119047D01*
%TO.C,R62*%
X133357142Y-28602380D02*
X133023809Y-28126190D01*
X132785714Y-28602380D02*
X132785714Y-27602380D01*
X133166666Y-27602380D01*
X133261904Y-27650000D01*
X133309523Y-27697619D01*
X133357142Y-27792857D01*
X133357142Y-27935714D01*
X133309523Y-28030952D01*
X133261904Y-28078571D01*
X133166666Y-28126190D01*
X132785714Y-28126190D01*
X134214285Y-27602380D02*
X134023809Y-27602380D01*
X133928571Y-27650000D01*
X133880952Y-27697619D01*
X133785714Y-27840476D01*
X133738095Y-28030952D01*
X133738095Y-28411904D01*
X133785714Y-28507142D01*
X133833333Y-28554761D01*
X133928571Y-28602380D01*
X134119047Y-28602380D01*
X134214285Y-28554761D01*
X134261904Y-28507142D01*
X134309523Y-28411904D01*
X134309523Y-28173809D01*
X134261904Y-28078571D01*
X134214285Y-28030952D01*
X134119047Y-27983333D01*
X133928571Y-27983333D01*
X133833333Y-28030952D01*
X133785714Y-28078571D01*
X133738095Y-28173809D01*
X134690476Y-27697619D02*
X134738095Y-27650000D01*
X134833333Y-27602380D01*
X135071428Y-27602380D01*
X135166666Y-27650000D01*
X135214285Y-27697619D01*
X135261904Y-27792857D01*
X135261904Y-27888095D01*
X135214285Y-28030952D01*
X134642857Y-28602380D01*
X135261904Y-28602380D01*
%TO.C,R61*%
X120357142Y-82702380D02*
X120023809Y-82226190D01*
X119785714Y-82702380D02*
X119785714Y-81702380D01*
X120166666Y-81702380D01*
X120261904Y-81750000D01*
X120309523Y-81797619D01*
X120357142Y-81892857D01*
X120357142Y-82035714D01*
X120309523Y-82130952D01*
X120261904Y-82178571D01*
X120166666Y-82226190D01*
X119785714Y-82226190D01*
X121214285Y-81702380D02*
X121023809Y-81702380D01*
X120928571Y-81750000D01*
X120880952Y-81797619D01*
X120785714Y-81940476D01*
X120738095Y-82130952D01*
X120738095Y-82511904D01*
X120785714Y-82607142D01*
X120833333Y-82654761D01*
X120928571Y-82702380D01*
X121119047Y-82702380D01*
X121214285Y-82654761D01*
X121261904Y-82607142D01*
X121309523Y-82511904D01*
X121309523Y-82273809D01*
X121261904Y-82178571D01*
X121214285Y-82130952D01*
X121119047Y-82083333D01*
X120928571Y-82083333D01*
X120833333Y-82130952D01*
X120785714Y-82178571D01*
X120738095Y-82273809D01*
X122261904Y-82702380D02*
X121690476Y-82702380D01*
X121976190Y-82702380D02*
X121976190Y-81702380D01*
X121880952Y-81845238D01*
X121785714Y-81940476D01*
X121690476Y-81988095D01*
%TO.C,R60*%
X111052380Y-43642857D02*
X110576190Y-43976190D01*
X111052380Y-44214285D02*
X110052380Y-44214285D01*
X110052380Y-43833333D01*
X110100000Y-43738095D01*
X110147619Y-43690476D01*
X110242857Y-43642857D01*
X110385714Y-43642857D01*
X110480952Y-43690476D01*
X110528571Y-43738095D01*
X110576190Y-43833333D01*
X110576190Y-44214285D01*
X110052380Y-42785714D02*
X110052380Y-42976190D01*
X110100000Y-43071428D01*
X110147619Y-43119047D01*
X110290476Y-43214285D01*
X110480952Y-43261904D01*
X110861904Y-43261904D01*
X110957142Y-43214285D01*
X111004761Y-43166666D01*
X111052380Y-43071428D01*
X111052380Y-42880952D01*
X111004761Y-42785714D01*
X110957142Y-42738095D01*
X110861904Y-42690476D01*
X110623809Y-42690476D01*
X110528571Y-42738095D01*
X110480952Y-42785714D01*
X110433333Y-42880952D01*
X110433333Y-43071428D01*
X110480952Y-43166666D01*
X110528571Y-43214285D01*
X110623809Y-43261904D01*
X110052380Y-42071428D02*
X110052380Y-41976190D01*
X110100000Y-41880952D01*
X110147619Y-41833333D01*
X110242857Y-41785714D01*
X110433333Y-41738095D01*
X110671428Y-41738095D01*
X110861904Y-41785714D01*
X110957142Y-41833333D01*
X111004761Y-41880952D01*
X111052380Y-41976190D01*
X111052380Y-42071428D01*
X111004761Y-42166666D01*
X110957142Y-42214285D01*
X110861904Y-42261904D01*
X110671428Y-42309523D01*
X110433333Y-42309523D01*
X110242857Y-42261904D01*
X110147619Y-42214285D01*
X110100000Y-42166666D01*
X110052380Y-42071428D01*
%TO.C,R59*%
X110452380Y-86642857D02*
X109976190Y-86976190D01*
X110452380Y-87214285D02*
X109452380Y-87214285D01*
X109452380Y-86833333D01*
X109500000Y-86738095D01*
X109547619Y-86690476D01*
X109642857Y-86642857D01*
X109785714Y-86642857D01*
X109880952Y-86690476D01*
X109928571Y-86738095D01*
X109976190Y-86833333D01*
X109976190Y-87214285D01*
X109452380Y-85738095D02*
X109452380Y-86214285D01*
X109928571Y-86261904D01*
X109880952Y-86214285D01*
X109833333Y-86119047D01*
X109833333Y-85880952D01*
X109880952Y-85785714D01*
X109928571Y-85738095D01*
X110023809Y-85690476D01*
X110261904Y-85690476D01*
X110357142Y-85738095D01*
X110404761Y-85785714D01*
X110452380Y-85880952D01*
X110452380Y-86119047D01*
X110404761Y-86214285D01*
X110357142Y-86261904D01*
X110452380Y-85214285D02*
X110452380Y-85023809D01*
X110404761Y-84928571D01*
X110357142Y-84880952D01*
X110214285Y-84785714D01*
X110023809Y-84738095D01*
X109642857Y-84738095D01*
X109547619Y-84785714D01*
X109500000Y-84833333D01*
X109452380Y-84928571D01*
X109452380Y-85119047D01*
X109500000Y-85214285D01*
X109547619Y-85261904D01*
X109642857Y-85309523D01*
X109880952Y-85309523D01*
X109976190Y-85261904D01*
X110023809Y-85214285D01*
X110071428Y-85119047D01*
X110071428Y-84928571D01*
X110023809Y-84833333D01*
X109976190Y-84785714D01*
X109880952Y-84738095D01*
%TO.C,R54*%
X110452380Y-101642857D02*
X109976190Y-101976190D01*
X110452380Y-102214285D02*
X109452380Y-102214285D01*
X109452380Y-101833333D01*
X109500000Y-101738095D01*
X109547619Y-101690476D01*
X109642857Y-101642857D01*
X109785714Y-101642857D01*
X109880952Y-101690476D01*
X109928571Y-101738095D01*
X109976190Y-101833333D01*
X109976190Y-102214285D01*
X109452380Y-100738095D02*
X109452380Y-101214285D01*
X109928571Y-101261904D01*
X109880952Y-101214285D01*
X109833333Y-101119047D01*
X109833333Y-100880952D01*
X109880952Y-100785714D01*
X109928571Y-100738095D01*
X110023809Y-100690476D01*
X110261904Y-100690476D01*
X110357142Y-100738095D01*
X110404761Y-100785714D01*
X110452380Y-100880952D01*
X110452380Y-101119047D01*
X110404761Y-101214285D01*
X110357142Y-101261904D01*
X109785714Y-99833333D02*
X110452380Y-99833333D01*
X109404761Y-100071428D02*
X110119047Y-100309523D01*
X110119047Y-99690476D01*
%TO.C,R53*%
X107452380Y-101642857D02*
X106976190Y-101976190D01*
X107452380Y-102214285D02*
X106452380Y-102214285D01*
X106452380Y-101833333D01*
X106500000Y-101738095D01*
X106547619Y-101690476D01*
X106642857Y-101642857D01*
X106785714Y-101642857D01*
X106880952Y-101690476D01*
X106928571Y-101738095D01*
X106976190Y-101833333D01*
X106976190Y-102214285D01*
X106452380Y-100738095D02*
X106452380Y-101214285D01*
X106928571Y-101261904D01*
X106880952Y-101214285D01*
X106833333Y-101119047D01*
X106833333Y-100880952D01*
X106880952Y-100785714D01*
X106928571Y-100738095D01*
X107023809Y-100690476D01*
X107261904Y-100690476D01*
X107357142Y-100738095D01*
X107404761Y-100785714D01*
X107452380Y-100880952D01*
X107452380Y-101119047D01*
X107404761Y-101214285D01*
X107357142Y-101261904D01*
X106452380Y-100357142D02*
X106452380Y-99738095D01*
X106833333Y-100071428D01*
X106833333Y-99928571D01*
X106880952Y-99833333D01*
X106928571Y-99785714D01*
X107023809Y-99738095D01*
X107261904Y-99738095D01*
X107357142Y-99785714D01*
X107404761Y-99833333D01*
X107452380Y-99928571D01*
X107452380Y-100214285D01*
X107404761Y-100309523D01*
X107357142Y-100357142D01*
%TO.C,R52*%
X122357142Y-35452380D02*
X122023809Y-34976190D01*
X121785714Y-35452380D02*
X121785714Y-34452380D01*
X122166666Y-34452380D01*
X122261904Y-34500000D01*
X122309523Y-34547619D01*
X122357142Y-34642857D01*
X122357142Y-34785714D01*
X122309523Y-34880952D01*
X122261904Y-34928571D01*
X122166666Y-34976190D01*
X121785714Y-34976190D01*
X123261904Y-34452380D02*
X122785714Y-34452380D01*
X122738095Y-34928571D01*
X122785714Y-34880952D01*
X122880952Y-34833333D01*
X123119047Y-34833333D01*
X123214285Y-34880952D01*
X123261904Y-34928571D01*
X123309523Y-35023809D01*
X123309523Y-35261904D01*
X123261904Y-35357142D01*
X123214285Y-35404761D01*
X123119047Y-35452380D01*
X122880952Y-35452380D01*
X122785714Y-35404761D01*
X122738095Y-35357142D01*
X123690476Y-34547619D02*
X123738095Y-34500000D01*
X123833333Y-34452380D01*
X124071428Y-34452380D01*
X124166666Y-34500000D01*
X124214285Y-34547619D01*
X124261904Y-34642857D01*
X124261904Y-34738095D01*
X124214285Y-34880952D01*
X123642857Y-35452380D01*
X124261904Y-35452380D01*
%TO.C,R49*%
X120357142Y-64452380D02*
X120023809Y-63976190D01*
X119785714Y-64452380D02*
X119785714Y-63452380D01*
X120166666Y-63452380D01*
X120261904Y-63500000D01*
X120309523Y-63547619D01*
X120357142Y-63642857D01*
X120357142Y-63785714D01*
X120309523Y-63880952D01*
X120261904Y-63928571D01*
X120166666Y-63976190D01*
X119785714Y-63976190D01*
X121214285Y-63785714D02*
X121214285Y-64452380D01*
X120976190Y-63404761D02*
X120738095Y-64119047D01*
X121357142Y-64119047D01*
X121785714Y-64452380D02*
X121976190Y-64452380D01*
X122071428Y-64404761D01*
X122119047Y-64357142D01*
X122214285Y-64214285D01*
X122261904Y-64023809D01*
X122261904Y-63642857D01*
X122214285Y-63547619D01*
X122166666Y-63500000D01*
X122071428Y-63452380D01*
X121880952Y-63452380D01*
X121785714Y-63500000D01*
X121738095Y-63547619D01*
X121690476Y-63642857D01*
X121690476Y-63880952D01*
X121738095Y-63976190D01*
X121785714Y-64023809D01*
X121880952Y-64071428D01*
X122071428Y-64071428D01*
X122166666Y-64023809D01*
X122214285Y-63976190D01*
X122261904Y-63880952D01*
%TO.C,R48*%
X130357142Y-59452380D02*
X130023809Y-58976190D01*
X129785714Y-59452380D02*
X129785714Y-58452380D01*
X130166666Y-58452380D01*
X130261904Y-58500000D01*
X130309523Y-58547619D01*
X130357142Y-58642857D01*
X130357142Y-58785714D01*
X130309523Y-58880952D01*
X130261904Y-58928571D01*
X130166666Y-58976190D01*
X129785714Y-58976190D01*
X131214285Y-58785714D02*
X131214285Y-59452380D01*
X130976190Y-58404761D02*
X130738095Y-59119047D01*
X131357142Y-59119047D01*
X131880952Y-58880952D02*
X131785714Y-58833333D01*
X131738095Y-58785714D01*
X131690476Y-58690476D01*
X131690476Y-58642857D01*
X131738095Y-58547619D01*
X131785714Y-58500000D01*
X131880952Y-58452380D01*
X132071428Y-58452380D01*
X132166666Y-58500000D01*
X132214285Y-58547619D01*
X132261904Y-58642857D01*
X132261904Y-58690476D01*
X132214285Y-58785714D01*
X132166666Y-58833333D01*
X132071428Y-58880952D01*
X131880952Y-58880952D01*
X131785714Y-58928571D01*
X131738095Y-58976190D01*
X131690476Y-59071428D01*
X131690476Y-59261904D01*
X131738095Y-59357142D01*
X131785714Y-59404761D01*
X131880952Y-59452380D01*
X132071428Y-59452380D01*
X132166666Y-59404761D01*
X132214285Y-59357142D01*
X132261904Y-59261904D01*
X132261904Y-59071428D01*
X132214285Y-58976190D01*
X132166666Y-58928571D01*
X132071428Y-58880952D01*
%TO.C,R46*%
X120357142Y-73452380D02*
X120023809Y-72976190D01*
X119785714Y-73452380D02*
X119785714Y-72452380D01*
X120166666Y-72452380D01*
X120261904Y-72500000D01*
X120309523Y-72547619D01*
X120357142Y-72642857D01*
X120357142Y-72785714D01*
X120309523Y-72880952D01*
X120261904Y-72928571D01*
X120166666Y-72976190D01*
X119785714Y-72976190D01*
X121214285Y-72785714D02*
X121214285Y-73452380D01*
X120976190Y-72404761D02*
X120738095Y-73119047D01*
X121357142Y-73119047D01*
X122166666Y-72452380D02*
X121976190Y-72452380D01*
X121880952Y-72500000D01*
X121833333Y-72547619D01*
X121738095Y-72690476D01*
X121690476Y-72880952D01*
X121690476Y-73261904D01*
X121738095Y-73357142D01*
X121785714Y-73404761D01*
X121880952Y-73452380D01*
X122071428Y-73452380D01*
X122166666Y-73404761D01*
X122214285Y-73357142D01*
X122261904Y-73261904D01*
X122261904Y-73023809D01*
X122214285Y-72928571D01*
X122166666Y-72880952D01*
X122071428Y-72833333D01*
X121880952Y-72833333D01*
X121785714Y-72880952D01*
X121738095Y-72928571D01*
X121690476Y-73023809D01*
%TO.C,R45*%
X120437142Y-76452380D02*
X120103809Y-75976190D01*
X119865714Y-76452380D02*
X119865714Y-75452380D01*
X120246666Y-75452380D01*
X120341904Y-75500000D01*
X120389523Y-75547619D01*
X120437142Y-75642857D01*
X120437142Y-75785714D01*
X120389523Y-75880952D01*
X120341904Y-75928571D01*
X120246666Y-75976190D01*
X119865714Y-75976190D01*
X121294285Y-75785714D02*
X121294285Y-76452380D01*
X121056190Y-75404761D02*
X120818095Y-76119047D01*
X121437142Y-76119047D01*
X122294285Y-75452380D02*
X121818095Y-75452380D01*
X121770476Y-75928571D01*
X121818095Y-75880952D01*
X121913333Y-75833333D01*
X122151428Y-75833333D01*
X122246666Y-75880952D01*
X122294285Y-75928571D01*
X122341904Y-76023809D01*
X122341904Y-76261904D01*
X122294285Y-76357142D01*
X122246666Y-76404761D01*
X122151428Y-76452380D01*
X121913333Y-76452380D01*
X121818095Y-76404761D01*
X121770476Y-76357142D01*
%TO.C,R44*%
X120357142Y-79452380D02*
X120023809Y-78976190D01*
X119785714Y-79452380D02*
X119785714Y-78452380D01*
X120166666Y-78452380D01*
X120261904Y-78500000D01*
X120309523Y-78547619D01*
X120357142Y-78642857D01*
X120357142Y-78785714D01*
X120309523Y-78880952D01*
X120261904Y-78928571D01*
X120166666Y-78976190D01*
X119785714Y-78976190D01*
X121214285Y-78785714D02*
X121214285Y-79452380D01*
X120976190Y-78404761D02*
X120738095Y-79119047D01*
X121357142Y-79119047D01*
X122166666Y-78785714D02*
X122166666Y-79452380D01*
X121928571Y-78404761D02*
X121690476Y-79119047D01*
X122309523Y-79119047D01*
%TO.C,R43*%
X111452380Y-56642857D02*
X110976190Y-56976190D01*
X111452380Y-57214285D02*
X110452380Y-57214285D01*
X110452380Y-56833333D01*
X110500000Y-56738095D01*
X110547619Y-56690476D01*
X110642857Y-56642857D01*
X110785714Y-56642857D01*
X110880952Y-56690476D01*
X110928571Y-56738095D01*
X110976190Y-56833333D01*
X110976190Y-57214285D01*
X110785714Y-55785714D02*
X111452380Y-55785714D01*
X110404761Y-56023809D02*
X111119047Y-56261904D01*
X111119047Y-55642857D01*
X110452380Y-55357142D02*
X110452380Y-54738095D01*
X110833333Y-55071428D01*
X110833333Y-54928571D01*
X110880952Y-54833333D01*
X110928571Y-54785714D01*
X111023809Y-54738095D01*
X111261904Y-54738095D01*
X111357142Y-54785714D01*
X111404761Y-54833333D01*
X111452380Y-54928571D01*
X111452380Y-55214285D01*
X111404761Y-55309523D01*
X111357142Y-55357142D01*
%TO.C,R41*%
X139357142Y-52452380D02*
X139023809Y-51976190D01*
X138785714Y-52452380D02*
X138785714Y-51452380D01*
X139166666Y-51452380D01*
X139261904Y-51500000D01*
X139309523Y-51547619D01*
X139357142Y-51642857D01*
X139357142Y-51785714D01*
X139309523Y-51880952D01*
X139261904Y-51928571D01*
X139166666Y-51976190D01*
X138785714Y-51976190D01*
X140214285Y-51785714D02*
X140214285Y-52452380D01*
X139976190Y-51404761D02*
X139738095Y-52119047D01*
X140357142Y-52119047D01*
X141261904Y-52452380D02*
X140690476Y-52452380D01*
X140976190Y-52452380D02*
X140976190Y-51452380D01*
X140880952Y-51595238D01*
X140785714Y-51690476D01*
X140690476Y-51738095D01*
%TO.C,R38*%
X139357142Y-55452380D02*
X139023809Y-54976190D01*
X138785714Y-55452380D02*
X138785714Y-54452380D01*
X139166666Y-54452380D01*
X139261904Y-54500000D01*
X139309523Y-54547619D01*
X139357142Y-54642857D01*
X139357142Y-54785714D01*
X139309523Y-54880952D01*
X139261904Y-54928571D01*
X139166666Y-54976190D01*
X138785714Y-54976190D01*
X139690476Y-54452380D02*
X140309523Y-54452380D01*
X139976190Y-54833333D01*
X140119047Y-54833333D01*
X140214285Y-54880952D01*
X140261904Y-54928571D01*
X140309523Y-55023809D01*
X140309523Y-55261904D01*
X140261904Y-55357142D01*
X140214285Y-55404761D01*
X140119047Y-55452380D01*
X139833333Y-55452380D01*
X139738095Y-55404761D01*
X139690476Y-55357142D01*
X140880952Y-54880952D02*
X140785714Y-54833333D01*
X140738095Y-54785714D01*
X140690476Y-54690476D01*
X140690476Y-54642857D01*
X140738095Y-54547619D01*
X140785714Y-54500000D01*
X140880952Y-54452380D01*
X141071428Y-54452380D01*
X141166666Y-54500000D01*
X141214285Y-54547619D01*
X141261904Y-54642857D01*
X141261904Y-54690476D01*
X141214285Y-54785714D01*
X141166666Y-54833333D01*
X141071428Y-54880952D01*
X140880952Y-54880952D01*
X140785714Y-54928571D01*
X140738095Y-54976190D01*
X140690476Y-55071428D01*
X140690476Y-55261904D01*
X140738095Y-55357142D01*
X140785714Y-55404761D01*
X140880952Y-55452380D01*
X141071428Y-55452380D01*
X141166666Y-55404761D01*
X141214285Y-55357142D01*
X141261904Y-55261904D01*
X141261904Y-55071428D01*
X141214285Y-54976190D01*
X141166666Y-54928571D01*
X141071428Y-54880952D01*
%TO.C,R34*%
X139357142Y-158802380D02*
X139023809Y-158326190D01*
X138785714Y-158802380D02*
X138785714Y-157802380D01*
X139166666Y-157802380D01*
X139261904Y-157850000D01*
X139309523Y-157897619D01*
X139357142Y-157992857D01*
X139357142Y-158135714D01*
X139309523Y-158230952D01*
X139261904Y-158278571D01*
X139166666Y-158326190D01*
X138785714Y-158326190D01*
X139690476Y-157802380D02*
X140309523Y-157802380D01*
X139976190Y-158183333D01*
X140119047Y-158183333D01*
X140214285Y-158230952D01*
X140261904Y-158278571D01*
X140309523Y-158373809D01*
X140309523Y-158611904D01*
X140261904Y-158707142D01*
X140214285Y-158754761D01*
X140119047Y-158802380D01*
X139833333Y-158802380D01*
X139738095Y-158754761D01*
X139690476Y-158707142D01*
X141166666Y-158135714D02*
X141166666Y-158802380D01*
X140928571Y-157754761D02*
X140690476Y-158469047D01*
X141309523Y-158469047D01*
%TO.C,R33*%
X117357142Y-112452380D02*
X117023809Y-111976190D01*
X116785714Y-112452380D02*
X116785714Y-111452380D01*
X117166666Y-111452380D01*
X117261904Y-111500000D01*
X117309523Y-111547619D01*
X117357142Y-111642857D01*
X117357142Y-111785714D01*
X117309523Y-111880952D01*
X117261904Y-111928571D01*
X117166666Y-111976190D01*
X116785714Y-111976190D01*
X117690476Y-111452380D02*
X118309523Y-111452380D01*
X117976190Y-111833333D01*
X118119047Y-111833333D01*
X118214285Y-111880952D01*
X118261904Y-111928571D01*
X118309523Y-112023809D01*
X118309523Y-112261904D01*
X118261904Y-112357142D01*
X118214285Y-112404761D01*
X118119047Y-112452380D01*
X117833333Y-112452380D01*
X117738095Y-112404761D01*
X117690476Y-112357142D01*
X118642857Y-111452380D02*
X119261904Y-111452380D01*
X118928571Y-111833333D01*
X119071428Y-111833333D01*
X119166666Y-111880952D01*
X119214285Y-111928571D01*
X119261904Y-112023809D01*
X119261904Y-112261904D01*
X119214285Y-112357142D01*
X119166666Y-112404761D01*
X119071428Y-112452380D01*
X118785714Y-112452380D01*
X118690476Y-112404761D01*
X118642857Y-112357142D01*
%TO.C,R31*%
X161352380Y-168642857D02*
X160876190Y-168976190D01*
X161352380Y-169214285D02*
X160352380Y-169214285D01*
X160352380Y-168833333D01*
X160400000Y-168738095D01*
X160447619Y-168690476D01*
X160542857Y-168642857D01*
X160685714Y-168642857D01*
X160780952Y-168690476D01*
X160828571Y-168738095D01*
X160876190Y-168833333D01*
X160876190Y-169214285D01*
X160352380Y-168309523D02*
X160352380Y-167690476D01*
X160733333Y-168023809D01*
X160733333Y-167880952D01*
X160780952Y-167785714D01*
X160828571Y-167738095D01*
X160923809Y-167690476D01*
X161161904Y-167690476D01*
X161257142Y-167738095D01*
X161304761Y-167785714D01*
X161352380Y-167880952D01*
X161352380Y-168166666D01*
X161304761Y-168261904D01*
X161257142Y-168309523D01*
X161352380Y-166738095D02*
X161352380Y-167309523D01*
X161352380Y-167023809D02*
X160352380Y-167023809D01*
X160495238Y-167119047D01*
X160590476Y-167214285D01*
X160638095Y-167309523D01*
%TO.C,R30*%
X144052380Y-167642857D02*
X143576190Y-167976190D01*
X144052380Y-168214285D02*
X143052380Y-168214285D01*
X143052380Y-167833333D01*
X143100000Y-167738095D01*
X143147619Y-167690476D01*
X143242857Y-167642857D01*
X143385714Y-167642857D01*
X143480952Y-167690476D01*
X143528571Y-167738095D01*
X143576190Y-167833333D01*
X143576190Y-168214285D01*
X143052380Y-167309523D02*
X143052380Y-166690476D01*
X143433333Y-167023809D01*
X143433333Y-166880952D01*
X143480952Y-166785714D01*
X143528571Y-166738095D01*
X143623809Y-166690476D01*
X143861904Y-166690476D01*
X143957142Y-166738095D01*
X144004761Y-166785714D01*
X144052380Y-166880952D01*
X144052380Y-167166666D01*
X144004761Y-167261904D01*
X143957142Y-167309523D01*
X143052380Y-166071428D02*
X143052380Y-165976190D01*
X143100000Y-165880952D01*
X143147619Y-165833333D01*
X143242857Y-165785714D01*
X143433333Y-165738095D01*
X143671428Y-165738095D01*
X143861904Y-165785714D01*
X143957142Y-165833333D01*
X144004761Y-165880952D01*
X144052380Y-165976190D01*
X144052380Y-166071428D01*
X144004761Y-166166666D01*
X143957142Y-166214285D01*
X143861904Y-166261904D01*
X143671428Y-166309523D01*
X143433333Y-166309523D01*
X143242857Y-166261904D01*
X143147619Y-166214285D01*
X143100000Y-166166666D01*
X143052380Y-166071428D01*
%TO.C,R27*%
X155357142Y-176302380D02*
X155023809Y-175826190D01*
X154785714Y-176302380D02*
X154785714Y-175302380D01*
X155166666Y-175302380D01*
X155261904Y-175350000D01*
X155309523Y-175397619D01*
X155357142Y-175492857D01*
X155357142Y-175635714D01*
X155309523Y-175730952D01*
X155261904Y-175778571D01*
X155166666Y-175826190D01*
X154785714Y-175826190D01*
X155738095Y-175397619D02*
X155785714Y-175350000D01*
X155880952Y-175302380D01*
X156119047Y-175302380D01*
X156214285Y-175350000D01*
X156261904Y-175397619D01*
X156309523Y-175492857D01*
X156309523Y-175588095D01*
X156261904Y-175730952D01*
X155690476Y-176302380D01*
X156309523Y-176302380D01*
X156642857Y-175302380D02*
X157309523Y-175302380D01*
X156880952Y-176302380D01*
%TO.C,R26*%
X156357142Y-116302380D02*
X156023809Y-115826190D01*
X155785714Y-116302380D02*
X155785714Y-115302380D01*
X156166666Y-115302380D01*
X156261904Y-115350000D01*
X156309523Y-115397619D01*
X156357142Y-115492857D01*
X156357142Y-115635714D01*
X156309523Y-115730952D01*
X156261904Y-115778571D01*
X156166666Y-115826190D01*
X155785714Y-115826190D01*
X156738095Y-115397619D02*
X156785714Y-115350000D01*
X156880952Y-115302380D01*
X157119047Y-115302380D01*
X157214285Y-115350000D01*
X157261904Y-115397619D01*
X157309523Y-115492857D01*
X157309523Y-115588095D01*
X157261904Y-115730952D01*
X156690476Y-116302380D01*
X157309523Y-116302380D01*
X158166666Y-115302380D02*
X157976190Y-115302380D01*
X157880952Y-115350000D01*
X157833333Y-115397619D01*
X157738095Y-115540476D01*
X157690476Y-115730952D01*
X157690476Y-116111904D01*
X157738095Y-116207142D01*
X157785714Y-116254761D01*
X157880952Y-116302380D01*
X158071428Y-116302380D01*
X158166666Y-116254761D01*
X158214285Y-116207142D01*
X158261904Y-116111904D01*
X158261904Y-115873809D01*
X158214285Y-115778571D01*
X158166666Y-115730952D01*
X158071428Y-115683333D01*
X157880952Y-115683333D01*
X157785714Y-115730952D01*
X157738095Y-115778571D01*
X157690476Y-115873809D01*
%TO.C,R25*%
X134357142Y-83552380D02*
X134023809Y-83076190D01*
X133785714Y-83552380D02*
X133785714Y-82552380D01*
X134166666Y-82552380D01*
X134261904Y-82600000D01*
X134309523Y-82647619D01*
X134357142Y-82742857D01*
X134357142Y-82885714D01*
X134309523Y-82980952D01*
X134261904Y-83028571D01*
X134166666Y-83076190D01*
X133785714Y-83076190D01*
X134738095Y-82647619D02*
X134785714Y-82600000D01*
X134880952Y-82552380D01*
X135119047Y-82552380D01*
X135214285Y-82600000D01*
X135261904Y-82647619D01*
X135309523Y-82742857D01*
X135309523Y-82838095D01*
X135261904Y-82980952D01*
X134690476Y-83552380D01*
X135309523Y-83552380D01*
X136214285Y-82552380D02*
X135738095Y-82552380D01*
X135690476Y-83028571D01*
X135738095Y-82980952D01*
X135833333Y-82933333D01*
X136071428Y-82933333D01*
X136166666Y-82980952D01*
X136214285Y-83028571D01*
X136261904Y-83123809D01*
X136261904Y-83361904D01*
X136214285Y-83457142D01*
X136166666Y-83504761D01*
X136071428Y-83552380D01*
X135833333Y-83552380D01*
X135738095Y-83504761D01*
X135690476Y-83457142D01*
%TO.C,R24*%
X126452380Y-102642857D02*
X125976190Y-102976190D01*
X126452380Y-103214285D02*
X125452380Y-103214285D01*
X125452380Y-102833333D01*
X125500000Y-102738095D01*
X125547619Y-102690476D01*
X125642857Y-102642857D01*
X125785714Y-102642857D01*
X125880952Y-102690476D01*
X125928571Y-102738095D01*
X125976190Y-102833333D01*
X125976190Y-103214285D01*
X125547619Y-102261904D02*
X125500000Y-102214285D01*
X125452380Y-102119047D01*
X125452380Y-101880952D01*
X125500000Y-101785714D01*
X125547619Y-101738095D01*
X125642857Y-101690476D01*
X125738095Y-101690476D01*
X125880952Y-101738095D01*
X126452380Y-102309523D01*
X126452380Y-101690476D01*
X125785714Y-100833333D02*
X126452380Y-100833333D01*
X125404761Y-101071428D02*
X126119047Y-101309523D01*
X126119047Y-100690476D01*
%TO.C,R23*%
X153357142Y-144452380D02*
X153023809Y-143976190D01*
X152785714Y-144452380D02*
X152785714Y-143452380D01*
X153166666Y-143452380D01*
X153261904Y-143500000D01*
X153309523Y-143547619D01*
X153357142Y-143642857D01*
X153357142Y-143785714D01*
X153309523Y-143880952D01*
X153261904Y-143928571D01*
X153166666Y-143976190D01*
X152785714Y-143976190D01*
X153738095Y-143547619D02*
X153785714Y-143500000D01*
X153880952Y-143452380D01*
X154119047Y-143452380D01*
X154214285Y-143500000D01*
X154261904Y-143547619D01*
X154309523Y-143642857D01*
X154309523Y-143738095D01*
X154261904Y-143880952D01*
X153690476Y-144452380D01*
X154309523Y-144452380D01*
X154642857Y-143452380D02*
X155261904Y-143452380D01*
X154928571Y-143833333D01*
X155071428Y-143833333D01*
X155166666Y-143880952D01*
X155214285Y-143928571D01*
X155261904Y-144023809D01*
X155261904Y-144261904D01*
X155214285Y-144357142D01*
X155166666Y-144404761D01*
X155071428Y-144452380D01*
X154785714Y-144452380D01*
X154690476Y-144404761D01*
X154642857Y-144357142D01*
%TO.C,R22*%
X161452380Y-131642857D02*
X160976190Y-131976190D01*
X161452380Y-132214285D02*
X160452380Y-132214285D01*
X160452380Y-131833333D01*
X160500000Y-131738095D01*
X160547619Y-131690476D01*
X160642857Y-131642857D01*
X160785714Y-131642857D01*
X160880952Y-131690476D01*
X160928571Y-131738095D01*
X160976190Y-131833333D01*
X160976190Y-132214285D01*
X160547619Y-131261904D02*
X160500000Y-131214285D01*
X160452380Y-131119047D01*
X160452380Y-130880952D01*
X160500000Y-130785714D01*
X160547619Y-130738095D01*
X160642857Y-130690476D01*
X160738095Y-130690476D01*
X160880952Y-130738095D01*
X161452380Y-131309523D01*
X161452380Y-130690476D01*
X160547619Y-130309523D02*
X160500000Y-130261904D01*
X160452380Y-130166666D01*
X160452380Y-129928571D01*
X160500000Y-129833333D01*
X160547619Y-129785714D01*
X160642857Y-129738095D01*
X160738095Y-129738095D01*
X160880952Y-129785714D01*
X161452380Y-130357142D01*
X161452380Y-129738095D01*
%TO.C,R19*%
X153357142Y-140702380D02*
X153023809Y-140226190D01*
X152785714Y-140702380D02*
X152785714Y-139702380D01*
X153166666Y-139702380D01*
X153261904Y-139750000D01*
X153309523Y-139797619D01*
X153357142Y-139892857D01*
X153357142Y-140035714D01*
X153309523Y-140130952D01*
X153261904Y-140178571D01*
X153166666Y-140226190D01*
X152785714Y-140226190D01*
X154309523Y-140702380D02*
X153738095Y-140702380D01*
X154023809Y-140702380D02*
X154023809Y-139702380D01*
X153928571Y-139845238D01*
X153833333Y-139940476D01*
X153738095Y-139988095D01*
X154785714Y-140702380D02*
X154976190Y-140702380D01*
X155071428Y-140654761D01*
X155119047Y-140607142D01*
X155214285Y-140464285D01*
X155261904Y-140273809D01*
X155261904Y-139892857D01*
X155214285Y-139797619D01*
X155166666Y-139750000D01*
X155071428Y-139702380D01*
X154880952Y-139702380D01*
X154785714Y-139750000D01*
X154738095Y-139797619D01*
X154690476Y-139892857D01*
X154690476Y-140130952D01*
X154738095Y-140226190D01*
X154785714Y-140273809D01*
X154880952Y-140321428D01*
X155071428Y-140321428D01*
X155166666Y-140273809D01*
X155214285Y-140226190D01*
X155261904Y-140130952D01*
%TO.C,R18*%
X161352380Y-86642857D02*
X160876190Y-86976190D01*
X161352380Y-87214285D02*
X160352380Y-87214285D01*
X160352380Y-86833333D01*
X160400000Y-86738095D01*
X160447619Y-86690476D01*
X160542857Y-86642857D01*
X160685714Y-86642857D01*
X160780952Y-86690476D01*
X160828571Y-86738095D01*
X160876190Y-86833333D01*
X160876190Y-87214285D01*
X161352380Y-85690476D02*
X161352380Y-86261904D01*
X161352380Y-85976190D02*
X160352380Y-85976190D01*
X160495238Y-86071428D01*
X160590476Y-86166666D01*
X160638095Y-86261904D01*
X160780952Y-85119047D02*
X160733333Y-85214285D01*
X160685714Y-85261904D01*
X160590476Y-85309523D01*
X160542857Y-85309523D01*
X160447619Y-85261904D01*
X160400000Y-85214285D01*
X160352380Y-85119047D01*
X160352380Y-84928571D01*
X160400000Y-84833333D01*
X160447619Y-84785714D01*
X160542857Y-84738095D01*
X160590476Y-84738095D01*
X160685714Y-84785714D01*
X160733333Y-84833333D01*
X160780952Y-84928571D01*
X160780952Y-85119047D01*
X160828571Y-85214285D01*
X160876190Y-85261904D01*
X160971428Y-85309523D01*
X161161904Y-85309523D01*
X161257142Y-85261904D01*
X161304761Y-85214285D01*
X161352380Y-85119047D01*
X161352380Y-84928571D01*
X161304761Y-84833333D01*
X161257142Y-84785714D01*
X161161904Y-84738095D01*
X160971428Y-84738095D01*
X160876190Y-84785714D01*
X160828571Y-84833333D01*
X160780952Y-84928571D01*
%TO.C,R17*%
X133967142Y-86452380D02*
X133633809Y-85976190D01*
X133395714Y-86452380D02*
X133395714Y-85452380D01*
X133776666Y-85452380D01*
X133871904Y-85500000D01*
X133919523Y-85547619D01*
X133967142Y-85642857D01*
X133967142Y-85785714D01*
X133919523Y-85880952D01*
X133871904Y-85928571D01*
X133776666Y-85976190D01*
X133395714Y-85976190D01*
X134919523Y-86452380D02*
X134348095Y-86452380D01*
X134633809Y-86452380D02*
X134633809Y-85452380D01*
X134538571Y-85595238D01*
X134443333Y-85690476D01*
X134348095Y-85738095D01*
X135252857Y-85452380D02*
X135919523Y-85452380D01*
X135490952Y-86452380D01*
%TO.C,R16*%
X141652380Y-71642857D02*
X141176190Y-71976190D01*
X141652380Y-72214285D02*
X140652380Y-72214285D01*
X140652380Y-71833333D01*
X140700000Y-71738095D01*
X140747619Y-71690476D01*
X140842857Y-71642857D01*
X140985714Y-71642857D01*
X141080952Y-71690476D01*
X141128571Y-71738095D01*
X141176190Y-71833333D01*
X141176190Y-72214285D01*
X141652380Y-70690476D02*
X141652380Y-71261904D01*
X141652380Y-70976190D02*
X140652380Y-70976190D01*
X140795238Y-71071428D01*
X140890476Y-71166666D01*
X140938095Y-71261904D01*
X140652380Y-69833333D02*
X140652380Y-70023809D01*
X140700000Y-70119047D01*
X140747619Y-70166666D01*
X140890476Y-70261904D01*
X141080952Y-70309523D01*
X141461904Y-70309523D01*
X141557142Y-70261904D01*
X141604761Y-70214285D01*
X141652380Y-70119047D01*
X141652380Y-69928571D01*
X141604761Y-69833333D01*
X141557142Y-69785714D01*
X141461904Y-69738095D01*
X141223809Y-69738095D01*
X141128571Y-69785714D01*
X141080952Y-69833333D01*
X141033333Y-69928571D01*
X141033333Y-70119047D01*
X141080952Y-70214285D01*
X141128571Y-70261904D01*
X141223809Y-70309523D01*
%TO.C,R15*%
X153357142Y-96452380D02*
X153023809Y-95976190D01*
X152785714Y-96452380D02*
X152785714Y-95452380D01*
X153166666Y-95452380D01*
X153261904Y-95500000D01*
X153309523Y-95547619D01*
X153357142Y-95642857D01*
X153357142Y-95785714D01*
X153309523Y-95880952D01*
X153261904Y-95928571D01*
X153166666Y-95976190D01*
X152785714Y-95976190D01*
X154309523Y-96452380D02*
X153738095Y-96452380D01*
X154023809Y-96452380D02*
X154023809Y-95452380D01*
X153928571Y-95595238D01*
X153833333Y-95690476D01*
X153738095Y-95738095D01*
X155214285Y-95452380D02*
X154738095Y-95452380D01*
X154690476Y-95928571D01*
X154738095Y-95880952D01*
X154833333Y-95833333D01*
X155071428Y-95833333D01*
X155166666Y-95880952D01*
X155214285Y-95928571D01*
X155261904Y-96023809D01*
X155261904Y-96261904D01*
X155214285Y-96357142D01*
X155166666Y-96404761D01*
X155071428Y-96452380D01*
X154833333Y-96452380D01*
X154738095Y-96404761D01*
X154690476Y-96357142D01*
%TO.C,R14*%
X145102380Y-84242857D02*
X144626190Y-84576190D01*
X145102380Y-84814285D02*
X144102380Y-84814285D01*
X144102380Y-84433333D01*
X144150000Y-84338095D01*
X144197619Y-84290476D01*
X144292857Y-84242857D01*
X144435714Y-84242857D01*
X144530952Y-84290476D01*
X144578571Y-84338095D01*
X144626190Y-84433333D01*
X144626190Y-84814285D01*
X145102380Y-83290476D02*
X145102380Y-83861904D01*
X145102380Y-83576190D02*
X144102380Y-83576190D01*
X144245238Y-83671428D01*
X144340476Y-83766666D01*
X144388095Y-83861904D01*
X144435714Y-82433333D02*
X145102380Y-82433333D01*
X144054761Y-82671428D02*
X144769047Y-82909523D01*
X144769047Y-82290476D01*
%TO.C,R11*%
X160452380Y-107642857D02*
X159976190Y-107976190D01*
X160452380Y-108214285D02*
X159452380Y-108214285D01*
X159452380Y-107833333D01*
X159500000Y-107738095D01*
X159547619Y-107690476D01*
X159642857Y-107642857D01*
X159785714Y-107642857D01*
X159880952Y-107690476D01*
X159928571Y-107738095D01*
X159976190Y-107833333D01*
X159976190Y-108214285D01*
X160452380Y-106690476D02*
X160452380Y-107261904D01*
X160452380Y-106976190D02*
X159452380Y-106976190D01*
X159595238Y-107071428D01*
X159690476Y-107166666D01*
X159738095Y-107261904D01*
X160452380Y-105738095D02*
X160452380Y-106309523D01*
X160452380Y-106023809D02*
X159452380Y-106023809D01*
X159595238Y-106119047D01*
X159690476Y-106214285D01*
X159738095Y-106309523D01*
%TO.C,R10*%
X143452380Y-39642857D02*
X142976190Y-39976190D01*
X143452380Y-40214285D02*
X142452380Y-40214285D01*
X142452380Y-39833333D01*
X142500000Y-39738095D01*
X142547619Y-39690476D01*
X142642857Y-39642857D01*
X142785714Y-39642857D01*
X142880952Y-39690476D01*
X142928571Y-39738095D01*
X142976190Y-39833333D01*
X142976190Y-40214285D01*
X143452380Y-38690476D02*
X143452380Y-39261904D01*
X143452380Y-38976190D02*
X142452380Y-38976190D01*
X142595238Y-39071428D01*
X142690476Y-39166666D01*
X142738095Y-39261904D01*
X142452380Y-38071428D02*
X142452380Y-37976190D01*
X142500000Y-37880952D01*
X142547619Y-37833333D01*
X142642857Y-37785714D01*
X142833333Y-37738095D01*
X143071428Y-37738095D01*
X143261904Y-37785714D01*
X143357142Y-37833333D01*
X143404761Y-37880952D01*
X143452380Y-37976190D01*
X143452380Y-38071428D01*
X143404761Y-38166666D01*
X143357142Y-38214285D01*
X143261904Y-38261904D01*
X143071428Y-38309523D01*
X142833333Y-38309523D01*
X142642857Y-38261904D01*
X142547619Y-38214285D01*
X142500000Y-38166666D01*
X142452380Y-38071428D01*
%TO.C,R9*%
X148833333Y-22132380D02*
X148500000Y-21656190D01*
X148261904Y-22132380D02*
X148261904Y-21132380D01*
X148642857Y-21132380D01*
X148738095Y-21180000D01*
X148785714Y-21227619D01*
X148833333Y-21322857D01*
X148833333Y-21465714D01*
X148785714Y-21560952D01*
X148738095Y-21608571D01*
X148642857Y-21656190D01*
X148261904Y-21656190D01*
X149309523Y-22132380D02*
X149500000Y-22132380D01*
X149595238Y-22084761D01*
X149642857Y-22037142D01*
X149738095Y-21894285D01*
X149785714Y-21703809D01*
X149785714Y-21322857D01*
X149738095Y-21227619D01*
X149690476Y-21180000D01*
X149595238Y-21132380D01*
X149404761Y-21132380D01*
X149309523Y-21180000D01*
X149261904Y-21227619D01*
X149214285Y-21322857D01*
X149214285Y-21560952D01*
X149261904Y-21656190D01*
X149309523Y-21703809D01*
X149404761Y-21751428D01*
X149595238Y-21751428D01*
X149690476Y-21703809D01*
X149738095Y-21656190D01*
X149785714Y-21560952D01*
%TO.C,R8*%
X120833333Y-70452380D02*
X120500000Y-69976190D01*
X120261904Y-70452380D02*
X120261904Y-69452380D01*
X120642857Y-69452380D01*
X120738095Y-69500000D01*
X120785714Y-69547619D01*
X120833333Y-69642857D01*
X120833333Y-69785714D01*
X120785714Y-69880952D01*
X120738095Y-69928571D01*
X120642857Y-69976190D01*
X120261904Y-69976190D01*
X121404761Y-69880952D02*
X121309523Y-69833333D01*
X121261904Y-69785714D01*
X121214285Y-69690476D01*
X121214285Y-69642857D01*
X121261904Y-69547619D01*
X121309523Y-69500000D01*
X121404761Y-69452380D01*
X121595238Y-69452380D01*
X121690476Y-69500000D01*
X121738095Y-69547619D01*
X121785714Y-69642857D01*
X121785714Y-69690476D01*
X121738095Y-69785714D01*
X121690476Y-69833333D01*
X121595238Y-69880952D01*
X121404761Y-69880952D01*
X121309523Y-69928571D01*
X121261904Y-69976190D01*
X121214285Y-70071428D01*
X121214285Y-70261904D01*
X121261904Y-70357142D01*
X121309523Y-70404761D01*
X121404761Y-70452380D01*
X121595238Y-70452380D01*
X121690476Y-70404761D01*
X121738095Y-70357142D01*
X121785714Y-70261904D01*
X121785714Y-70071428D01*
X121738095Y-69976190D01*
X121690476Y-69928571D01*
X121595238Y-69880952D01*
%TO.C,R7*%
X161452380Y-59166666D02*
X160976190Y-59500000D01*
X161452380Y-59738095D02*
X160452380Y-59738095D01*
X160452380Y-59357142D01*
X160500000Y-59261904D01*
X160547619Y-59214285D01*
X160642857Y-59166666D01*
X160785714Y-59166666D01*
X160880952Y-59214285D01*
X160928571Y-59261904D01*
X160976190Y-59357142D01*
X160976190Y-59738095D01*
X160452380Y-58833333D02*
X160452380Y-58166666D01*
X161452380Y-58595238D01*
%TO.C,R6*%
X145753333Y-47302380D02*
X145420000Y-46826190D01*
X145181904Y-47302380D02*
X145181904Y-46302380D01*
X145562857Y-46302380D01*
X145658095Y-46350000D01*
X145705714Y-46397619D01*
X145753333Y-46492857D01*
X145753333Y-46635714D01*
X145705714Y-46730952D01*
X145658095Y-46778571D01*
X145562857Y-46826190D01*
X145181904Y-46826190D01*
X146610476Y-46302380D02*
X146420000Y-46302380D01*
X146324761Y-46350000D01*
X146277142Y-46397619D01*
X146181904Y-46540476D01*
X146134285Y-46730952D01*
X146134285Y-47111904D01*
X146181904Y-47207142D01*
X146229523Y-47254761D01*
X146324761Y-47302380D01*
X146515238Y-47302380D01*
X146610476Y-47254761D01*
X146658095Y-47207142D01*
X146705714Y-47111904D01*
X146705714Y-46873809D01*
X146658095Y-46778571D01*
X146610476Y-46730952D01*
X146515238Y-46683333D01*
X146324761Y-46683333D01*
X146229523Y-46730952D01*
X146181904Y-46778571D01*
X146134285Y-46873809D01*
%TO.C,R3*%
X161452380Y-41166666D02*
X160976190Y-41500000D01*
X161452380Y-41738095D02*
X160452380Y-41738095D01*
X160452380Y-41357142D01*
X160500000Y-41261904D01*
X160547619Y-41214285D01*
X160642857Y-41166666D01*
X160785714Y-41166666D01*
X160880952Y-41214285D01*
X160928571Y-41261904D01*
X160976190Y-41357142D01*
X160976190Y-41738095D01*
X160452380Y-40833333D02*
X160452380Y-40214285D01*
X160833333Y-40547619D01*
X160833333Y-40404761D01*
X160880952Y-40309523D01*
X160928571Y-40261904D01*
X161023809Y-40214285D01*
X161261904Y-40214285D01*
X161357142Y-40261904D01*
X161404761Y-40309523D01*
X161452380Y-40404761D01*
X161452380Y-40690476D01*
X161404761Y-40785714D01*
X161357142Y-40833333D01*
%TO.C,R2*%
X132833333Y-89802380D02*
X132500000Y-89326190D01*
X132261904Y-89802380D02*
X132261904Y-88802380D01*
X132642857Y-88802380D01*
X132738095Y-88850000D01*
X132785714Y-88897619D01*
X132833333Y-88992857D01*
X132833333Y-89135714D01*
X132785714Y-89230952D01*
X132738095Y-89278571D01*
X132642857Y-89326190D01*
X132261904Y-89326190D01*
X133214285Y-88897619D02*
X133261904Y-88850000D01*
X133357142Y-88802380D01*
X133595238Y-88802380D01*
X133690476Y-88850000D01*
X133738095Y-88897619D01*
X133785714Y-88992857D01*
X133785714Y-89088095D01*
X133738095Y-89230952D01*
X133166666Y-89802380D01*
X133785714Y-89802380D01*
%TO.C,R1*%
X154833333Y-150452380D02*
X154500000Y-149976190D01*
X154261904Y-150452380D02*
X154261904Y-149452380D01*
X154642857Y-149452380D01*
X154738095Y-149500000D01*
X154785714Y-149547619D01*
X154833333Y-149642857D01*
X154833333Y-149785714D01*
X154785714Y-149880952D01*
X154738095Y-149928571D01*
X154642857Y-149976190D01*
X154261904Y-149976190D01*
X155785714Y-150452380D02*
X155214285Y-150452380D01*
X155500000Y-150452380D02*
X155500000Y-149452380D01*
X155404761Y-149595238D01*
X155309523Y-149690476D01*
X155214285Y-149738095D01*
%TO.C,R58*%
X152357142Y-71452380D02*
X152023809Y-70976190D01*
X151785714Y-71452380D02*
X151785714Y-70452380D01*
X152166666Y-70452380D01*
X152261904Y-70500000D01*
X152309523Y-70547619D01*
X152357142Y-70642857D01*
X152357142Y-70785714D01*
X152309523Y-70880952D01*
X152261904Y-70928571D01*
X152166666Y-70976190D01*
X151785714Y-70976190D01*
X153261904Y-70452380D02*
X152785714Y-70452380D01*
X152738095Y-70928571D01*
X152785714Y-70880952D01*
X152880952Y-70833333D01*
X153119047Y-70833333D01*
X153214285Y-70880952D01*
X153261904Y-70928571D01*
X153309523Y-71023809D01*
X153309523Y-71261904D01*
X153261904Y-71357142D01*
X153214285Y-71404761D01*
X153119047Y-71452380D01*
X152880952Y-71452380D01*
X152785714Y-71404761D01*
X152738095Y-71357142D01*
X153880952Y-70880952D02*
X153785714Y-70833333D01*
X153738095Y-70785714D01*
X153690476Y-70690476D01*
X153690476Y-70642857D01*
X153738095Y-70547619D01*
X153785714Y-70500000D01*
X153880952Y-70452380D01*
X154071428Y-70452380D01*
X154166666Y-70500000D01*
X154214285Y-70547619D01*
X154261904Y-70642857D01*
X154261904Y-70690476D01*
X154214285Y-70785714D01*
X154166666Y-70833333D01*
X154071428Y-70880952D01*
X153880952Y-70880952D01*
X153785714Y-70928571D01*
X153738095Y-70976190D01*
X153690476Y-71071428D01*
X153690476Y-71261904D01*
X153738095Y-71357142D01*
X153785714Y-71404761D01*
X153880952Y-71452380D01*
X154071428Y-71452380D01*
X154166666Y-71404761D01*
X154214285Y-71357142D01*
X154261904Y-71261904D01*
X154261904Y-71071428D01*
X154214285Y-70976190D01*
X154166666Y-70928571D01*
X154071428Y-70880952D01*
%TO.C,PXor3*%
X132653809Y-94102380D02*
X132653809Y-93102380D01*
X133034761Y-93102380D01*
X133130000Y-93150000D01*
X133177619Y-93197619D01*
X133225238Y-93292857D01*
X133225238Y-93435714D01*
X133177619Y-93530952D01*
X133130000Y-93578571D01*
X133034761Y-93626190D01*
X132653809Y-93626190D01*
X133558571Y-93102380D02*
X134225238Y-94102380D01*
X134225238Y-93102380D02*
X133558571Y-94102380D01*
X134749047Y-94102380D02*
X134653809Y-94054761D01*
X134606190Y-94007142D01*
X134558571Y-93911904D01*
X134558571Y-93626190D01*
X134606190Y-93530952D01*
X134653809Y-93483333D01*
X134749047Y-93435714D01*
X134891904Y-93435714D01*
X134987142Y-93483333D01*
X135034761Y-93530952D01*
X135082380Y-93626190D01*
X135082380Y-93911904D01*
X135034761Y-94007142D01*
X134987142Y-94054761D01*
X134891904Y-94102380D01*
X134749047Y-94102380D01*
X135510952Y-94102380D02*
X135510952Y-93435714D01*
X135510952Y-93626190D02*
X135558571Y-93530952D01*
X135606190Y-93483333D01*
X135701428Y-93435714D01*
X135796666Y-93435714D01*
X136034761Y-93102380D02*
X136653809Y-93102380D01*
X136320476Y-93483333D01*
X136463333Y-93483333D01*
X136558571Y-93530952D01*
X136606190Y-93578571D01*
X136653809Y-93673809D01*
X136653809Y-93911904D01*
X136606190Y-94007142D01*
X136558571Y-94054761D01*
X136463333Y-94102380D01*
X136177619Y-94102380D01*
X136082380Y-94054761D01*
X136034761Y-94007142D01*
%TO.C,PXor2*%
X132653809Y-120042380D02*
X132653809Y-119042380D01*
X133034761Y-119042380D01*
X133130000Y-119090000D01*
X133177619Y-119137619D01*
X133225238Y-119232857D01*
X133225238Y-119375714D01*
X133177619Y-119470952D01*
X133130000Y-119518571D01*
X133034761Y-119566190D01*
X132653809Y-119566190D01*
X133558571Y-119042380D02*
X134225238Y-120042380D01*
X134225238Y-119042380D02*
X133558571Y-120042380D01*
X134749047Y-120042380D02*
X134653809Y-119994761D01*
X134606190Y-119947142D01*
X134558571Y-119851904D01*
X134558571Y-119566190D01*
X134606190Y-119470952D01*
X134653809Y-119423333D01*
X134749047Y-119375714D01*
X134891904Y-119375714D01*
X134987142Y-119423333D01*
X135034761Y-119470952D01*
X135082380Y-119566190D01*
X135082380Y-119851904D01*
X135034761Y-119947142D01*
X134987142Y-119994761D01*
X134891904Y-120042380D01*
X134749047Y-120042380D01*
X135510952Y-120042380D02*
X135510952Y-119375714D01*
X135510952Y-119566190D02*
X135558571Y-119470952D01*
X135606190Y-119423333D01*
X135701428Y-119375714D01*
X135796666Y-119375714D01*
X136082380Y-119137619D02*
X136130000Y-119090000D01*
X136225238Y-119042380D01*
X136463333Y-119042380D01*
X136558571Y-119090000D01*
X136606190Y-119137619D01*
X136653809Y-119232857D01*
X136653809Y-119328095D01*
X136606190Y-119470952D01*
X136034761Y-120042380D01*
X136653809Y-120042380D01*
%TO.C,PXor1*%
X132653809Y-31137380D02*
X132653809Y-30137380D01*
X133034761Y-30137380D01*
X133130000Y-30185000D01*
X133177619Y-30232619D01*
X133225238Y-30327857D01*
X133225238Y-30470714D01*
X133177619Y-30565952D01*
X133130000Y-30613571D01*
X133034761Y-30661190D01*
X132653809Y-30661190D01*
X133558571Y-30137380D02*
X134225238Y-31137380D01*
X134225238Y-30137380D02*
X133558571Y-31137380D01*
X134749047Y-31137380D02*
X134653809Y-31089761D01*
X134606190Y-31042142D01*
X134558571Y-30946904D01*
X134558571Y-30661190D01*
X134606190Y-30565952D01*
X134653809Y-30518333D01*
X134749047Y-30470714D01*
X134891904Y-30470714D01*
X134987142Y-30518333D01*
X135034761Y-30565952D01*
X135082380Y-30661190D01*
X135082380Y-30946904D01*
X135034761Y-31042142D01*
X134987142Y-31089761D01*
X134891904Y-31137380D01*
X134749047Y-31137380D01*
X135510952Y-31137380D02*
X135510952Y-30470714D01*
X135510952Y-30661190D02*
X135558571Y-30565952D01*
X135606190Y-30518333D01*
X135701428Y-30470714D01*
X135796666Y-30470714D01*
X136653809Y-31137380D02*
X136082380Y-31137380D01*
X136368095Y-31137380D02*
X136368095Y-30137380D01*
X136272857Y-30280238D01*
X136177619Y-30375476D01*
X136082380Y-30423095D01*
%TO.C,PAND7*%
X150219523Y-153057380D02*
X150219523Y-152057380D01*
X150600476Y-152057380D01*
X150695714Y-152105000D01*
X150743333Y-152152619D01*
X150790952Y-152247857D01*
X150790952Y-152390714D01*
X150743333Y-152485952D01*
X150695714Y-152533571D01*
X150600476Y-152581190D01*
X150219523Y-152581190D01*
X151171904Y-152771666D02*
X151648095Y-152771666D01*
X151076666Y-153057380D02*
X151410000Y-152057380D01*
X151743333Y-153057380D01*
X152076666Y-153057380D02*
X152076666Y-152057380D01*
X152648095Y-153057380D01*
X152648095Y-152057380D01*
X153124285Y-153057380D02*
X153124285Y-152057380D01*
X153362380Y-152057380D01*
X153505238Y-152105000D01*
X153600476Y-152200238D01*
X153648095Y-152295476D01*
X153695714Y-152485952D01*
X153695714Y-152628809D01*
X153648095Y-152819285D01*
X153600476Y-152914523D01*
X153505238Y-153009761D01*
X153362380Y-153057380D01*
X153124285Y-153057380D01*
X154029047Y-152057380D02*
X154695714Y-152057380D01*
X154267142Y-153057380D01*
%TO.C,PAND6*%
X150219523Y-120037380D02*
X150219523Y-119037380D01*
X150600476Y-119037380D01*
X150695714Y-119085000D01*
X150743333Y-119132619D01*
X150790952Y-119227857D01*
X150790952Y-119370714D01*
X150743333Y-119465952D01*
X150695714Y-119513571D01*
X150600476Y-119561190D01*
X150219523Y-119561190D01*
X151171904Y-119751666D02*
X151648095Y-119751666D01*
X151076666Y-120037380D02*
X151410000Y-119037380D01*
X151743333Y-120037380D01*
X152076666Y-120037380D02*
X152076666Y-119037380D01*
X152648095Y-120037380D01*
X152648095Y-119037380D01*
X153124285Y-120037380D02*
X153124285Y-119037380D01*
X153362380Y-119037380D01*
X153505238Y-119085000D01*
X153600476Y-119180238D01*
X153648095Y-119275476D01*
X153695714Y-119465952D01*
X153695714Y-119608809D01*
X153648095Y-119799285D01*
X153600476Y-119894523D01*
X153505238Y-119989761D01*
X153362380Y-120037380D01*
X153124285Y-120037380D01*
X154552857Y-119037380D02*
X154362380Y-119037380D01*
X154267142Y-119085000D01*
X154219523Y-119132619D01*
X154124285Y-119275476D01*
X154076666Y-119465952D01*
X154076666Y-119846904D01*
X154124285Y-119942142D01*
X154171904Y-119989761D01*
X154267142Y-120037380D01*
X154457619Y-120037380D01*
X154552857Y-119989761D01*
X154600476Y-119942142D01*
X154648095Y-119846904D01*
X154648095Y-119608809D01*
X154600476Y-119513571D01*
X154552857Y-119465952D01*
X154457619Y-119418333D01*
X154267142Y-119418333D01*
X154171904Y-119465952D01*
X154124285Y-119513571D01*
X154076666Y-119608809D01*
%TO.C,PAND5*%
X150219523Y-74322380D02*
X150219523Y-73322380D01*
X150600476Y-73322380D01*
X150695714Y-73370000D01*
X150743333Y-73417619D01*
X150790952Y-73512857D01*
X150790952Y-73655714D01*
X150743333Y-73750952D01*
X150695714Y-73798571D01*
X150600476Y-73846190D01*
X150219523Y-73846190D01*
X151171904Y-74036666D02*
X151648095Y-74036666D01*
X151076666Y-74322380D02*
X151410000Y-73322380D01*
X151743333Y-74322380D01*
X152076666Y-74322380D02*
X152076666Y-73322380D01*
X152648095Y-74322380D01*
X152648095Y-73322380D01*
X153124285Y-74322380D02*
X153124285Y-73322380D01*
X153362380Y-73322380D01*
X153505238Y-73370000D01*
X153600476Y-73465238D01*
X153648095Y-73560476D01*
X153695714Y-73750952D01*
X153695714Y-73893809D01*
X153648095Y-74084285D01*
X153600476Y-74179523D01*
X153505238Y-74274761D01*
X153362380Y-74322380D01*
X153124285Y-74322380D01*
X154600476Y-73322380D02*
X154124285Y-73322380D01*
X154076666Y-73798571D01*
X154124285Y-73750952D01*
X154219523Y-73703333D01*
X154457619Y-73703333D01*
X154552857Y-73750952D01*
X154600476Y-73798571D01*
X154648095Y-73893809D01*
X154648095Y-74131904D01*
X154600476Y-74227142D01*
X154552857Y-74274761D01*
X154457619Y-74322380D01*
X154219523Y-74322380D01*
X154124285Y-74274761D01*
X154076666Y-74227142D01*
%TO.C,PAND4*%
X150219523Y-25452380D02*
X150219523Y-24452380D01*
X150600476Y-24452380D01*
X150695714Y-24500000D01*
X150743333Y-24547619D01*
X150790952Y-24642857D01*
X150790952Y-24785714D01*
X150743333Y-24880952D01*
X150695714Y-24928571D01*
X150600476Y-24976190D01*
X150219523Y-24976190D01*
X151171904Y-25166666D02*
X151648095Y-25166666D01*
X151076666Y-25452380D02*
X151410000Y-24452380D01*
X151743333Y-25452380D01*
X152076666Y-25452380D02*
X152076666Y-24452380D01*
X152648095Y-25452380D01*
X152648095Y-24452380D01*
X153124285Y-25452380D02*
X153124285Y-24452380D01*
X153362380Y-24452380D01*
X153505238Y-24500000D01*
X153600476Y-24595238D01*
X153648095Y-24690476D01*
X153695714Y-24880952D01*
X153695714Y-25023809D01*
X153648095Y-25214285D01*
X153600476Y-25309523D01*
X153505238Y-25404761D01*
X153362380Y-25452380D01*
X153124285Y-25452380D01*
X154552857Y-24785714D02*
X154552857Y-25452380D01*
X154314761Y-24404761D02*
X154076666Y-25119047D01*
X154695714Y-25119047D01*
%TO.C,PAND3*%
X115919523Y-89017380D02*
X115919523Y-88017380D01*
X116300476Y-88017380D01*
X116395714Y-88065000D01*
X116443333Y-88112619D01*
X116490952Y-88207857D01*
X116490952Y-88350714D01*
X116443333Y-88445952D01*
X116395714Y-88493571D01*
X116300476Y-88541190D01*
X115919523Y-88541190D01*
X116871904Y-88731666D02*
X117348095Y-88731666D01*
X116776666Y-89017380D02*
X117110000Y-88017380D01*
X117443333Y-89017380D01*
X117776666Y-89017380D02*
X117776666Y-88017380D01*
X118348095Y-89017380D01*
X118348095Y-88017380D01*
X118824285Y-89017380D02*
X118824285Y-88017380D01*
X119062380Y-88017380D01*
X119205238Y-88065000D01*
X119300476Y-88160238D01*
X119348095Y-88255476D01*
X119395714Y-88445952D01*
X119395714Y-88588809D01*
X119348095Y-88779285D01*
X119300476Y-88874523D01*
X119205238Y-88969761D01*
X119062380Y-89017380D01*
X118824285Y-89017380D01*
X119729047Y-88017380D02*
X120348095Y-88017380D01*
X120014761Y-88398333D01*
X120157619Y-88398333D01*
X120252857Y-88445952D01*
X120300476Y-88493571D01*
X120348095Y-88588809D01*
X120348095Y-88826904D01*
X120300476Y-88922142D01*
X120252857Y-88969761D01*
X120157619Y-89017380D01*
X119871904Y-89017380D01*
X119776666Y-88969761D01*
X119729047Y-88922142D01*
%TO.C,PAND2*%
X132439523Y-61622380D02*
X132439523Y-60622380D01*
X132820476Y-60622380D01*
X132915714Y-60670000D01*
X132963333Y-60717619D01*
X133010952Y-60812857D01*
X133010952Y-60955714D01*
X132963333Y-61050952D01*
X132915714Y-61098571D01*
X132820476Y-61146190D01*
X132439523Y-61146190D01*
X133391904Y-61336666D02*
X133868095Y-61336666D01*
X133296666Y-61622380D02*
X133630000Y-60622380D01*
X133963333Y-61622380D01*
X134296666Y-61622380D02*
X134296666Y-60622380D01*
X134868095Y-61622380D01*
X134868095Y-60622380D01*
X135344285Y-61622380D02*
X135344285Y-60622380D01*
X135582380Y-60622380D01*
X135725238Y-60670000D01*
X135820476Y-60765238D01*
X135868095Y-60860476D01*
X135915714Y-61050952D01*
X135915714Y-61193809D01*
X135868095Y-61384285D01*
X135820476Y-61479523D01*
X135725238Y-61574761D01*
X135582380Y-61622380D01*
X135344285Y-61622380D01*
X136296666Y-60717619D02*
X136344285Y-60670000D01*
X136439523Y-60622380D01*
X136677619Y-60622380D01*
X136772857Y-60670000D01*
X136820476Y-60717619D01*
X136868095Y-60812857D01*
X136868095Y-60908095D01*
X136820476Y-61050952D01*
X136249047Y-61622380D01*
X136868095Y-61622380D01*
%TO.C,PAND1*%
X152809523Y-48452380D02*
X152809523Y-47452380D01*
X153190476Y-47452380D01*
X153285714Y-47500000D01*
X153333333Y-47547619D01*
X153380952Y-47642857D01*
X153380952Y-47785714D01*
X153333333Y-47880952D01*
X153285714Y-47928571D01*
X153190476Y-47976190D01*
X152809523Y-47976190D01*
X153761904Y-48166666D02*
X154238095Y-48166666D01*
X153666666Y-48452380D02*
X154000000Y-47452380D01*
X154333333Y-48452380D01*
X154666666Y-48452380D02*
X154666666Y-47452380D01*
X155238095Y-48452380D01*
X155238095Y-47452380D01*
X155714285Y-48452380D02*
X155714285Y-47452380D01*
X155952380Y-47452380D01*
X156095238Y-47500000D01*
X156190476Y-47595238D01*
X156238095Y-47690476D01*
X156285714Y-47880952D01*
X156285714Y-48023809D01*
X156238095Y-48214285D01*
X156190476Y-48309523D01*
X156095238Y-48404761D01*
X155952380Y-48452380D01*
X155714285Y-48452380D01*
X157238095Y-48452380D02*
X156666666Y-48452380D01*
X156952380Y-48452380D02*
X156952380Y-47452380D01*
X156857142Y-47595238D01*
X156761904Y-47690476D01*
X156666666Y-47738095D01*
%TO.C,JSerial_R-P1*%
X112500000Y-167212380D02*
X112500000Y-167926666D01*
X112452380Y-168069523D01*
X112357142Y-168164761D01*
X112214285Y-168212380D01*
X112119047Y-168212380D01*
X112928571Y-168164761D02*
X113071428Y-168212380D01*
X113309523Y-168212380D01*
X113404761Y-168164761D01*
X113452380Y-168117142D01*
X113500000Y-168021904D01*
X113500000Y-167926666D01*
X113452380Y-167831428D01*
X113404761Y-167783809D01*
X113309523Y-167736190D01*
X113119047Y-167688571D01*
X113023809Y-167640952D01*
X112976190Y-167593333D01*
X112928571Y-167498095D01*
X112928571Y-167402857D01*
X112976190Y-167307619D01*
X113023809Y-167260000D01*
X113119047Y-167212380D01*
X113357142Y-167212380D01*
X113500000Y-167260000D01*
X114309523Y-168164761D02*
X114214285Y-168212380D01*
X114023809Y-168212380D01*
X113928571Y-168164761D01*
X113880952Y-168069523D01*
X113880952Y-167688571D01*
X113928571Y-167593333D01*
X114023809Y-167545714D01*
X114214285Y-167545714D01*
X114309523Y-167593333D01*
X114357142Y-167688571D01*
X114357142Y-167783809D01*
X113880952Y-167879047D01*
X114785714Y-168212380D02*
X114785714Y-167545714D01*
X114785714Y-167736190D02*
X114833333Y-167640952D01*
X114880952Y-167593333D01*
X114976190Y-167545714D01*
X115071428Y-167545714D01*
X115404761Y-168212380D02*
X115404761Y-167545714D01*
X115404761Y-167212380D02*
X115357142Y-167260000D01*
X115404761Y-167307619D01*
X115452380Y-167260000D01*
X115404761Y-167212380D01*
X115404761Y-167307619D01*
X116309523Y-168212380D02*
X116309523Y-167688571D01*
X116261904Y-167593333D01*
X116166666Y-167545714D01*
X115976190Y-167545714D01*
X115880952Y-167593333D01*
X116309523Y-168164761D02*
X116214285Y-168212380D01*
X115976190Y-168212380D01*
X115880952Y-168164761D01*
X115833333Y-168069523D01*
X115833333Y-167974285D01*
X115880952Y-167879047D01*
X115976190Y-167831428D01*
X116214285Y-167831428D01*
X116309523Y-167783809D01*
X116928571Y-168212380D02*
X116833333Y-168164761D01*
X116785714Y-168069523D01*
X116785714Y-167212380D01*
X117071428Y-168307619D02*
X117833333Y-168307619D01*
X118642857Y-168212380D02*
X118309523Y-167736190D01*
X118071428Y-168212380D02*
X118071428Y-167212380D01*
X118452380Y-167212380D01*
X118547619Y-167260000D01*
X118595238Y-167307619D01*
X118642857Y-167402857D01*
X118642857Y-167545714D01*
X118595238Y-167640952D01*
X118547619Y-167688571D01*
X118452380Y-167736190D01*
X118071428Y-167736190D01*
X119071428Y-167831428D02*
X119833333Y-167831428D01*
X120309523Y-168212380D02*
X120309523Y-167212380D01*
X120690476Y-167212380D01*
X120785714Y-167260000D01*
X120833333Y-167307619D01*
X120880952Y-167402857D01*
X120880952Y-167545714D01*
X120833333Y-167640952D01*
X120785714Y-167688571D01*
X120690476Y-167736190D01*
X120309523Y-167736190D01*
X121833333Y-168212380D02*
X121261904Y-168212380D01*
X121547619Y-168212380D02*
X121547619Y-167212380D01*
X121452380Y-167355238D01*
X121357142Y-167450476D01*
X121261904Y-167498095D01*
%TO.C,JSelector1*%
X112095238Y-142892380D02*
X112095238Y-143606666D01*
X112047619Y-143749523D01*
X111952380Y-143844761D01*
X111809523Y-143892380D01*
X111714285Y-143892380D01*
X112523809Y-143844761D02*
X112666666Y-143892380D01*
X112904761Y-143892380D01*
X113000000Y-143844761D01*
X113047619Y-143797142D01*
X113095238Y-143701904D01*
X113095238Y-143606666D01*
X113047619Y-143511428D01*
X113000000Y-143463809D01*
X112904761Y-143416190D01*
X112714285Y-143368571D01*
X112619047Y-143320952D01*
X112571428Y-143273333D01*
X112523809Y-143178095D01*
X112523809Y-143082857D01*
X112571428Y-142987619D01*
X112619047Y-142940000D01*
X112714285Y-142892380D01*
X112952380Y-142892380D01*
X113095238Y-142940000D01*
X113904761Y-143844761D02*
X113809523Y-143892380D01*
X113619047Y-143892380D01*
X113523809Y-143844761D01*
X113476190Y-143749523D01*
X113476190Y-143368571D01*
X113523809Y-143273333D01*
X113619047Y-143225714D01*
X113809523Y-143225714D01*
X113904761Y-143273333D01*
X113952380Y-143368571D01*
X113952380Y-143463809D01*
X113476190Y-143559047D01*
X114523809Y-143892380D02*
X114428571Y-143844761D01*
X114380952Y-143749523D01*
X114380952Y-142892380D01*
X115285714Y-143844761D02*
X115190476Y-143892380D01*
X115000000Y-143892380D01*
X114904761Y-143844761D01*
X114857142Y-143749523D01*
X114857142Y-143368571D01*
X114904761Y-143273333D01*
X115000000Y-143225714D01*
X115190476Y-143225714D01*
X115285714Y-143273333D01*
X115333333Y-143368571D01*
X115333333Y-143463809D01*
X114857142Y-143559047D01*
X116190476Y-143844761D02*
X116095238Y-143892380D01*
X115904761Y-143892380D01*
X115809523Y-143844761D01*
X115761904Y-143797142D01*
X115714285Y-143701904D01*
X115714285Y-143416190D01*
X115761904Y-143320952D01*
X115809523Y-143273333D01*
X115904761Y-143225714D01*
X116095238Y-143225714D01*
X116190476Y-143273333D01*
X116476190Y-143225714D02*
X116857142Y-143225714D01*
X116619047Y-142892380D02*
X116619047Y-143749523D01*
X116666666Y-143844761D01*
X116761904Y-143892380D01*
X116857142Y-143892380D01*
X117333333Y-143892380D02*
X117238095Y-143844761D01*
X117190476Y-143797142D01*
X117142857Y-143701904D01*
X117142857Y-143416190D01*
X117190476Y-143320952D01*
X117238095Y-143273333D01*
X117333333Y-143225714D01*
X117476190Y-143225714D01*
X117571428Y-143273333D01*
X117619047Y-143320952D01*
X117666666Y-143416190D01*
X117666666Y-143701904D01*
X117619047Y-143797142D01*
X117571428Y-143844761D01*
X117476190Y-143892380D01*
X117333333Y-143892380D01*
X118095238Y-143892380D02*
X118095238Y-143225714D01*
X118095238Y-143416190D02*
X118142857Y-143320952D01*
X118190476Y-143273333D01*
X118285714Y-143225714D01*
X118380952Y-143225714D01*
X119238095Y-143892380D02*
X118666666Y-143892380D01*
X118952380Y-143892380D02*
X118952380Y-142892380D01*
X118857142Y-143035238D01*
X118761904Y-143130476D01*
X118666666Y-143178095D01*
%TO.C,JPower2*%
X154947619Y-195547619D02*
X154947619Y-194833333D01*
X154995238Y-194690476D01*
X155090476Y-194595238D01*
X155233333Y-194547619D01*
X155328571Y-194547619D01*
X154471428Y-194547619D02*
X154471428Y-195547619D01*
X154090476Y-195547619D01*
X153995238Y-195500000D01*
X153947619Y-195452380D01*
X153900000Y-195357142D01*
X153900000Y-195214285D01*
X153947619Y-195119047D01*
X153995238Y-195071428D01*
X154090476Y-195023809D01*
X154471428Y-195023809D01*
X153328571Y-194547619D02*
X153423809Y-194595238D01*
X153471428Y-194642857D01*
X153519047Y-194738095D01*
X153519047Y-195023809D01*
X153471428Y-195119047D01*
X153423809Y-195166666D01*
X153328571Y-195214285D01*
X153185714Y-195214285D01*
X153090476Y-195166666D01*
X153042857Y-195119047D01*
X152995238Y-195023809D01*
X152995238Y-194738095D01*
X153042857Y-194642857D01*
X153090476Y-194595238D01*
X153185714Y-194547619D01*
X153328571Y-194547619D01*
X152661904Y-195214285D02*
X152471428Y-194547619D01*
X152280952Y-195023809D01*
X152090476Y-194547619D01*
X151900000Y-195214285D01*
X151138095Y-194595238D02*
X151233333Y-194547619D01*
X151423809Y-194547619D01*
X151519047Y-194595238D01*
X151566666Y-194690476D01*
X151566666Y-195071428D01*
X151519047Y-195166666D01*
X151423809Y-195214285D01*
X151233333Y-195214285D01*
X151138095Y-195166666D01*
X151090476Y-195071428D01*
X151090476Y-194976190D01*
X151566666Y-194880952D01*
X150661904Y-194547619D02*
X150661904Y-195214285D01*
X150661904Y-195023809D02*
X150614285Y-195119047D01*
X150566666Y-195166666D01*
X150471428Y-195214285D01*
X150376190Y-195214285D01*
X150090476Y-195452380D02*
X150042857Y-195500000D01*
X149947619Y-195547619D01*
X149709523Y-195547619D01*
X149614285Y-195500000D01*
X149566666Y-195452380D01*
X149519047Y-195357142D01*
X149519047Y-195261904D01*
X149566666Y-195119047D01*
X150138095Y-194547619D01*
X149519047Y-194547619D01*
%TO.C,JPower1*%
X105452380Y-186992380D02*
X105452380Y-187706666D01*
X105404761Y-187849523D01*
X105309523Y-187944761D01*
X105166666Y-187992380D01*
X105071428Y-187992380D01*
X105928571Y-187992380D02*
X105928571Y-186992380D01*
X106309523Y-186992380D01*
X106404761Y-187040000D01*
X106452380Y-187087619D01*
X106500000Y-187182857D01*
X106500000Y-187325714D01*
X106452380Y-187420952D01*
X106404761Y-187468571D01*
X106309523Y-187516190D01*
X105928571Y-187516190D01*
X107071428Y-187992380D02*
X106976190Y-187944761D01*
X106928571Y-187897142D01*
X106880952Y-187801904D01*
X106880952Y-187516190D01*
X106928571Y-187420952D01*
X106976190Y-187373333D01*
X107071428Y-187325714D01*
X107214285Y-187325714D01*
X107309523Y-187373333D01*
X107357142Y-187420952D01*
X107404761Y-187516190D01*
X107404761Y-187801904D01*
X107357142Y-187897142D01*
X107309523Y-187944761D01*
X107214285Y-187992380D01*
X107071428Y-187992380D01*
X107738095Y-187325714D02*
X107928571Y-187992380D01*
X108119047Y-187516190D01*
X108309523Y-187992380D01*
X108500000Y-187325714D01*
X109261904Y-187944761D02*
X109166666Y-187992380D01*
X108976190Y-187992380D01*
X108880952Y-187944761D01*
X108833333Y-187849523D01*
X108833333Y-187468571D01*
X108880952Y-187373333D01*
X108976190Y-187325714D01*
X109166666Y-187325714D01*
X109261904Y-187373333D01*
X109309523Y-187468571D01*
X109309523Y-187563809D01*
X108833333Y-187659047D01*
X109738095Y-187992380D02*
X109738095Y-187325714D01*
X109738095Y-187516190D02*
X109785714Y-187420952D01*
X109833333Y-187373333D01*
X109928571Y-187325714D01*
X110023809Y-187325714D01*
X110880952Y-187992380D02*
X110309523Y-187992380D01*
X110595238Y-187992380D02*
X110595238Y-186992380D01*
X110500000Y-187135238D01*
X110404761Y-187230476D01*
X110309523Y-187278095D01*
%TO.C,J7*%
X170666666Y-174452380D02*
X170666666Y-175166666D01*
X170619047Y-175309523D01*
X170523809Y-175404761D01*
X170380952Y-175452380D01*
X170285714Y-175452380D01*
X171047619Y-174452380D02*
X171714285Y-174452380D01*
X171285714Y-175452380D01*
%TO.C,J6*%
X170666666Y-151452380D02*
X170666666Y-152166666D01*
X170619047Y-152309523D01*
X170523809Y-152404761D01*
X170380952Y-152452380D01*
X170285714Y-152452380D01*
X171571428Y-151452380D02*
X171380952Y-151452380D01*
X171285714Y-151500000D01*
X171238095Y-151547619D01*
X171142857Y-151690476D01*
X171095238Y-151880952D01*
X171095238Y-152261904D01*
X171142857Y-152357142D01*
X171190476Y-152404761D01*
X171285714Y-152452380D01*
X171476190Y-152452380D01*
X171571428Y-152404761D01*
X171619047Y-152357142D01*
X171666666Y-152261904D01*
X171666666Y-152023809D01*
X171619047Y-151928571D01*
X171571428Y-151880952D01*
X171476190Y-151833333D01*
X171285714Y-151833333D01*
X171190476Y-151880952D01*
X171142857Y-151928571D01*
X171095238Y-152023809D01*
%TO.C,J5*%
X170666666Y-128452380D02*
X170666666Y-129166666D01*
X170619047Y-129309523D01*
X170523809Y-129404761D01*
X170380952Y-129452380D01*
X170285714Y-129452380D01*
X171619047Y-128452380D02*
X171142857Y-128452380D01*
X171095238Y-128928571D01*
X171142857Y-128880952D01*
X171238095Y-128833333D01*
X171476190Y-128833333D01*
X171571428Y-128880952D01*
X171619047Y-128928571D01*
X171666666Y-129023809D01*
X171666666Y-129261904D01*
X171619047Y-129357142D01*
X171571428Y-129404761D01*
X171476190Y-129452380D01*
X171238095Y-129452380D01*
X171142857Y-129404761D01*
X171095238Y-129357142D01*
%TO.C,J4*%
X170666666Y-105452380D02*
X170666666Y-106166666D01*
X170619047Y-106309523D01*
X170523809Y-106404761D01*
X170380952Y-106452380D01*
X170285714Y-106452380D01*
X171571428Y-105785714D02*
X171571428Y-106452380D01*
X171333333Y-105404761D02*
X171095238Y-106119047D01*
X171714285Y-106119047D01*
%TO.C,J3*%
X170666666Y-82452380D02*
X170666666Y-83166666D01*
X170619047Y-83309523D01*
X170523809Y-83404761D01*
X170380952Y-83452380D01*
X170285714Y-83452380D01*
X171047619Y-82452380D02*
X171666666Y-82452380D01*
X171333333Y-82833333D01*
X171476190Y-82833333D01*
X171571428Y-82880952D01*
X171619047Y-82928571D01*
X171666666Y-83023809D01*
X171666666Y-83261904D01*
X171619047Y-83357142D01*
X171571428Y-83404761D01*
X171476190Y-83452380D01*
X171190476Y-83452380D01*
X171095238Y-83404761D01*
X171047619Y-83357142D01*
%TO.C,J2*%
X170666666Y-59452380D02*
X170666666Y-60166666D01*
X170619047Y-60309523D01*
X170523809Y-60404761D01*
X170380952Y-60452380D01*
X170285714Y-60452380D01*
X171095238Y-59547619D02*
X171142857Y-59500000D01*
X171238095Y-59452380D01*
X171476190Y-59452380D01*
X171571428Y-59500000D01*
X171619047Y-59547619D01*
X171666666Y-59642857D01*
X171666666Y-59738095D01*
X171619047Y-59880952D01*
X171047619Y-60452380D01*
X171666666Y-60452380D01*
%TO.C,J1*%
X170666666Y-36452380D02*
X170666666Y-37166666D01*
X170619047Y-37309523D01*
X170523809Y-37404761D01*
X170380952Y-37452380D01*
X170285714Y-37452380D01*
X171666666Y-37452380D02*
X171095238Y-37452380D01*
X171380952Y-37452380D02*
X171380952Y-36452380D01*
X171285714Y-36595238D01*
X171190476Y-36690476D01*
X171095238Y-36738095D01*
%TO.C,J0*%
X161666666Y-16452380D02*
X161666666Y-17166666D01*
X161619047Y-17309523D01*
X161523809Y-17404761D01*
X161380952Y-17452380D01*
X161285714Y-17452380D01*
X162333333Y-16452380D02*
X162428571Y-16452380D01*
X162523809Y-16500000D01*
X162571428Y-16547619D01*
X162619047Y-16642857D01*
X162666666Y-16833333D01*
X162666666Y-17071428D01*
X162619047Y-17261904D01*
X162571428Y-17357142D01*
X162523809Y-17404761D01*
X162428571Y-17452380D01*
X162333333Y-17452380D01*
X162238095Y-17404761D01*
X162190476Y-17357142D01*
X162142857Y-17261904D01*
X162095238Y-17071428D01*
X162095238Y-16833333D01*
X162142857Y-16642857D01*
X162190476Y-16547619D01*
X162238095Y-16500000D01*
X162333333Y-16452380D01*
%TO.C,INOT1*%
X116205238Y-41297380D02*
X116205238Y-40297380D01*
X116681428Y-41297380D02*
X116681428Y-40297380D01*
X117252857Y-41297380D01*
X117252857Y-40297380D01*
X117919523Y-40297380D02*
X118110000Y-40297380D01*
X118205238Y-40345000D01*
X118300476Y-40440238D01*
X118348095Y-40630714D01*
X118348095Y-40964047D01*
X118300476Y-41154523D01*
X118205238Y-41249761D01*
X118110000Y-41297380D01*
X117919523Y-41297380D01*
X117824285Y-41249761D01*
X117729047Y-41154523D01*
X117681428Y-40964047D01*
X117681428Y-40630714D01*
X117729047Y-40440238D01*
X117824285Y-40345000D01*
X117919523Y-40297380D01*
X118633809Y-40297380D02*
X119205238Y-40297380D01*
X118919523Y-41297380D02*
X118919523Y-40297380D01*
X120062380Y-41297380D02*
X119490952Y-41297380D01*
X119776666Y-41297380D02*
X119776666Y-40297380D01*
X119681428Y-40440238D01*
X119586190Y-40535476D01*
X119490952Y-40583095D01*
%TO.C,C12*%
X159607142Y-119857142D02*
X159559523Y-119904761D01*
X159416666Y-119952380D01*
X159321428Y-119952380D01*
X159178571Y-119904761D01*
X159083333Y-119809523D01*
X159035714Y-119714285D01*
X158988095Y-119523809D01*
X158988095Y-119380952D01*
X159035714Y-119190476D01*
X159083333Y-119095238D01*
X159178571Y-119000000D01*
X159321428Y-118952380D01*
X159416666Y-118952380D01*
X159559523Y-119000000D01*
X159607142Y-119047619D01*
X160559523Y-119952380D02*
X159988095Y-119952380D01*
X160273809Y-119952380D02*
X160273809Y-118952380D01*
X160178571Y-119095238D01*
X160083333Y-119190476D01*
X159988095Y-119238095D01*
X160940476Y-119047619D02*
X160988095Y-119000000D01*
X161083333Y-118952380D01*
X161321428Y-118952380D01*
X161416666Y-119000000D01*
X161464285Y-119047619D01*
X161511904Y-119142857D01*
X161511904Y-119238095D01*
X161464285Y-119380952D01*
X160892857Y-119952380D01*
X161511904Y-119952380D01*
%TO.C,C11*%
X125607142Y-40857142D02*
X125559523Y-40904761D01*
X125416666Y-40952380D01*
X125321428Y-40952380D01*
X125178571Y-40904761D01*
X125083333Y-40809523D01*
X125035714Y-40714285D01*
X124988095Y-40523809D01*
X124988095Y-40380952D01*
X125035714Y-40190476D01*
X125083333Y-40095238D01*
X125178571Y-40000000D01*
X125321428Y-39952380D01*
X125416666Y-39952380D01*
X125559523Y-40000000D01*
X125607142Y-40047619D01*
X126559523Y-40952380D02*
X125988095Y-40952380D01*
X126273809Y-40952380D02*
X126273809Y-39952380D01*
X126178571Y-40095238D01*
X126083333Y-40190476D01*
X125988095Y-40238095D01*
X127511904Y-40952380D02*
X126940476Y-40952380D01*
X127226190Y-40952380D02*
X127226190Y-39952380D01*
X127130952Y-40095238D01*
X127035714Y-40190476D01*
X126940476Y-40238095D01*
%TO.C,C10*%
X159607142Y-48857142D02*
X159559523Y-48904761D01*
X159416666Y-48952380D01*
X159321428Y-48952380D01*
X159178571Y-48904761D01*
X159083333Y-48809523D01*
X159035714Y-48714285D01*
X158988095Y-48523809D01*
X158988095Y-48380952D01*
X159035714Y-48190476D01*
X159083333Y-48095238D01*
X159178571Y-48000000D01*
X159321428Y-47952380D01*
X159416666Y-47952380D01*
X159559523Y-48000000D01*
X159607142Y-48047619D01*
X160559523Y-48952380D02*
X159988095Y-48952380D01*
X160273809Y-48952380D02*
X160273809Y-47952380D01*
X160178571Y-48095238D01*
X160083333Y-48190476D01*
X159988095Y-48238095D01*
X161178571Y-47952380D02*
X161273809Y-47952380D01*
X161369047Y-48000000D01*
X161416666Y-48047619D01*
X161464285Y-48142857D01*
X161511904Y-48333333D01*
X161511904Y-48571428D01*
X161464285Y-48761904D01*
X161416666Y-48857142D01*
X161369047Y-48904761D01*
X161273809Y-48952380D01*
X161178571Y-48952380D01*
X161083333Y-48904761D01*
X161035714Y-48857142D01*
X160988095Y-48761904D01*
X160940476Y-48571428D01*
X160940476Y-48333333D01*
X160988095Y-48142857D01*
X161035714Y-48047619D01*
X161083333Y-48000000D01*
X161178571Y-47952380D01*
%TO.C,C9*%
X143083333Y-90857142D02*
X143035714Y-90904761D01*
X142892857Y-90952380D01*
X142797619Y-90952380D01*
X142654761Y-90904761D01*
X142559523Y-90809523D01*
X142511904Y-90714285D01*
X142464285Y-90523809D01*
X142464285Y-90380952D01*
X142511904Y-90190476D01*
X142559523Y-90095238D01*
X142654761Y-90000000D01*
X142797619Y-89952380D01*
X142892857Y-89952380D01*
X143035714Y-90000000D01*
X143083333Y-90047619D01*
X143559523Y-90952380D02*
X143750000Y-90952380D01*
X143845238Y-90904761D01*
X143892857Y-90857142D01*
X143988095Y-90714285D01*
X144035714Y-90523809D01*
X144035714Y-90142857D01*
X143988095Y-90047619D01*
X143940476Y-90000000D01*
X143845238Y-89952380D01*
X143654761Y-89952380D01*
X143559523Y-90000000D01*
X143511904Y-90047619D01*
X143464285Y-90142857D01*
X143464285Y-90380952D01*
X143511904Y-90476190D01*
X143559523Y-90523809D01*
X143654761Y-90571428D01*
X143845238Y-90571428D01*
X143940476Y-90523809D01*
X143988095Y-90476190D01*
X144035714Y-90380952D01*
%TO.C,C8*%
X143083333Y-118857142D02*
X143035714Y-118904761D01*
X142892857Y-118952380D01*
X142797619Y-118952380D01*
X142654761Y-118904761D01*
X142559523Y-118809523D01*
X142511904Y-118714285D01*
X142464285Y-118523809D01*
X142464285Y-118380952D01*
X142511904Y-118190476D01*
X142559523Y-118095238D01*
X142654761Y-118000000D01*
X142797619Y-117952380D01*
X142892857Y-117952380D01*
X143035714Y-118000000D01*
X143083333Y-118047619D01*
X143654761Y-118380952D02*
X143559523Y-118333333D01*
X143511904Y-118285714D01*
X143464285Y-118190476D01*
X143464285Y-118142857D01*
X143511904Y-118047619D01*
X143559523Y-118000000D01*
X143654761Y-117952380D01*
X143845238Y-117952380D01*
X143940476Y-118000000D01*
X143988095Y-118047619D01*
X144035714Y-118142857D01*
X144035714Y-118190476D01*
X143988095Y-118285714D01*
X143940476Y-118333333D01*
X143845238Y-118380952D01*
X143654761Y-118380952D01*
X143559523Y-118428571D01*
X143511904Y-118476190D01*
X143464285Y-118571428D01*
X143464285Y-118761904D01*
X143511904Y-118857142D01*
X143559523Y-118904761D01*
X143654761Y-118952380D01*
X143845238Y-118952380D01*
X143940476Y-118904761D01*
X143988095Y-118857142D01*
X144035714Y-118761904D01*
X144035714Y-118571428D01*
X143988095Y-118476190D01*
X143940476Y-118428571D01*
X143845238Y-118380952D01*
%TO.C,C7*%
X121833333Y-86357142D02*
X121785714Y-86404761D01*
X121642857Y-86452380D01*
X121547619Y-86452380D01*
X121404761Y-86404761D01*
X121309523Y-86309523D01*
X121261904Y-86214285D01*
X121214285Y-86023809D01*
X121214285Y-85880952D01*
X121261904Y-85690476D01*
X121309523Y-85595238D01*
X121404761Y-85500000D01*
X121547619Y-85452380D01*
X121642857Y-85452380D01*
X121785714Y-85500000D01*
X121833333Y-85547619D01*
X122166666Y-85452380D02*
X122833333Y-85452380D01*
X122404761Y-86452380D01*
%TO.C,C6*%
X160083333Y-73857142D02*
X160035714Y-73904761D01*
X159892857Y-73952380D01*
X159797619Y-73952380D01*
X159654761Y-73904761D01*
X159559523Y-73809523D01*
X159511904Y-73714285D01*
X159464285Y-73523809D01*
X159464285Y-73380952D01*
X159511904Y-73190476D01*
X159559523Y-73095238D01*
X159654761Y-73000000D01*
X159797619Y-72952380D01*
X159892857Y-72952380D01*
X160035714Y-73000000D01*
X160083333Y-73047619D01*
X160940476Y-72952380D02*
X160750000Y-72952380D01*
X160654761Y-73000000D01*
X160607142Y-73047619D01*
X160511904Y-73190476D01*
X160464285Y-73380952D01*
X160464285Y-73761904D01*
X160511904Y-73857142D01*
X160559523Y-73904761D01*
X160654761Y-73952380D01*
X160845238Y-73952380D01*
X160940476Y-73904761D01*
X160988095Y-73857142D01*
X161035714Y-73761904D01*
X161035714Y-73523809D01*
X160988095Y-73428571D01*
X160940476Y-73380952D01*
X160845238Y-73333333D01*
X160654761Y-73333333D01*
X160559523Y-73380952D01*
X160511904Y-73428571D01*
X160464285Y-73523809D01*
%TO.C,C5*%
X160083333Y-152857142D02*
X160035714Y-152904761D01*
X159892857Y-152952380D01*
X159797619Y-152952380D01*
X159654761Y-152904761D01*
X159559523Y-152809523D01*
X159511904Y-152714285D01*
X159464285Y-152523809D01*
X159464285Y-152380952D01*
X159511904Y-152190476D01*
X159559523Y-152095238D01*
X159654761Y-152000000D01*
X159797619Y-151952380D01*
X159892857Y-151952380D01*
X160035714Y-152000000D01*
X160083333Y-152047619D01*
X160988095Y-151952380D02*
X160511904Y-151952380D01*
X160464285Y-152428571D01*
X160511904Y-152380952D01*
X160607142Y-152333333D01*
X160845238Y-152333333D01*
X160940476Y-152380952D01*
X160988095Y-152428571D01*
X161035714Y-152523809D01*
X161035714Y-152761904D01*
X160988095Y-152857142D01*
X160940476Y-152904761D01*
X160845238Y-152952380D01*
X160607142Y-152952380D01*
X160511904Y-152904761D01*
X160464285Y-152857142D01*
%TO.C,C4*%
X143083333Y-28857142D02*
X143035714Y-28904761D01*
X142892857Y-28952380D01*
X142797619Y-28952380D01*
X142654761Y-28904761D01*
X142559523Y-28809523D01*
X142511904Y-28714285D01*
X142464285Y-28523809D01*
X142464285Y-28380952D01*
X142511904Y-28190476D01*
X142559523Y-28095238D01*
X142654761Y-28000000D01*
X142797619Y-27952380D01*
X142892857Y-27952380D01*
X143035714Y-28000000D01*
X143083333Y-28047619D01*
X143940476Y-28285714D02*
X143940476Y-28952380D01*
X143702380Y-27904761D02*
X143464285Y-28619047D01*
X144083333Y-28619047D01*
%TO.C,C3*%
X143083333Y-60857142D02*
X143035714Y-60904761D01*
X142892857Y-60952380D01*
X142797619Y-60952380D01*
X142654761Y-60904761D01*
X142559523Y-60809523D01*
X142511904Y-60714285D01*
X142464285Y-60523809D01*
X142464285Y-60380952D01*
X142511904Y-60190476D01*
X142559523Y-60095238D01*
X142654761Y-60000000D01*
X142797619Y-59952380D01*
X142892857Y-59952380D01*
X143035714Y-60000000D01*
X143083333Y-60047619D01*
X143416666Y-59952380D02*
X144035714Y-59952380D01*
X143702380Y-60333333D01*
X143845238Y-60333333D01*
X143940476Y-60380952D01*
X143988095Y-60428571D01*
X144035714Y-60523809D01*
X144035714Y-60761904D01*
X143988095Y-60857142D01*
X143940476Y-60904761D01*
X143845238Y-60952380D01*
X143559523Y-60952380D01*
X143464285Y-60904761D01*
X143416666Y-60857142D01*
%TO.C,C2*%
X160083333Y-25857142D02*
X160035714Y-25904761D01*
X159892857Y-25952380D01*
X159797619Y-25952380D01*
X159654761Y-25904761D01*
X159559523Y-25809523D01*
X159511904Y-25714285D01*
X159464285Y-25523809D01*
X159464285Y-25380952D01*
X159511904Y-25190476D01*
X159559523Y-25095238D01*
X159654761Y-25000000D01*
X159797619Y-24952380D01*
X159892857Y-24952380D01*
X160035714Y-25000000D01*
X160083333Y-25047619D01*
X160464285Y-25047619D02*
X160511904Y-25000000D01*
X160607142Y-24952380D01*
X160845238Y-24952380D01*
X160940476Y-25000000D01*
X160988095Y-25047619D01*
X161035714Y-25142857D01*
X161035714Y-25238095D01*
X160988095Y-25380952D01*
X160416666Y-25952380D01*
X161035714Y-25952380D01*
%TO.C,C1*%
X115857142Y-187576666D02*
X115904761Y-187624285D01*
X115952380Y-187767142D01*
X115952380Y-187862380D01*
X115904761Y-188005238D01*
X115809523Y-188100476D01*
X115714285Y-188148095D01*
X115523809Y-188195714D01*
X115380952Y-188195714D01*
X115190476Y-188148095D01*
X115095238Y-188100476D01*
X115000000Y-188005238D01*
X114952380Y-187862380D01*
X114952380Y-187767142D01*
X115000000Y-187624285D01*
X115047619Y-187576666D01*
X115952380Y-186624285D02*
X115952380Y-187195714D01*
X115952380Y-186910000D02*
X114952380Y-186910000D01*
X115095238Y-187005238D01*
X115190476Y-187100476D01*
X115238095Y-187195714D01*
D13*
%TO.C,R90*%
X139040000Y-113000000D02*
X138270000Y-113000000D01*
X130960000Y-113000000D02*
X131730000Y-113000000D01*
X131730000Y-111630000D02*
X131730000Y-114370000D01*
X138270000Y-114370000D02*
X138270000Y-111630000D01*
X131730000Y-114370000D02*
X138270000Y-114370000D01*
X138270000Y-111630000D02*
X131730000Y-111630000D01*
%TO.C,R89*%
X127040000Y-127000000D02*
X126270000Y-127000000D01*
X118960000Y-127000000D02*
X119730000Y-127000000D01*
X119730000Y-125630000D02*
X119730000Y-128370000D01*
X126270000Y-128370000D02*
X126270000Y-125630000D01*
X119730000Y-128370000D02*
X126270000Y-128370000D01*
X126270000Y-125630000D02*
X119730000Y-125630000D01*
%TO.C,R87*%
X142960000Y-102000000D02*
X143730000Y-102000000D01*
X151040000Y-102000000D02*
X150270000Y-102000000D01*
X150270000Y-103370000D02*
X150270000Y-100630000D01*
X143730000Y-100630000D02*
X143730000Y-103370000D01*
X150270000Y-100630000D02*
X143730000Y-100630000D01*
X143730000Y-103370000D02*
X150270000Y-103370000D01*
%TO.C,R86*%
X122040000Y-116000000D02*
X121270000Y-116000000D01*
X113960000Y-116000000D02*
X114730000Y-116000000D01*
X114730000Y-114630000D02*
X114730000Y-117370000D01*
X121270000Y-117370000D02*
X121270000Y-114630000D01*
X114730000Y-117370000D02*
X121270000Y-117370000D01*
X121270000Y-114630000D02*
X114730000Y-114630000D01*
%TO.C,R85*%
X142960000Y-108000000D02*
X143730000Y-108000000D01*
X151040000Y-108000000D02*
X150270000Y-108000000D01*
X150270000Y-109370000D02*
X150270000Y-106630000D01*
X143730000Y-106630000D02*
X143730000Y-109370000D01*
X150270000Y-106630000D02*
X143730000Y-106630000D01*
X143730000Y-109370000D02*
X150270000Y-109370000D01*
%TO.C,R84*%
X142960000Y-105000000D02*
X143730000Y-105000000D01*
X151040000Y-105000000D02*
X150270000Y-105000000D01*
X150270000Y-106370000D02*
X150270000Y-103630000D01*
X143730000Y-103630000D02*
X143730000Y-106370000D01*
X150270000Y-103630000D02*
X143730000Y-103630000D01*
X143730000Y-106370000D02*
X150270000Y-106370000D01*
%TO.C,R83*%
X126960000Y-136000000D02*
X126190000Y-136000000D01*
X118880000Y-136000000D02*
X119650000Y-136000000D01*
X119650000Y-134630000D02*
X119650000Y-137370000D01*
X126190000Y-137370000D02*
X126190000Y-134630000D01*
X119650000Y-137370000D02*
X126190000Y-137370000D01*
X126190000Y-134630000D02*
X119650000Y-134630000D01*
%TO.C,R82*%
X144000000Y-137960000D02*
X144000000Y-138730000D01*
X144000000Y-146040000D02*
X144000000Y-145270000D01*
X142630000Y-145270000D02*
X145370000Y-145270000D01*
X145370000Y-138730000D02*
X142630000Y-138730000D01*
X145370000Y-145270000D02*
X145370000Y-138730000D01*
X142630000Y-138730000D02*
X142630000Y-145270000D01*
%TO.C,R81*%
X127040000Y-130000000D02*
X126270000Y-130000000D01*
X118960000Y-130000000D02*
X119730000Y-130000000D01*
X119730000Y-128630000D02*
X119730000Y-131370000D01*
X126270000Y-131370000D02*
X126270000Y-128630000D01*
X119730000Y-131370000D02*
X126270000Y-131370000D01*
X126270000Y-128630000D02*
X119730000Y-128630000D01*
%TO.C,R80*%
X127040000Y-133000000D02*
X126270000Y-133000000D01*
X118960000Y-133000000D02*
X119730000Y-133000000D01*
X119730000Y-131630000D02*
X119730000Y-134370000D01*
X126270000Y-134370000D02*
X126270000Y-131630000D01*
X119730000Y-134370000D02*
X126270000Y-134370000D01*
X126270000Y-131630000D02*
X119730000Y-131630000D01*
%TO.C,R79*%
X126960000Y-124000000D02*
X126190000Y-124000000D01*
X118880000Y-124000000D02*
X119650000Y-124000000D01*
X119650000Y-122630000D02*
X119650000Y-125370000D01*
X126190000Y-125370000D02*
X126190000Y-122630000D01*
X119650000Y-125370000D02*
X126190000Y-125370000D01*
X126190000Y-122630000D02*
X119650000Y-122630000D01*
%TO.C,R78*%
X127040000Y-121000000D02*
X126270000Y-121000000D01*
X118960000Y-121000000D02*
X119730000Y-121000000D01*
X119730000Y-119630000D02*
X119730000Y-122370000D01*
X126270000Y-122370000D02*
X126270000Y-119630000D01*
X119730000Y-122370000D02*
X126270000Y-122370000D01*
X126270000Y-119630000D02*
X119730000Y-119630000D01*
%TO.C,R77*%
X138960000Y-116000000D02*
X139730000Y-116000000D01*
X147040000Y-116000000D02*
X146270000Y-116000000D01*
X146270000Y-117370000D02*
X146270000Y-114630000D01*
X139730000Y-114630000D02*
X139730000Y-117370000D01*
X146270000Y-114630000D02*
X139730000Y-114630000D01*
X139730000Y-117370000D02*
X146270000Y-117370000D01*
%TO.C,R76*%
X144000000Y-124960000D02*
X144000000Y-125730000D01*
X144000000Y-133040000D02*
X144000000Y-132270000D01*
X142630000Y-132270000D02*
X145370000Y-132270000D01*
X145370000Y-125730000D02*
X142630000Y-125730000D01*
X145370000Y-132270000D02*
X145370000Y-125730000D01*
X142630000Y-125730000D02*
X142630000Y-132270000D01*
%TO.C,R69*%
X113960000Y-108000000D02*
X114730000Y-108000000D01*
X122040000Y-108000000D02*
X121270000Y-108000000D01*
X121270000Y-109370000D02*
X121270000Y-106630000D01*
X114730000Y-106630000D02*
X114730000Y-109370000D01*
X121270000Y-106630000D02*
X114730000Y-106630000D01*
X114730000Y-109370000D02*
X121270000Y-109370000D01*
%TO.C,R67*%
X127120000Y-38000000D02*
X126350000Y-38000000D01*
X119040000Y-38000000D02*
X119810000Y-38000000D01*
X119810000Y-36630000D02*
X119810000Y-39370000D01*
X126350000Y-39370000D02*
X126350000Y-36630000D01*
X119810000Y-39370000D02*
X126350000Y-39370000D01*
X126350000Y-36630000D02*
X119810000Y-36630000D01*
%TO.C,R64*%
X127040000Y-31000000D02*
X126270000Y-31000000D01*
X118960000Y-31000000D02*
X119730000Y-31000000D01*
X119730000Y-29630000D02*
X119730000Y-32370000D01*
X126270000Y-32370000D02*
X126270000Y-29630000D01*
X119730000Y-32370000D02*
X126270000Y-32370000D01*
X126270000Y-29630000D02*
X119730000Y-29630000D01*
%TO.C,R62*%
X138040000Y-28000000D02*
X137270000Y-28000000D01*
X129960000Y-28000000D02*
X130730000Y-28000000D01*
X130730000Y-26630000D02*
X130730000Y-29370000D01*
X137270000Y-29370000D02*
X137270000Y-26630000D01*
X130730000Y-29370000D02*
X137270000Y-29370000D01*
X137270000Y-26630000D02*
X130730000Y-26630000D01*
%TO.C,R61*%
X116960000Y-82000000D02*
X117730000Y-82000000D01*
X125040000Y-82000000D02*
X124270000Y-82000000D01*
X124270000Y-83370000D02*
X124270000Y-80630000D01*
X117730000Y-80630000D02*
X117730000Y-83370000D01*
X124270000Y-80630000D02*
X117730000Y-80630000D01*
X117730000Y-83370000D02*
X124270000Y-83370000D01*
%TO.C,R60*%
X111000000Y-47040000D02*
X111000000Y-46270000D01*
X111000000Y-38960000D02*
X111000000Y-39730000D01*
X112370000Y-39730000D02*
X109630000Y-39730000D01*
X109630000Y-46270000D02*
X112370000Y-46270000D01*
X109630000Y-39730000D02*
X109630000Y-46270000D01*
X112370000Y-46270000D02*
X112370000Y-39730000D01*
%TO.C,R59*%
X110000000Y-90040000D02*
X110000000Y-89270000D01*
X110000000Y-81960000D02*
X110000000Y-82730000D01*
X111370000Y-82730000D02*
X108630000Y-82730000D01*
X108630000Y-89270000D02*
X111370000Y-89270000D01*
X108630000Y-82730000D02*
X108630000Y-89270000D01*
X111370000Y-89270000D02*
X111370000Y-82730000D01*
%TO.C,R54*%
X110000000Y-96960000D02*
X110000000Y-97730000D01*
X110000000Y-105040000D02*
X110000000Y-104270000D01*
X108630000Y-104270000D02*
X111370000Y-104270000D01*
X111370000Y-97730000D02*
X108630000Y-97730000D01*
X111370000Y-104270000D02*
X111370000Y-97730000D01*
X108630000Y-97730000D02*
X108630000Y-104270000D01*
%TO.C,R53*%
X107000000Y-96960000D02*
X107000000Y-97730000D01*
X107000000Y-105040000D02*
X107000000Y-104270000D01*
X105630000Y-104270000D02*
X108370000Y-104270000D01*
X108370000Y-97730000D02*
X105630000Y-97730000D01*
X108370000Y-104270000D02*
X108370000Y-97730000D01*
X105630000Y-97730000D02*
X105630000Y-104270000D01*
%TO.C,R52*%
X118960000Y-35000000D02*
X119730000Y-35000000D01*
X127040000Y-35000000D02*
X126270000Y-35000000D01*
X126270000Y-36370000D02*
X126270000Y-33630000D01*
X119730000Y-33630000D02*
X119730000Y-36370000D01*
X126270000Y-33630000D02*
X119730000Y-33630000D01*
X119730000Y-36370000D02*
X126270000Y-36370000D01*
%TO.C,R49*%
X125040000Y-64000000D02*
X124270000Y-64000000D01*
X116960000Y-64000000D02*
X117730000Y-64000000D01*
X117730000Y-62630000D02*
X117730000Y-65370000D01*
X124270000Y-65370000D02*
X124270000Y-62630000D01*
X117730000Y-65370000D02*
X124270000Y-65370000D01*
X124270000Y-62630000D02*
X117730000Y-62630000D01*
%TO.C,R48*%
X135040000Y-59000000D02*
X134270000Y-59000000D01*
X126960000Y-59000000D02*
X127730000Y-59000000D01*
X127730000Y-57630000D02*
X127730000Y-60370000D01*
X134270000Y-60370000D02*
X134270000Y-57630000D01*
X127730000Y-60370000D02*
X134270000Y-60370000D01*
X134270000Y-57630000D02*
X127730000Y-57630000D01*
%TO.C,R46*%
X125040000Y-73000000D02*
X124270000Y-73000000D01*
X116960000Y-73000000D02*
X117730000Y-73000000D01*
X117730000Y-71630000D02*
X117730000Y-74370000D01*
X124270000Y-74370000D02*
X124270000Y-71630000D01*
X117730000Y-74370000D02*
X124270000Y-74370000D01*
X124270000Y-71630000D02*
X117730000Y-71630000D01*
%TO.C,R45*%
X125120000Y-76000000D02*
X124350000Y-76000000D01*
X117040000Y-76000000D02*
X117810000Y-76000000D01*
X117810000Y-74630000D02*
X117810000Y-77370000D01*
X124350000Y-77370000D02*
X124350000Y-74630000D01*
X117810000Y-77370000D02*
X124350000Y-77370000D01*
X124350000Y-74630000D02*
X117810000Y-74630000D01*
%TO.C,R44*%
X125040000Y-79000000D02*
X124270000Y-79000000D01*
X116960000Y-79000000D02*
X117730000Y-79000000D01*
X117730000Y-77630000D02*
X117730000Y-80370000D01*
X124270000Y-80370000D02*
X124270000Y-77630000D01*
X117730000Y-80370000D02*
X124270000Y-80370000D01*
X124270000Y-77630000D02*
X117730000Y-77630000D01*
%TO.C,R43*%
X111000000Y-51960000D02*
X111000000Y-52730000D01*
X111000000Y-60040000D02*
X111000000Y-59270000D01*
X109630000Y-59270000D02*
X112370000Y-59270000D01*
X112370000Y-52730000D02*
X109630000Y-52730000D01*
X112370000Y-59270000D02*
X112370000Y-52730000D01*
X109630000Y-52730000D02*
X109630000Y-59270000D01*
%TO.C,R41*%
X144040000Y-52000000D02*
X143270000Y-52000000D01*
X135960000Y-52000000D02*
X136730000Y-52000000D01*
X136730000Y-50630000D02*
X136730000Y-53370000D01*
X143270000Y-53370000D02*
X143270000Y-50630000D01*
X136730000Y-53370000D02*
X143270000Y-53370000D01*
X143270000Y-50630000D02*
X136730000Y-50630000D01*
%TO.C,R38*%
X144040000Y-55000000D02*
X143270000Y-55000000D01*
X135960000Y-55000000D02*
X136730000Y-55000000D01*
X136730000Y-53630000D02*
X136730000Y-56370000D01*
X143270000Y-56370000D02*
X143270000Y-53630000D01*
X136730000Y-56370000D02*
X143270000Y-56370000D01*
X143270000Y-53630000D02*
X136730000Y-53630000D01*
%TO.C,R34*%
X144040000Y-159000000D02*
X143270000Y-159000000D01*
X135960000Y-159000000D02*
X136730000Y-159000000D01*
X136730000Y-157630000D02*
X136730000Y-160370000D01*
X143270000Y-160370000D02*
X143270000Y-157630000D01*
X136730000Y-160370000D02*
X143270000Y-160370000D01*
X143270000Y-157630000D02*
X136730000Y-157630000D01*
%TO.C,R33*%
X122040000Y-112320000D02*
X121270000Y-112320000D01*
X113960000Y-112320000D02*
X114730000Y-112320000D01*
X114730000Y-110950000D02*
X114730000Y-113690000D01*
X121270000Y-113690000D02*
X121270000Y-110950000D01*
X114730000Y-113690000D02*
X121270000Y-113690000D01*
X121270000Y-110950000D02*
X114730000Y-110950000D01*
%TO.C,R31*%
X161000000Y-163960000D02*
X161000000Y-164730000D01*
X161000000Y-172040000D02*
X161000000Y-171270000D01*
X159630000Y-171270000D02*
X162370000Y-171270000D01*
X162370000Y-164730000D02*
X159630000Y-164730000D01*
X162370000Y-171270000D02*
X162370000Y-164730000D01*
X159630000Y-164730000D02*
X159630000Y-171270000D01*
%TO.C,R30*%
X143000000Y-171040000D02*
X143000000Y-170270000D01*
X143000000Y-162960000D02*
X143000000Y-163730000D01*
X144370000Y-163730000D02*
X141630000Y-163730000D01*
X141630000Y-170270000D02*
X144370000Y-170270000D01*
X141630000Y-163730000D02*
X141630000Y-170270000D01*
X144370000Y-170270000D02*
X144370000Y-163730000D01*
%TO.C,R27*%
X160040000Y-176000000D02*
X159270000Y-176000000D01*
X151960000Y-176000000D02*
X152730000Y-176000000D01*
X152730000Y-174630000D02*
X152730000Y-177370000D01*
X159270000Y-177370000D02*
X159270000Y-174630000D01*
X152730000Y-177370000D02*
X159270000Y-177370000D01*
X159270000Y-174630000D02*
X152730000Y-174630000D01*
%TO.C,R26*%
X161040000Y-116000000D02*
X160270000Y-116000000D01*
X152960000Y-116000000D02*
X153730000Y-116000000D01*
X153730000Y-114630000D02*
X153730000Y-117370000D01*
X160270000Y-117370000D02*
X160270000Y-114630000D01*
X153730000Y-117370000D02*
X160270000Y-117370000D01*
X160270000Y-114630000D02*
X153730000Y-114630000D01*
%TO.C,R25*%
X139040000Y-83000000D02*
X138270000Y-83000000D01*
X130960000Y-83000000D02*
X131730000Y-83000000D01*
X131730000Y-81630000D02*
X131730000Y-84370000D01*
X138270000Y-84370000D02*
X138270000Y-81630000D01*
X131730000Y-84370000D02*
X138270000Y-84370000D01*
X138270000Y-81630000D02*
X131730000Y-81630000D01*
%TO.C,R24*%
X126000000Y-97960000D02*
X126000000Y-98730000D01*
X126000000Y-106040000D02*
X126000000Y-105270000D01*
X124630000Y-105270000D02*
X127370000Y-105270000D01*
X127370000Y-98730000D02*
X124630000Y-98730000D01*
X127370000Y-105270000D02*
X127370000Y-98730000D01*
X124630000Y-98730000D02*
X124630000Y-105270000D01*
%TO.C,R23*%
X158040000Y-144000000D02*
X157270000Y-144000000D01*
X149960000Y-144000000D02*
X150730000Y-144000000D01*
X150730000Y-142630000D02*
X150730000Y-145370000D01*
X157270000Y-145370000D02*
X157270000Y-142630000D01*
X150730000Y-145370000D02*
X157270000Y-145370000D01*
X157270000Y-142630000D02*
X150730000Y-142630000D01*
%TO.C,R22*%
X161000000Y-135040000D02*
X161000000Y-134270000D01*
X161000000Y-126960000D02*
X161000000Y-127730000D01*
X162370000Y-127730000D02*
X159630000Y-127730000D01*
X159630000Y-134270000D02*
X162370000Y-134270000D01*
X159630000Y-127730000D02*
X159630000Y-134270000D01*
X162370000Y-134270000D02*
X162370000Y-127730000D01*
%TO.C,R19*%
X158040000Y-141000000D02*
X157270000Y-141000000D01*
X149960000Y-141000000D02*
X150730000Y-141000000D01*
X150730000Y-139630000D02*
X150730000Y-142370000D01*
X157270000Y-142370000D02*
X157270000Y-139630000D01*
X150730000Y-142370000D02*
X157270000Y-142370000D01*
X157270000Y-139630000D02*
X150730000Y-139630000D01*
%TO.C,R18*%
X161000000Y-81960000D02*
X161000000Y-82730000D01*
X161000000Y-90040000D02*
X161000000Y-89270000D01*
X159630000Y-89270000D02*
X162370000Y-89270000D01*
X162370000Y-82730000D02*
X159630000Y-82730000D01*
X162370000Y-89270000D02*
X162370000Y-82730000D01*
X159630000Y-82730000D02*
X159630000Y-89270000D01*
%TO.C,R17*%
X139040000Y-86000000D02*
X138270000Y-86000000D01*
X130960000Y-86000000D02*
X131730000Y-86000000D01*
X131730000Y-84630000D02*
X131730000Y-87370000D01*
X138270000Y-87370000D02*
X138270000Y-84630000D01*
X131730000Y-87370000D02*
X138270000Y-87370000D01*
X138270000Y-84630000D02*
X131730000Y-84630000D01*
%TO.C,R16*%
X141000000Y-66960000D02*
X141000000Y-67730000D01*
X141000000Y-75040000D02*
X141000000Y-74270000D01*
X139630000Y-74270000D02*
X142370000Y-74270000D01*
X142370000Y-67730000D02*
X139630000Y-67730000D01*
X142370000Y-74270000D02*
X142370000Y-67730000D01*
X139630000Y-67730000D02*
X139630000Y-74270000D01*
%TO.C,R15*%
X158040000Y-96000000D02*
X157270000Y-96000000D01*
X149960000Y-96000000D02*
X150730000Y-96000000D01*
X150730000Y-94630000D02*
X150730000Y-97370000D01*
X157270000Y-97370000D02*
X157270000Y-94630000D01*
X150730000Y-97370000D02*
X157270000Y-97370000D01*
X157270000Y-94630000D02*
X150730000Y-94630000D01*
%TO.C,R14*%
X144000000Y-86960000D02*
X144000000Y-86190000D01*
X144000000Y-78880000D02*
X144000000Y-79650000D01*
X145370000Y-79650000D02*
X142630000Y-79650000D01*
X142630000Y-86190000D02*
X145370000Y-86190000D01*
X142630000Y-79650000D02*
X142630000Y-86190000D01*
X145370000Y-86190000D02*
X145370000Y-79650000D01*
%TO.C,R11*%
X160000000Y-111040000D02*
X160000000Y-110270000D01*
X160000000Y-102960000D02*
X160000000Y-103730000D01*
X161370000Y-103730000D02*
X158630000Y-103730000D01*
X158630000Y-110270000D02*
X161370000Y-110270000D01*
X158630000Y-103730000D02*
X158630000Y-110270000D01*
X161370000Y-110270000D02*
X161370000Y-103730000D01*
%TO.C,R10*%
X143000000Y-34960000D02*
X143000000Y-35730000D01*
X143000000Y-43040000D02*
X143000000Y-42270000D01*
X141630000Y-42270000D02*
X144370000Y-42270000D01*
X144370000Y-35730000D02*
X141630000Y-35730000D01*
X144370000Y-42270000D02*
X144370000Y-35730000D01*
X141630000Y-35730000D02*
X141630000Y-42270000D01*
%TO.C,R9*%
X153040000Y-22000000D02*
X152270000Y-22000000D01*
X144960000Y-22000000D02*
X145730000Y-22000000D01*
X145730000Y-20630000D02*
X145730000Y-23370000D01*
X152270000Y-23370000D02*
X152270000Y-20630000D01*
X145730000Y-23370000D02*
X152270000Y-23370000D01*
X152270000Y-20630000D02*
X145730000Y-20630000D01*
%TO.C,R8*%
X125040000Y-70000000D02*
X124270000Y-70000000D01*
X116960000Y-70000000D02*
X117730000Y-70000000D01*
X117730000Y-68630000D02*
X117730000Y-71370000D01*
X124270000Y-71370000D02*
X124270000Y-68630000D01*
X117730000Y-71370000D02*
X124270000Y-71370000D01*
X124270000Y-68630000D02*
X117730000Y-68630000D01*
%TO.C,R7*%
X161000000Y-54960000D02*
X161000000Y-55730000D01*
X161000000Y-63040000D02*
X161000000Y-62270000D01*
X159630000Y-62270000D02*
X162370000Y-62270000D01*
X162370000Y-55730000D02*
X159630000Y-55730000D01*
X162370000Y-62270000D02*
X162370000Y-55730000D01*
X159630000Y-55730000D02*
X159630000Y-62270000D01*
%TO.C,R6*%
X141880000Y-47000000D02*
X142650000Y-47000000D01*
X149960000Y-47000000D02*
X149190000Y-47000000D01*
X149190000Y-48370000D02*
X149190000Y-45630000D01*
X142650000Y-45630000D02*
X142650000Y-48370000D01*
X149190000Y-45630000D02*
X142650000Y-45630000D01*
X142650000Y-48370000D02*
X149190000Y-48370000D01*
%TO.C,R3*%
X161000000Y-45040000D02*
X161000000Y-44270000D01*
X161000000Y-36960000D02*
X161000000Y-37730000D01*
X162370000Y-37730000D02*
X159630000Y-37730000D01*
X159630000Y-44270000D02*
X162370000Y-44270000D01*
X159630000Y-37730000D02*
X159630000Y-44270000D01*
X162370000Y-44270000D02*
X162370000Y-37730000D01*
%TO.C,R2*%
X137040000Y-90000000D02*
X136270000Y-90000000D01*
X128960000Y-90000000D02*
X129730000Y-90000000D01*
X129730000Y-88630000D02*
X129730000Y-91370000D01*
X136270000Y-91370000D02*
X136270000Y-88630000D01*
X129730000Y-91370000D02*
X136270000Y-91370000D01*
X136270000Y-88630000D02*
X129730000Y-88630000D01*
%TO.C,R1*%
X159040000Y-150000000D02*
X158270000Y-150000000D01*
X150960000Y-150000000D02*
X151730000Y-150000000D01*
X151730000Y-148630000D02*
X151730000Y-151370000D01*
X158270000Y-151370000D02*
X158270000Y-148630000D01*
X151730000Y-151370000D02*
X158270000Y-151370000D01*
X158270000Y-148630000D02*
X151730000Y-148630000D01*
%TO.C,R58*%
X157040000Y-71000000D02*
X156270000Y-71000000D01*
X148960000Y-71000000D02*
X149730000Y-71000000D01*
X149730000Y-69630000D02*
X149730000Y-72370000D01*
X156270000Y-72370000D02*
X156270000Y-69630000D01*
X149730000Y-72370000D02*
X156270000Y-72370000D01*
X156270000Y-69630000D02*
X149730000Y-69630000D01*
%TO.C,PXor3*%
X131980000Y-92650000D02*
X131980000Y-110550000D01*
X137280000Y-92650000D02*
X135630000Y-92650000D01*
X131980000Y-110550000D02*
X137280000Y-110550000D01*
X137280000Y-110550000D02*
X137280000Y-92650000D01*
X133630000Y-92650000D02*
X131980000Y-92650000D01*
X133630000Y-92650000D02*
G75*
G03*
X135630000Y-92650000I1000000J0D01*
G01*
%TO.C,PXor2*%
X131980000Y-120590000D02*
X131980000Y-138490000D01*
X137280000Y-120590000D02*
X135630000Y-120590000D01*
X131980000Y-138490000D02*
X137280000Y-138490000D01*
X137280000Y-138490000D02*
X137280000Y-120590000D01*
X133630000Y-120590000D02*
X131980000Y-120590000D01*
X133630000Y-120590000D02*
G75*
G03*
X135630000Y-120590000I1000000J0D01*
G01*
%TO.C,PXor1*%
X131980000Y-31685000D02*
X131980000Y-49585000D01*
X137280000Y-31685000D02*
X135630000Y-31685000D01*
X131980000Y-49585000D02*
X137280000Y-49585000D01*
X137280000Y-49585000D02*
X137280000Y-31685000D01*
X133630000Y-31685000D02*
X131980000Y-31685000D01*
X133630000Y-31685000D02*
G75*
G03*
X135630000Y-31685000I1000000J0D01*
G01*
%TO.C,PAND7*%
X151410000Y-153605000D02*
G75*
G03*
X153410000Y-153605000I1000000J0D01*
G01*
X151410000Y-153605000D02*
X149760000Y-153605000D01*
X155060000Y-171505000D02*
X155060000Y-153605000D01*
X149760000Y-171505000D02*
X155060000Y-171505000D01*
X155060000Y-153605000D02*
X153410000Y-153605000D01*
X149760000Y-153605000D02*
X149760000Y-171505000D01*
%TO.C,PAND6*%
X151410000Y-120585000D02*
G75*
G03*
X153410000Y-120585000I1000000J0D01*
G01*
X151410000Y-120585000D02*
X149760000Y-120585000D01*
X155060000Y-138485000D02*
X155060000Y-120585000D01*
X149760000Y-138485000D02*
X155060000Y-138485000D01*
X155060000Y-120585000D02*
X153410000Y-120585000D01*
X149760000Y-120585000D02*
X149760000Y-138485000D01*
%TO.C,PAND5*%
X151410000Y-74870000D02*
G75*
G03*
X153410000Y-74870000I1000000J0D01*
G01*
X151410000Y-74870000D02*
X149760000Y-74870000D01*
X155060000Y-92770000D02*
X155060000Y-74870000D01*
X149760000Y-92770000D02*
X155060000Y-92770000D01*
X155060000Y-74870000D02*
X153410000Y-74870000D01*
X149760000Y-74870000D02*
X149760000Y-92770000D01*
%TO.C,PAND4*%
X149760000Y-26605000D02*
X149760000Y-44505000D01*
X155060000Y-26605000D02*
X153410000Y-26605000D01*
X149760000Y-44505000D02*
X155060000Y-44505000D01*
X155060000Y-44505000D02*
X155060000Y-26605000D01*
X151410000Y-26605000D02*
X149760000Y-26605000D01*
X151410000Y-26605000D02*
G75*
G03*
X153410000Y-26605000I1000000J0D01*
G01*
%TO.C,PAND3*%
X115460000Y-87565000D02*
X115460000Y-105465000D01*
X120760000Y-87565000D02*
X119110000Y-87565000D01*
X115460000Y-105465000D02*
X120760000Y-105465000D01*
X120760000Y-105465000D02*
X120760000Y-87565000D01*
X117110000Y-87565000D02*
X115460000Y-87565000D01*
X117110000Y-87565000D02*
G75*
G03*
X119110000Y-87565000I1000000J0D01*
G01*
%TO.C,PAND2*%
X131980000Y-62170000D02*
X131980000Y-80070000D01*
X137280000Y-62170000D02*
X135630000Y-62170000D01*
X131980000Y-80070000D02*
X137280000Y-80070000D01*
X137280000Y-80070000D02*
X137280000Y-62170000D01*
X133630000Y-62170000D02*
X131980000Y-62170000D01*
X133630000Y-62170000D02*
G75*
G03*
X135630000Y-62170000I1000000J0D01*
G01*
%TO.C,PAND1*%
X149760000Y-49465000D02*
X149760000Y-67365000D01*
X155060000Y-49465000D02*
X153410000Y-49465000D01*
X149760000Y-67365000D02*
X155060000Y-67365000D01*
X155060000Y-67365000D02*
X155060000Y-49465000D01*
X151410000Y-49465000D02*
X149760000Y-49465000D01*
X151410000Y-49465000D02*
G75*
G03*
X153410000Y-49465000I1000000J0D01*
G01*
%TO.C,JSerial_R-P1*%
X108000000Y-159760000D02*
X104000000Y-159760000D01*
X104000000Y-159760000D02*
X104000000Y-159760000D01*
X104000000Y-159760000D02*
X108000000Y-159760000D01*
X108000000Y-159760000D02*
X108000000Y-159760000D01*
X104000000Y-159760000D02*
X112000000Y-159760000D01*
X112000000Y-159760000D02*
X112000000Y-179760000D01*
X112000000Y-179760000D02*
X104000000Y-179760000D01*
X104000000Y-179760000D02*
X104000000Y-159760000D01*
%TO.C,JSelector1*%
X104000000Y-141940000D02*
X112000000Y-141940000D01*
X112000000Y-141940000D02*
X112000000Y-156940000D01*
X112000000Y-156940000D02*
X104000000Y-156940000D01*
X104000000Y-156940000D02*
X104000000Y-141940000D01*
X108000000Y-141940000D02*
X104000000Y-141940000D01*
X104000000Y-141940000D02*
X104000000Y-141940000D01*
X104000000Y-141940000D02*
X108000000Y-141940000D01*
X108000000Y-141940000D02*
X108000000Y-141940000D01*
%TO.C,JPower2*%
X156400000Y-193000000D02*
X148400000Y-193000000D01*
X148400000Y-193000000D02*
X148400000Y-183000000D01*
X148400000Y-183000000D02*
X156400000Y-183000000D01*
X156400000Y-183000000D02*
X156400000Y-193000000D01*
X152400000Y-193000000D02*
X156400000Y-193000000D01*
X156400000Y-193000000D02*
X156400000Y-193000000D01*
X156400000Y-193000000D02*
X152400000Y-193000000D01*
X152400000Y-193000000D02*
X152400000Y-193000000D01*
%TO.C,JPower1*%
X104000000Y-182500000D02*
X112000000Y-182500000D01*
X112000000Y-182500000D02*
X112000000Y-192500000D01*
X112000000Y-192500000D02*
X104000000Y-192500000D01*
X104000000Y-192500000D02*
X104000000Y-182500000D01*
X108000000Y-182500000D02*
X104000000Y-182500000D01*
X104000000Y-182500000D02*
X104000000Y-182500000D01*
X104000000Y-182500000D02*
X108000000Y-182500000D01*
X108000000Y-182500000D02*
X108000000Y-182500000D01*
%TO.C,J7*%
X167640000Y-175420000D02*
X163640000Y-175420000D01*
X163640000Y-175420000D02*
X163640000Y-175420000D01*
X163640000Y-175420000D02*
X167640000Y-175420000D01*
X167640000Y-175420000D02*
X167640000Y-175420000D01*
X163640000Y-175420000D02*
X171640000Y-175420000D01*
X171640000Y-175420000D02*
X171640000Y-195420000D01*
X171640000Y-195420000D02*
X163640000Y-195420000D01*
X163640000Y-195420000D02*
X163640000Y-175420000D01*
%TO.C,J6*%
X167640000Y-152600000D02*
X163640000Y-152600000D01*
X163640000Y-152600000D02*
X163640000Y-152600000D01*
X163640000Y-152600000D02*
X167640000Y-152600000D01*
X167640000Y-152600000D02*
X167640000Y-152600000D01*
X163640000Y-152600000D02*
X171640000Y-152600000D01*
X171640000Y-152600000D02*
X171640000Y-172600000D01*
X171640000Y-172600000D02*
X163640000Y-172600000D01*
X163640000Y-172600000D02*
X163640000Y-152600000D01*
%TO.C,J5*%
X167640000Y-129700000D02*
X163640000Y-129700000D01*
X163640000Y-129700000D02*
X163640000Y-129700000D01*
X163640000Y-129700000D02*
X167640000Y-129700000D01*
X167640000Y-129700000D02*
X167640000Y-129700000D01*
X163640000Y-129700000D02*
X171640000Y-129700000D01*
X171640000Y-129700000D02*
X171640000Y-149700000D01*
X171640000Y-149700000D02*
X163640000Y-149700000D01*
X163640000Y-149700000D02*
X163640000Y-129700000D01*
%TO.C,J4*%
X167640000Y-106840000D02*
X163640000Y-106840000D01*
X163640000Y-106840000D02*
X163640000Y-106840000D01*
X163640000Y-106840000D02*
X167640000Y-106840000D01*
X167640000Y-106840000D02*
X167640000Y-106840000D01*
X163640000Y-106840000D02*
X171640000Y-106840000D01*
X171640000Y-106840000D02*
X171640000Y-126840000D01*
X171640000Y-126840000D02*
X163640000Y-126840000D01*
X163640000Y-126840000D02*
X163640000Y-106840000D01*
%TO.C,J3*%
X167640000Y-84100000D02*
X163640000Y-84100000D01*
X163640000Y-84100000D02*
X163640000Y-84100000D01*
X163640000Y-84100000D02*
X167640000Y-84100000D01*
X167640000Y-84100000D02*
X167640000Y-84100000D01*
X163640000Y-84100000D02*
X171640000Y-84100000D01*
X171640000Y-84100000D02*
X171640000Y-104100000D01*
X171640000Y-104100000D02*
X163640000Y-104100000D01*
X163640000Y-104100000D02*
X163640000Y-84100000D01*
%TO.C,J2*%
X167640000Y-61120000D02*
X163640000Y-61120000D01*
X163640000Y-61120000D02*
X163640000Y-61120000D01*
X163640000Y-61120000D02*
X167640000Y-61120000D01*
X167640000Y-61120000D02*
X167640000Y-61120000D01*
X163640000Y-61120000D02*
X171640000Y-61120000D01*
X171640000Y-61120000D02*
X171640000Y-81120000D01*
X171640000Y-81120000D02*
X163640000Y-81120000D01*
X163640000Y-81120000D02*
X163640000Y-61120000D01*
%TO.C,J1*%
X167640000Y-38380000D02*
X163640000Y-38380000D01*
X163640000Y-38380000D02*
X163640000Y-38380000D01*
X163640000Y-38380000D02*
X167640000Y-38380000D01*
X167640000Y-38380000D02*
X167640000Y-38380000D01*
X163640000Y-38380000D02*
X171640000Y-38380000D01*
X171640000Y-38380000D02*
X171640000Y-58380000D01*
X171640000Y-58380000D02*
X163640000Y-58380000D01*
X163640000Y-58380000D02*
X163640000Y-38380000D01*
%TO.C,J0*%
X167640000Y-15520000D02*
X163640000Y-15520000D01*
X163640000Y-15520000D02*
X163640000Y-15520000D01*
X163640000Y-15520000D02*
X167640000Y-15520000D01*
X167640000Y-15520000D02*
X167640000Y-15520000D01*
X163640000Y-15520000D02*
X171640000Y-15520000D01*
X171640000Y-15520000D02*
X171640000Y-35520000D01*
X171640000Y-35520000D02*
X163640000Y-35520000D01*
X163640000Y-35520000D02*
X163640000Y-15520000D01*
%TO.C,INOT1*%
X115460000Y-41845000D02*
X115460000Y-59745000D01*
X120760000Y-41845000D02*
X119110000Y-41845000D01*
X115460000Y-59745000D02*
X120760000Y-59745000D01*
X120760000Y-59745000D02*
X120760000Y-41845000D01*
X117110000Y-41845000D02*
X115460000Y-41845000D01*
X117110000Y-41845000D02*
G75*
G03*
X119110000Y-41845000I1000000J0D01*
G01*
%TO.C,C12*%
X158130000Y-120630000D02*
X158130000Y-121335000D01*
X158130000Y-123370000D02*
X162370000Y-123370000D01*
X158130000Y-120630000D02*
X162370000Y-120630000D01*
X162370000Y-122665000D02*
X162370000Y-123370000D01*
X158130000Y-122665000D02*
X158130000Y-123370000D01*
X162370000Y-120630000D02*
X162370000Y-121335000D01*
%TO.C,C11*%
X124130000Y-41630000D02*
X124130000Y-42335000D01*
X124130000Y-44370000D02*
X128370000Y-44370000D01*
X124130000Y-41630000D02*
X128370000Y-41630000D01*
X128370000Y-43665000D02*
X128370000Y-44370000D01*
X124130000Y-43665000D02*
X124130000Y-44370000D01*
X128370000Y-41630000D02*
X128370000Y-42335000D01*
%TO.C,C10*%
X158130000Y-49630000D02*
X158130000Y-50335000D01*
X158130000Y-52370000D02*
X162370000Y-52370000D01*
X158130000Y-49630000D02*
X162370000Y-49630000D01*
X162370000Y-51665000D02*
X162370000Y-52370000D01*
X158130000Y-51665000D02*
X158130000Y-52370000D01*
X162370000Y-49630000D02*
X162370000Y-50335000D01*
%TO.C,C9*%
X141130000Y-91630000D02*
X141130000Y-92335000D01*
X141130000Y-94370000D02*
X145370000Y-94370000D01*
X141130000Y-91630000D02*
X145370000Y-91630000D01*
X145370000Y-93665000D02*
X145370000Y-94370000D01*
X141130000Y-93665000D02*
X141130000Y-94370000D01*
X145370000Y-91630000D02*
X145370000Y-92335000D01*
%TO.C,C8*%
X141130000Y-119630000D02*
X141130000Y-120335000D01*
X141130000Y-122370000D02*
X145370000Y-122370000D01*
X141130000Y-119630000D02*
X145370000Y-119630000D01*
X145370000Y-121665000D02*
X145370000Y-122370000D01*
X141130000Y-121665000D02*
X141130000Y-122370000D01*
X145370000Y-119630000D02*
X145370000Y-120335000D01*
%TO.C,C7*%
X124130000Y-84630000D02*
X124130000Y-85335000D01*
X124130000Y-87370000D02*
X128370000Y-87370000D01*
X124130000Y-84630000D02*
X128370000Y-84630000D01*
X128370000Y-86665000D02*
X128370000Y-87370000D01*
X124130000Y-86665000D02*
X124130000Y-87370000D01*
X128370000Y-84630000D02*
X128370000Y-85335000D01*
%TO.C,C6*%
X158130000Y-74630000D02*
X158130000Y-75335000D01*
X158130000Y-77370000D02*
X162370000Y-77370000D01*
X158130000Y-74630000D02*
X162370000Y-74630000D01*
X162370000Y-76665000D02*
X162370000Y-77370000D01*
X158130000Y-76665000D02*
X158130000Y-77370000D01*
X162370000Y-74630000D02*
X162370000Y-75335000D01*
%TO.C,C5*%
X158130000Y-153630000D02*
X158130000Y-154335000D01*
X158130000Y-156370000D02*
X162370000Y-156370000D01*
X158130000Y-153630000D02*
X162370000Y-153630000D01*
X162370000Y-155665000D02*
X162370000Y-156370000D01*
X158130000Y-155665000D02*
X158130000Y-156370000D01*
X162370000Y-153630000D02*
X162370000Y-154335000D01*
%TO.C,C4*%
X141130000Y-29630000D02*
X141130000Y-30335000D01*
X141130000Y-32370000D02*
X145370000Y-32370000D01*
X141130000Y-29630000D02*
X145370000Y-29630000D01*
X145370000Y-31665000D02*
X145370000Y-32370000D01*
X141130000Y-31665000D02*
X141130000Y-32370000D01*
X145370000Y-29630000D02*
X145370000Y-30335000D01*
%TO.C,C3*%
X141130000Y-61630000D02*
X141130000Y-62335000D01*
X141130000Y-64370000D02*
X145370000Y-64370000D01*
X141130000Y-61630000D02*
X145370000Y-61630000D01*
X145370000Y-63665000D02*
X145370000Y-64370000D01*
X141130000Y-63665000D02*
X141130000Y-64370000D01*
X145370000Y-61630000D02*
X145370000Y-62335000D01*
%TO.C,C2*%
X158130000Y-26630000D02*
X158130000Y-27335000D01*
X158130000Y-29370000D02*
X162370000Y-29370000D01*
X158130000Y-26630000D02*
X162370000Y-26630000D01*
X162370000Y-28665000D02*
X162370000Y-29370000D01*
X158130000Y-28665000D02*
X158130000Y-29370000D01*
X162370000Y-26630000D02*
X162370000Y-27335000D01*
%TO.C,C1*%
X116630000Y-189530000D02*
X117335000Y-189530000D01*
X119370000Y-189530000D02*
X119370000Y-185290000D01*
X116630000Y-189530000D02*
X116630000Y-185290000D01*
X118665000Y-185290000D02*
X119370000Y-185290000D01*
X118665000Y-189530000D02*
X119370000Y-189530000D01*
X116630000Y-185290000D02*
X117335000Y-185290000D01*
%TD*%
M02*
