M48
; DRILL file {KiCad (6.0.8)} date Sat Nov  5 23:26:07 2022
; FORMAT={-:-/ absolute / inch / decimal}
; #@! TF.CreationDate,2022-11-05T23:26:07+09:00
; #@! TF.GenerationSoftware,Kicad,Pcbnew,(6.0.8)
; #@! TF.FileFunction,Plated,1,2,PTH
FMAT,2
INCH
; #@! TA.AperFunction,Plated,PTH,ViaDrill
T1C0.0157
; #@! TA.AperFunction,Plated,PTH,ComponentDrill
T2C0.0315
; #@! TA.AperFunction,Plated,PTH,ComponentDrill
T3C0.0433
%
G90
G05
T1
X4.4094Y-3.0709
X4.4882Y-3.0709
X4.6081Y-3.3447
X4.6457Y-2.4803
X4.7244Y-4.7638
X4.7638Y-4.9606
X4.8031Y-2.4016
X4.8819Y-1.811
X4.9606Y-3.622
X5.0Y-2.2835
X5.0Y-2.3622
X5.0Y-4.0551
X5.0394Y-3.7402
X5.0787Y-1.7717
X5.0787Y-2.2835
X5.0787Y-2.3622
X5.0787Y-4.6063
X5.1181Y-5.9055
X5.1181Y-6.1024
X5.2362Y-2.5591
X5.2362Y-3.6614
X5.2362Y-4.5669
X5.2756Y-2.9921
X5.2756Y-3.3071
X5.2756Y-5.0394
X5.315Y-2.9921
X5.315Y-3.8583
X5.315Y-4.0551
X5.315Y-4.8425
X5.3543Y-1.8504
X5.3543Y-2.8346
X5.3543Y-4.4094
X5.3937Y-2.0079
X5.3937Y-2.4409
X5.5118Y-2.4409
X5.5512Y-2.0472
X5.5512Y-5.9843
X5.5906Y-5.9449
X5.6299Y-2.7559
X5.6299Y-2.9921
X5.6637Y-2.9078
X5.6693Y-2.7953
X5.6693Y-4.4094
X5.7087Y-2.5984
X5.7087Y-2.9134
X5.8661Y-1.8504
X5.9449Y-2.1654
X5.9449Y-3.5827
X6.0236Y-1.6142
X6.0236Y-1.8504
X6.063Y-2.2047
X6.063Y-2.7165
X6.063Y-3.189
X6.1024Y-1.8504
X6.2205Y-2.4409
X6.2205Y-4.8819
X6.2598Y-3.1102
T2
X4.2126Y-3.7764
X4.2126Y-4.1764
X4.3307Y-3.1858
X4.3307Y-3.5858
X4.3307Y-3.7764
X4.3307Y-4.1764
X4.3701Y-1.4929
X4.3701Y-1.8929
X4.3701Y-2.0047
X4.3701Y-2.4047
X4.4457Y-4.252
X4.4457Y-4.422
X4.4457Y-4.5669
X4.5Y-1.6998
X4.5Y-1.7998
X4.5Y-1.8998
X4.5Y-1.9998
X4.5Y-2.0998
X4.5Y-2.1998
X4.5Y-2.2998
X4.5Y-3.4998
X4.5Y-3.5998
X4.5Y-3.6998
X4.5Y-3.7998
X4.5Y-3.8998
X4.5Y-3.9998
X4.5Y-4.0998
X4.5638Y-2.5197
X4.5638Y-2.7559
X4.5638Y-2.874
X4.5638Y-3.1102
X4.5638Y-3.2283
X4.5669Y-2.9921
X4.6394Y-4.8819
X4.6394Y-5.3543
X4.6425Y-1.2205
X4.6425Y-1.378
X4.6425Y-4.7638
X4.6425Y-5.0
X4.6425Y-5.1181
X4.6425Y-5.2362
X4.6457Y-1.4961
X4.6457Y-7.3291
X4.6457Y-7.4276
X4.8Y-1.6998
X4.8Y-1.7998
X4.8Y-1.8998
X4.8Y-1.9998
X4.8Y-2.0998
X4.8Y-2.1998
X4.8Y-2.2998
X4.8Y-3.4998
X4.8Y-3.5998
X4.8Y-3.6998
X4.8Y-3.7998
X4.8Y-3.8998
X4.8Y-3.9998
X4.8Y-4.0998
X4.8457Y-4.252
X4.8457Y-4.422
X4.8457Y-4.5669
X4.9213Y-1.6929
X4.9213Y-3.3858
X4.9575Y-2.3228
X4.9606Y-3.8157
X4.9606Y-4.2157
X4.9638Y-2.5197
X4.9638Y-2.7559
X4.9638Y-2.874
X4.9638Y-3.1102
X4.9638Y-3.2283
X4.9669Y-2.9921
X5.0197Y-1.6929
X5.0197Y-3.3858
X5.0362Y-3.5433
X5.0394Y-4.8819
X5.0394Y-5.3543
X5.0425Y-1.2205
X5.0425Y-1.378
X5.0425Y-4.7638
X5.0425Y-5.0
X5.0425Y-5.1181
X5.0425Y-5.2362
X5.0457Y-1.4961
X5.0756Y-1.1024
X5.115Y-3.2677
X5.115Y-3.3858
X5.115Y-4.4488
X5.1504Y-1.2998
X5.1504Y-1.3998
X5.1504Y-1.4998
X5.1504Y-1.5998
X5.1504Y-1.6998
X5.1504Y-1.7998
X5.1504Y-1.8998
X5.1504Y-2.5
X5.1504Y-2.6
X5.1504Y-2.7
X5.1504Y-2.8
X5.1504Y-2.9
X5.1504Y-3.0
X5.1504Y-3.1
X5.1504Y-3.7
X5.1504Y-3.8
X5.1504Y-3.9
X5.1504Y-4.0
X5.1504Y-4.1
X5.1504Y-4.2
X5.1504Y-4.3
X5.1504Y-4.8
X5.1504Y-4.9
X5.1504Y-5.0
X5.1504Y-5.1
X5.1504Y-5.2
X5.1504Y-5.3
X5.1504Y-5.4
X5.3118Y-2.0472
X5.3118Y-2.1654
X5.3118Y-6.2598
X5.3575Y-2.3228
X5.4299Y-4.5669
X5.4362Y-3.5433
X5.4504Y-1.2998
X5.4504Y-1.3998
X5.4504Y-1.4998
X5.4504Y-1.5998
X5.4504Y-1.6998
X5.4504Y-1.7998
X5.4504Y-1.8998
X5.4504Y-2.5
X5.4504Y-2.6
X5.4504Y-2.7
X5.4504Y-2.8
X5.4504Y-2.9
X5.4504Y-3.0
X5.4504Y-3.1
X5.4504Y-3.7
X5.4504Y-3.8
X5.4504Y-3.9
X5.4504Y-4.0
X5.4504Y-4.1
X5.4504Y-4.2
X5.4504Y-4.3
X5.4504Y-4.8
X5.4504Y-4.9
X5.4504Y-5.0
X5.4504Y-5.1
X5.4504Y-5.2
X5.4504Y-5.3
X5.4504Y-5.4
X5.4756Y-1.1024
X5.515Y-3.2677
X5.515Y-3.3858
X5.515Y-4.4488
X5.5449Y-1.8504
X5.5512Y-2.5953
X5.5512Y-2.9953
X5.5874Y-4.0157
X5.5874Y-4.1339
X5.5874Y-4.252
X5.5906Y-1.2205
X5.5906Y-2.4803
X5.5906Y-3.6614
X5.5906Y-4.7638
X5.6299Y-1.3354
X5.6299Y-1.7354
X5.6299Y-6.3748
X5.6299Y-6.7748
X5.6661Y-0.8661
X5.6693Y-3.0646
X5.6693Y-3.4646
X5.6693Y-4.8787
X5.6693Y-5.2787
X5.6693Y-5.3906
X5.6693Y-5.7906
X5.689Y-1.2205
X5.689Y-2.4803
X5.689Y-3.6614
X5.689Y-4.7638
X5.7118Y-2.0472
X5.7118Y-2.1654
X5.7118Y-6.2598
X5.8236Y-2.7953
X5.8299Y-4.5669
X5.8504Y-1.0998
X5.8504Y-1.1998
X5.8504Y-1.2998
X5.8504Y-1.3998
X5.8504Y-1.4998
X5.8504Y-1.5998
X5.8504Y-1.6998
X5.8504Y-1.9998
X5.8504Y-2.0998
X5.8504Y-2.1998
X5.8504Y-2.2998
X5.8504Y-2.3998
X5.8504Y-2.4998
X5.8504Y-2.5998
X5.8504Y-3.0
X5.8504Y-3.1
X5.8504Y-3.2
X5.8504Y-3.3
X5.8504Y-3.4
X5.8504Y-3.5
X5.8504Y-3.6
X5.8504Y-4.7998
X5.8504Y-4.8998
X5.8504Y-4.9998
X5.8504Y-5.0998
X5.8504Y-5.1998
X5.8504Y-5.2998
X5.8504Y-5.3998
X5.8504Y-6.0998
X5.8504Y-6.1998
X5.8504Y-6.2998
X5.8504Y-6.3998
X5.8504Y-6.4998
X5.8504Y-6.5998
X5.8504Y-6.6998
X5.863Y-3.7795
X5.863Y-5.5512
X5.863Y-5.6693
X5.9024Y-5.9055
X5.9417Y-6.9291
X5.9449Y-1.8504
X5.9811Y-4.5669
X5.9874Y-4.0157
X5.9874Y-4.1339
X5.9874Y-4.252
X6.0661Y-0.8661
X6.1504Y-1.0998
X6.1504Y-1.1998
X6.1504Y-1.2998
X6.1504Y-1.3998
X6.1504Y-1.4998
X6.1504Y-1.5998
X6.1504Y-1.6998
X6.1504Y-1.9998
X6.1504Y-2.0998
X6.1504Y-2.1998
X6.1504Y-2.2998
X6.1504Y-2.3998
X6.1504Y-2.4998
X6.1504Y-2.5998
X6.1504Y-3.0
X6.1504Y-3.1
X6.1504Y-3.2
X6.1504Y-3.3
X6.1504Y-3.4
X6.1504Y-3.5
X6.1504Y-3.6
X6.1504Y-4.7998
X6.1504Y-4.8998
X6.1504Y-4.9998
X6.1504Y-5.0998
X6.1504Y-5.1998
X6.1504Y-5.2998
X6.1504Y-5.3998
X6.1504Y-6.0998
X6.1504Y-6.1998
X6.1504Y-6.2998
X6.1504Y-6.3998
X6.1504Y-6.4998
X6.1504Y-6.5998
X6.1504Y-6.6998
X6.2236Y-2.7953
X6.2598Y-1.1024
X6.2598Y-2.0079
X6.2598Y-2.9921
X6.2598Y-4.8031
X6.2598Y-6.1024
X6.263Y-3.7795
X6.263Y-5.5512
X6.263Y-5.6693
X6.2992Y-4.0126
X6.2992Y-4.4126
X6.3024Y-5.9055
X6.3386Y-1.4142
X6.3386Y-1.8142
X6.3386Y-2.1228
X6.3386Y-2.5228
X6.3386Y-3.1858
X6.3386Y-3.5858
X6.3386Y-4.9575
X6.3386Y-5.3575
X6.3386Y-6.4142
X6.3386Y-6.8142
X6.3417Y-6.9291
X6.3583Y-1.1024
X6.3583Y-2.0079
X6.3583Y-2.9921
X6.3583Y-4.8031
X6.3583Y-6.1024
X6.3811Y-4.5669
T3
X4.252Y-5.6866
X4.252Y-5.8835
X4.252Y-6.0803
X4.252Y-6.3882
X4.252Y-6.585
X4.252Y-6.7819
X4.252Y-6.9787
X4.252Y-7.2835
X4.252Y-7.4803
X6.0Y-7.3031
X6.0Y-7.5
X6.6Y-0.7094
X6.6Y-0.9063
X6.6Y-1.1031
X6.6Y-1.3
X6.6Y-1.6094
X6.6Y-1.8063
X6.6Y-2.0031
X6.6Y-2.2
X6.6Y-2.5047
X6.6Y-2.7016
X6.6Y-2.8984
X6.6Y-3.0953
X6.6Y-3.4094
X6.6Y-3.6063
X6.6Y-3.8031
X6.6Y-4.0
X6.6Y-4.3047
X6.6Y-4.5016
X6.6Y-4.6984
X6.6Y-4.8953
X6.6Y-5.2047
X6.6Y-5.4016
X6.6Y-5.5984
X6.6Y-5.7953
X6.6Y-6.1063
X6.6Y-6.3031
X6.6Y-6.5
X6.6Y-6.6969
X6.6Y-7.0047
X6.6Y-7.2016
X6.6Y-7.3984
X6.6Y-7.5953
T0
M30
